<?xml version="1.0" encoding="utf-8"?>
<!-- Generator: Adobe Illustrator 23.0.1, SVG Export Plug-In . SVG Version: 6.00 Build 0)  -->
<svg version="1.1" id="Layer_1" xmlns="http://www.w3.org/2000/svg" xmlns:xlink="http://www.w3.org/1999/xlink" x="0px" y="0px"
	 viewBox="0 0 33.8 33.7" style="enable-background:new 0 0 33.8 33.7;" xml:space="preserve">
<style type="text/css">
	.st0{fill:#146D95;}
	.st1{fill:#FFFFFF;}
	.st2{opacity:0.4;}
	.st3{clip-path:url(#SVGID_2_);}
	.st4{clip-path:url(#SVGID_4_);fill:url(#SVGID_5_);}
</style>
<g>
	<g>
		<path class="st0" d="M23.5,33.7H10.2C4.6,33.7,0,29.2,0,23.5V10.3C0,4.6,4.6,0,10.2,0h13.3c5.6,0,10.2,4.6,10.2,10.2v13.3
			C33.7,29.2,29.1,33.7,23.5,33.7"/>
		<polygon class="st1" points="2.7,24.3 8.2,27.5 11.8,29.5 12.9,30.2 15.6,31.7 15.6,27.6 15.3,27.5 11.8,25.4 6.2,22.2 6.2,20.9 
			11.8,24.1 12.9,24.7 15.6,26.3 15.6,22.2 15.3,22.1 6.2,16.8 6.2,15.5 15.6,20.9 15.6,16.8 2.7,9.4 		"/>
		<path class="st1" d="M16.5,1.2L11.7,4L8.1,6L3.5,8.7l12.9,7.5l8.1-4.7l4.8-2.8L16.5,1.2z M16.5,12c-1.9-1.1-3.9-2.2-5.8-3.4
			l1.1-0.6l3.5-2l1.2-0.7c1.9,1.1,3.9,2.2,5.8,3.4C20.3,9.8,18.4,10.9,16.5,12"/>
		<path class="st1" d="M30.3,10.8L30.3,10.8L29,10l0,0l-11.7,6.7l0,0l0,0l0,14.9h0l0,0.1L29,25l0,0l1.2-2.1l0,0L30.3,10.8z
			 M19.8,27.4l0-9.2l8-4.6l0,9.2L19.8,27.4z"/>
		<path class="st1" d="M26.2,20.8c-1.5,1-3.1,1.9-4.6,2.9l-0.1,0c-0.1-0.3,0-0.7,0-1.1l-0.1-2.3c0.6-0.3,1.2-0.7,1.8-1l2.8-1.7
			c0,0,0,0,0.1,0l0,0.2l0.1,0l-0.1,0L26.2,20.8z"/>
		<g class="st2">
			<g>
				<defs>
					<rect id="SVGID_1_" x="2.7" y="9.3" width="13.1" height="13.8"/>
				</defs>
				<clipPath id="SVGID_2_">
					<use xlink:href="#SVGID_1_"  style="overflow:visible;"/>
				</clipPath>
				<g class="st3">
					<defs>
						<path id="SVGID_3_" d="M2.7,9.3c0.6,0.2,1.1,0.6,1.6,0.9L7.5,12l6,3.5c0.6,0.4,1.6,0.8,2.1,1.3c0.1,0.3,0.2,0.7,0.1,1
							c0,0.1-0.1,0.2-0.1,0.2c-0.3,0.2-0.7,0.4-1,0.6l-2.4,1.3c0-0.6,0.2-1.7-0.2-2.2c-0.1-0.2-0.3-0.3-0.5-0.3
							c-0.2,0-0.5,0.1-0.6,0.3c-0.2,0.2-0.3,0.4-0.3,0.7c0,0.4,0.2,0.6,0.4,0.9l0,0.8c0,0.3,0,0.5-0.2,0.7c-0.3,0.2-0.7,0.5-1.1,0.5
							c-1,0-2.4-1.7-3.2-1.6c-0.3,0-0.5,0.3-0.7,0.5l0,0c-0.1,0.2,0,0.7,0,0.9c0,0.2,0.4,1,0,1.7c-0.5,0.5-1.2,0.2-1.4,0.4
							c-0.6-0.3-1.2-0.7-1.7-1v-6.8l1-0.6c0.1,0.1,0.2,0.2,0.3,0.3C4.2,15,4.4,15.1,4.6,15c0.2-0.1,0.5-0.3,0.5-0.5
							c0.1-0.2,0.1-0.5,0-0.7c-0.1-0.2-0.3-0.4-0.5-0.4c-0.6-0.2-1.5,0.6-2,0.9L2.7,9.3z"/>
					</defs>
					<clipPath id="SVGID_4_">
						<use xlink:href="#SVGID_3_"  style="overflow:visible;"/>
					</clipPath>
					
						<linearGradient id="SVGID_5_" gradientUnits="userSpaceOnUse" x1="-6.5114" y1="37.8771" x2="-4.9866" y2="37.8771" gradientTransform="matrix(8.7155 0.4678 -0.4678 8.7155 76.8647 -311.204)">
						<stop  offset="0" style="stop-color:#3785B5"/>
						<stop  offset="1" style="stop-color:#41C6EE"/>
					</linearGradient>
					<polygon class="st4" points="1.9,23.2 15.8,23.9 16.5,9.3 2.7,8.6 					"/>
				</g>
			</g>
		</g>
		<path class="st1" d="M4.3,18.4c0.1,0,0.3,0,0.4,0.1c0.2,0.1,0.3,0.3,0.4,0.5c0.1,0.2,0.1,0.5-0.1,0.7C5,19.9,4.8,20,4.5,20
			c-0.1,0-0.3,0-0.4-0.1c-0.2-0.1-0.4-0.3-0.5-0.5c-0.1-0.2-0.1-0.4,0-0.6C3.8,18.6,4,18.5,4.3,18.4"/>
		<path class="st1" d="M6.5,14.6c0.2,0,0.4,0,0.5,0.1c0.2,0.1,0.3,0.3,0.4,0.5c0.1,0.2,0,0.4-0.1,0.6c-0.1,0.2-0.3,0.3-0.6,0.4
			c-0.1,0-0.3,0-0.4-0.1C6.1,16.2,6,16,5.9,15.8c-0.1-0.2-0.1-0.4,0-0.6C6,14.9,6.2,14.7,6.5,14.6"/>
		<path class="st1" d="M8.9,16c0.1,0,0.3,0,0.4,0c0.2,0.1,0.4,0.2,0.5,0.4c0.1,0.2,0.1,0.4,0,0.6c-0.1,0.3-0.3,0.4-0.6,0.6
			c-0.2,0-0.3,0-0.4,0c-0.2-0.1-0.4-0.2-0.5-0.4c-0.1-0.2-0.1-0.5,0-0.7C8.4,16.2,8.6,16.1,8.9,16"/>
		<path class="st1" d="M6.4,12.1c0.2,0,0.3,0,0.5,0c0.2,0.1,0.4,0.2,0.5,0.5c0.1,0.2,0.1,0.4,0,0.6c-0.1,0.3-0.3,0.4-0.6,0.5
			c-0.1,0-0.3,0-0.4,0c-0.2-0.1-0.4-0.2-0.5-0.5c-0.1-0.2-0.1-0.4,0-0.6C6,12.4,6.2,12.3,6.4,12.1"/>
		<path class="st1" d="M6.6,17c0.1,0,0.3,0,0.4,0.1c0.2,0.1,0.4,0.3,0.5,0.5c0.1,0.2,0.1,0.5-0.1,0.7c-0.1,0.3-0.4,0.4-0.6,0.5
			c-0.2,0-0.3,0-0.5-0.1c-0.2-0.1-0.4-0.3-0.5-0.6c-0.1-0.2,0-0.4,0.1-0.6C6,17.2,6.3,17.1,6.6,17"/>
		<path class="st1" d="M11.1,14.9c0.1,0,0.3,0,0.4,0c0.2,0.1,0.4,0.2,0.6,0.4c0.1,0.2,0.1,0.4,0.1,0.6c-0.1,0.3-0.3,0.5-0.6,0.6
			c-0.1,0-0.3,0-0.4,0c-0.2-0.1-0.4-0.2-0.5-0.4c-0.1-0.2-0.1-0.5-0.1-0.7C10.6,15.1,10.8,15,11.1,14.9"/>
	</g>
</g>
</svg>
