<?xml version="1.0" encoding="utf-8"?>
<!-- Generator: Adobe Illustrator 23.0.1, SVG Export Plug-In . SVG Version: 6.00 Build 0)  -->
<svg version="1.1" id="Layer_1" xmlns="http://www.w3.org/2000/svg" xmlns:xlink="http://www.w3.org/1999/xlink" x="0px" y="0px"
	 viewBox="0 0 99.6 110.1" style="enable-background:new 0 0 99.6 110.1;" xml:space="preserve">
<style type="text/css">
	.st0{fill:#146D95;}
	.st1{fill:#17A7CF;}
	.st2{clip-path:url(#SVGID_1_);fill:url(#SVGID_2_);}
	.st3{fill:#FFFFFF;}
</style>
<g>
	<polygon class="st0" points="0,83.2 19.9,94.7 32.7,102.1 36.9,104.5 46.6,110.1 46.6,95.3 45.5,94.7 32.7,87.3 12.8,75.8 12.8,71 
		32.8,82.6 36.9,84.9 46.6,90.5 46.6,75.7 45.6,75.2 12.8,56.2 12.8,51.5 46.6,71 46.6,56.3 0,29.4 	"/>
	<path class="st1" d="M49.7,0L32.5,9.9l-12.8,7.4L3.1,26.9l46.6,26.9l29.4-17l17.2-9.9L49.7,0z M49.7,39c-7-4-14-8.1-21-12.1
		l3.8-2.2l12.8-7.4l4.4-2.5c7,4,14,8.1,21,12.1C63.7,30.9,56.7,35,49.7,39"/>
	<path class="st0" d="M99.6,34.4l-0.2-0.1l-4.4-2.6l0,0L52.9,56l0,0.1l-0.1,0l0,53.7h0l0,0.2l42.1-24.3l0.1-0.1l4.5-7.7l0.1-0.2
		L99.6,34.4z M61.7,94.4l0-33.2l28.7-16.6l0.1,33.2L61.7,94.4z"/>
	<path class="st1" d="M84.8,70.6c-5.5,3.5-11.1,6.7-16.6,10.3L68,80.8c-0.2-1.3-0.1-2.7-0.2-4l-0.3-8.4c2.2-0.9,4.4-2.5,6.4-3.7
		l10.1-6.1c0.1,0,0.1,0,0.2,0.1l0,0.7l0.3,0.1l-0.2,0.1L84.8,70.6z"/>
</g>
<g>
	<defs>
		<path id="SVGID_4_" d="M0.1,46.4c1.9-1,5.1-3.8,7.2-3.1c0.8,0.2,1.3,0.9,1.7,1.6c0.4,0.8,0.5,1.8,0.2,2.6c-0.3,0.8-1.2,1.5-2,1.8
			c-0.7,0.3-1.5,0.1-2.2-0.2c-0.5-0.3-0.8-0.6-1.2-1L0,50.2v24.5c2.1,1.4,4.1,2.5,6.3,3.8c0.7-0.9,2.9,0.3,4.9-1.5
			c1.3-2.4,0-5.1-0.1-6c-0.1-0.8-0.4-2.8,0-3.4l0.1,0.1c0.7-0.8,1.4-1.7,2.6-1.8c2.9-0.2,7.9,5.7,11.5,5.8c1.3,0,3-0.9,3.9-1.8
			c0.7-0.7,0.9-1.5,0.8-2.4l-0.1-3c-0.9-0.8-1.5-1.8-1.5-3.1c0-0.9,0.3-1.8,0.9-2.5c0.6-0.6,1.4-1,2.3-1c0.7,0,1.4,0.4,1.9,0.9
			c1.5,1.8,0.9,5.6,0.9,7.8l8.6-4.8c1.1-0.6,2.6-1.3,3.6-2.1c0.3-0.2,0.4-0.5,0.5-0.8c0.3-1.1,0-2.4-0.4-3.4
			C44.9,54,41.2,52.3,39,51L17.4,38.5L6,31.9c-1.9-1.1-3.9-2.4-5.9-3.2L0.1,46.4z"/>
	</defs>
	<clipPath id="SVGID_1_">
		<use xlink:href="#SVGID_4_"  style="overflow:visible;"/>
	</clipPath>
	
		<linearGradient id="SVGID_2_" gradientUnits="userSpaceOnUse" x1="-2.5654" y1="109.6853" x2="-3.536789e-02" y2="109.6853" gradientTransform="matrix(18.9529 1.0173 -1.0173 18.9529 159.307 -2023.8317)">
		<stop  offset="0" style="stop-color:#3785B5"/>
		<stop  offset="1" style="stop-color:#41C6EE"/>
	</linearGradient>
	<polygon class="st2" points="-2.7,78.7 47.3,81.4 50.1,28.8 0.2,26.1 	"/>
</g>
<path class="st3" d="M6,61.5c0.5,0,1.1,0.1,1.6,0.3c0.7,0.3,1.2,1,1.5,1.7c0.3,0.8,0.2,1.7-0.2,2.5c-0.5,0.9-1.2,1.2-2.1,1.5
	c-0.5,0-1-0.1-1.5-0.3c-0.8-0.3-1.4-1-1.7-1.8c-0.3-0.7-0.2-1.6,0.2-2.3C4.2,62.1,5,61.8,6,61.5"/>
<path class="st3" d="M13.9,47.9c0.7,0,1.3,0.1,1.9,0.4c0.7,0.4,1.2,1,1.4,1.8c0.2,0.8,0.1,1.6-0.3,2.3c-0.5,0.8-1.2,1.2-2.1,1.5
	c-0.5,0-1,0-1.4-0.2c-0.8-0.3-1.5-0.9-1.8-1.7c-0.3-0.7-0.3-1.5,0-2.2C12.1,48.8,12.9,48.3,13.9,47.9"/>
<path class="st3" d="M22.6,52.8c0.5,0,1,0,1.5,0.2c0.8,0.3,1.4,0.8,1.8,1.6c0.3,0.7,0.3,1.5,0.1,2.3c-0.4,1-1.2,1.5-2.2,2
	c-0.5,0.1-1.1,0.1-1.6-0.1c-0.7-0.2-1.4-0.7-1.7-1.5c-0.4-0.8-0.4-1.7,0-2.5C20.8,53.7,21.6,53.2,22.6,52.8"/>
<path class="st3" d="M13.6,39c0.5,0,1.1,0,1.6,0.1c0.8,0.3,1.5,0.9,1.9,1.7c0.3,0.7,0.3,1.5,0,2.2C16.8,44,16,44.5,15,44.9
	c-0.5,0.1-1.1,0.1-1.6-0.1c-0.8-0.3-1.5-0.9-1.8-1.7c-0.3-0.7-0.3-1.6,0-2.3C11.9,39.8,12.7,39.4,13.6,39"/>
<path class="st3" d="M14.2,56.6c0.4,0,0.9,0.1,1.3,0.3c0.8,0.3,1.5,1,1.8,1.8c0.3,0.8,0.2,1.6-0.2,2.4c-0.5,1-1.3,1.4-2.3,1.7
	c-0.6,0-1.2-0.1-1.8-0.4c-0.8-0.4-1.4-1.1-1.6-2c-0.2-0.8-0.1-1.6,0.3-2.3C12.3,57.2,13.1,56.9,14.2,56.6"/>
<path class="st3" d="M30.5,48.8c0.5,0,1.1-0.1,1.6,0.1c0.8,0.2,1.6,0.8,2,1.5c0.4,0.7,0.5,1.6,0.2,2.3c-0.4,1.1-1.1,1.7-2.1,2.2
	c-0.5,0.1-1.1,0.1-1.6,0c-0.8-0.2-1.6-0.7-2-1.5c-0.4-0.8-0.5-1.7-0.2-2.6C28.9,49.8,29.5,49.3,30.5,48.8"/>
</svg>
