<?xml version="1.0" encoding="utf-8"?>
<!-- Generator: Adobe Illustrator 23.0.1, SVG Export Plug-In . SVG Version: 6.00 Build 0)  -->
<svg version="1.1" id="Layer_1" xmlns="http://www.w3.org/2000/svg" xmlns:xlink="http://www.w3.org/1999/xlink" x="0px" y="0px"
	 viewBox="0 0 300 300" style="enable-background:new 0 0 300 300;" xml:space="preserve">
<style type="text/css">
	.st0{fill:#1D1D1B;}
</style>
<g>
	<g>
		<path class="st0" d="M160.2,198c1,1.2,1.4,2.6,1.4,4.2c0,2.2-0.7,4-2.2,5.3c-1.5,1.3-3.7,1.9-6.5,1.9h-11.4v-26.6h11.2
			c2.7,0,4.7,0.6,6.2,1.8c1.4,1.2,2.2,2.8,2.2,5c0,1.7-0.4,3-1.3,4.1s-2,1.7-3.4,2.1C157.9,196.1,159.2,196.8,160.2,198z M146.8,194
			h4.8c1.3,0,2.3-0.3,3-0.9c0.7-0.6,1-1.4,1-2.5c0-1.1-0.3-2-1-2.6c-0.7-0.6-1.7-0.9-3.1-0.9h-4.7V194z M155.1,204.2
			c0.8-0.6,1.1-1.5,1.1-2.7c0-1.2-0.4-2.1-1.1-2.7c-0.8-0.6-1.9-1-3.3-1h-5v7.3h5C153.3,205.1,154.3,204.8,155.1,204.2z"/>
		<path class="st0" d="M183,209.5l-6.2-10.4h-2.3v10.4h-5.3v-26.6h10.1c3.1,0,5.4,0.8,7.1,2.3c1.6,1.5,2.4,3.5,2.4,5.9
			c0,2-0.6,3.7-1.7,5c-1.1,1.4-2.7,2.3-4.8,2.7l6.6,10.6H183z M174.4,195.5h4.4c3,0,4.6-1.3,4.6-4c0-1.3-0.4-2.3-1.1-3
			c-0.7-0.7-1.9-1.1-3.4-1.1h-4.4V195.5z"/>
		<path class="st0" d="M212.3,204.1h-10.7l-1.9,5.3h-5.6l9.8-26.3h6.1l9.7,26.3h-5.6L212.3,204.1z M210.8,200.1l-3.9-11.2l-3.9,11.2
			H210.8z"/>
		<path class="st0" d="M248.9,209.5h-5.3l-11.9-18.1v18.1h-5.3v-26.6h5.3l11.9,18.2v-18.2h5.3V209.5z"/>
		<path class="st0" d="M279.2,203.1c-1.1,2-2.7,3.6-4.8,4.7c-2.1,1.1-4.6,1.7-7.5,1.7h-9.4v-26.6h9.4c2.9,0,5.4,0.5,7.5,1.6
			c2.1,1.1,3.7,2.6,4.8,4.6c1.1,2,1.7,4.3,1.7,7C280.8,198.8,280.3,201.1,279.2,203.1z M273.1,202.5c1.6-1.5,2.4-3.6,2.4-6.3
			c0-2.7-0.8-4.9-2.4-6.4c-1.6-1.5-3.8-2.3-6.6-2.3h-3.7v17.2h3.7C269.3,204.7,271.5,204,273.1,202.5z"/>
	</g>
	<g>
		<g>
			<path class="st0" d="M104.9,181.8c-10.6,0-21-2.8-30.1-8.1l11.6-20c5.6,3.2,12,5,18.5,5c20.3,0,36.9-16.5,36.9-36.9
				c0-20.3-16.5-36.9-36.9-36.9c-6.5,0-12.9,1.7-18.5,5l-11.6-20c9.1-5.3,19.5-8.1,30.1-8.1c33.1,0,60,26.9,60,60
				S138.1,181.8,104.9,181.8z"/>
		</g>
		<g>
			<circle class="st0" cx="80.7" cy="163.8" r="24.4"/>
		</g>
		<g>
			<path class="st0" d="M79.1,223.6c-33.1,0-59.9-26.9-59.9-59.9c0-33.1,26.9-59.9,59.9-59.9c18,0,34.8,7.9,46.3,21.8l-17.9,14.7
				c-7-8.5-17.4-13.4-28.4-13.4c-20.3,0-36.8,16.5-36.8,36.8c0,20.3,16.5,36.8,36.8,36.8c10.3,0,19.8-4.1,26.8-11.6l16.9,15.9
				C111.5,216.8,95.6,223.6,79.1,223.6z"/>
		</g>
	</g>
</g>
</svg>
