<?xml version="1.0" encoding="utf-8"?>
<!-- Generator: Adobe Illustrator 23.0.1, SVG Export Plug-In . SVG Version: 6.00 Build 0)  -->
<svg version="1.1" id="Layer_1" xmlns="http://www.w3.org/2000/svg" xmlns:xlink="http://www.w3.org/1999/xlink" x="0px" y="0px"
	 viewBox="0 0 300 300" style="enable-background:new 0 0 300 300;" xml:space="preserve">
<style type="text/css">
	.st0{fill:#1D1D1B;}
</style>
<g>
	<g>
		<g>
			<polygon class="st0" points="137.2,126.1 138.8,123.4 170.3,68.8 143.3,22 83.3,126.1 143.3,230.1 170.3,183.4 138.8,128.7 			
				"/>
		</g>
		<g>
			<polygon class="st0" points="105.7,175.5 83.3,214.3 32.3,126.1 83.3,37.9 105.7,76.7 110.2,68.8 83.3,22 23.2,126.1 83.3,230.1 
				110.2,183.4 			"/>
		</g>
		<g>
			<g>
				<polygon class="st0" points="202,113.4 202.1,113.4 202.1,96.6 164.2,162.2 169,170.6 				"/>
			</g>
			<g>
				<polygon class="st0" points="202,90.4 202.1,90.5 202.1,73.7 157.6,150.8 162.4,159.1 				"/>
			</g>
			<g>
				<polygon class="st0" points="149.1,136.2 202,44.5 202.1,44.6 202.1,24.3 143.3,126.1 				"/>
			</g>
			<g>
				<polygon class="st0" points="202,67.5 202.1,67.5 202.1,50.7 151,139.3 155.8,147.6 				"/>
			</g>
			<g>
				<polygon class="st0" points="204.7,24.3 204.7,227.8 263.5,126.1 				"/>
			</g>
			<g>
				<polygon class="st0" points="202,136.3 202.1,136.3 202.1,119.6 170.8,173.7 175.6,182 				"/>
			</g>
			<g>
				<polygon class="st0" points="202,159.3 202.1,159.3 202.1,142.5 177.4,185.2 182.3,193.5 				"/>
			</g>
			<g>
				<polygon class="st0" points="202.1,206 195.8,216.9 202.1,227.8 				"/>
			</g>
			<g>
				<polygon class="st0" points="194,213.8 202,199.8 202.1,199.8 202.1,188.4 190.7,208.1 194,213.8 				"/>
			</g>
			<g>
				<polygon class="st0" points="202,182.2 202.1,182.2 202.1,165.5 184.1,196.6 188.9,205 				"/>
			</g>
		</g>
	</g>
	<g>
		<path class="st0" d="M86.3,270c1.1,1.3,1.6,2.7,1.6,4.4c0,2.3-0.8,4.1-2.3,5.4c-1.5,1.4-3.8,2-6.7,2H68.6v-27.7h10.2
			c2.8,0,4.9,0.6,6.3,1.8c1.4,1.2,2.2,2.9,2.2,5.1c0,1.8-0.5,3.2-1.4,4.3c-1,1.1-2.2,1.8-3.7,2.1C83.8,267.9,85.2,268.7,86.3,270z
			 M72.1,266.3h6c1.8,0,3.1-0.4,4-1.2c0.9-0.8,1.4-2,1.4-3.4c0-1.4-0.5-2.5-1.4-3.3c-0.9-0.8-2.3-1.2-4.2-1.2h-5.8V266.3z
			 M82.6,277.6c1-0.9,1.6-2.1,1.6-3.7c0-1.5-0.5-2.8-1.6-3.6c-1.1-0.9-2.5-1.3-4.4-1.3h-6v9.9h6.1C80.1,278.9,81.6,278.5,82.6,277.6
			z"/>
		<path class="st0" d="M114.9,281.9l-7.2-11.3h-3.9v11.3h-3.6v-27.7h9.1c3.1,0,5.5,0.8,7.1,2.3c1.6,1.5,2.4,3.5,2.4,6
			c0,2.3-0.6,4.1-1.9,5.5c-1.3,1.4-3.1,2.2-5.5,2.6l7.6,11.5H114.9z M103.8,268h5.2c4.1,0,6.1-1.8,6.1-5.4c0-3.6-2-5.4-6.1-5.4h-5.2
			V268z"/>
		<path class="st0" d="M147.3,275.5h-12.2l-2.3,6.4h-3.9l10.3-27.2h4.1l10.2,27.2h-3.9L147.3,275.5z M146.2,272.7l-5.1-14l-5.1,14
			H146.2z"/>
		<path class="st0" d="M186.5,281.9h-3.6L168.5,260v21.9h-3.6v-27.7h3.6l14.4,22v-22h3.6V281.9z"/>
		<path class="st0" d="M221.8,275.3c-1.1,2.1-2.8,3.7-5,4.8c-2.2,1.1-4.8,1.7-7.9,1.7h-8.8v-27.7h8.8c3.1,0,5.7,0.6,7.9,1.7
			c2.2,1.1,3.8,2.7,5,4.8c1.1,2.1,1.7,4.5,1.7,7.4C223.5,270.8,222.9,273.2,221.8,275.3z M216.9,275.9c1.9-1.9,2.9-4.5,2.9-7.9
			s-1-6-2.9-7.9c-1.9-1.9-4.7-2.8-8.3-2.8h-5v21.4h5C212.3,278.7,215,277.7,216.9,275.9z"/>
	</g>
</g>
</svg>
