<?xml version="1.0" encoding="utf-8"?>
<!-- Generator: Adobe Illustrator 23.0.1, SVG Export Plug-In . SVG Version: 6.00 Build 0)  -->
<svg version="1.1" id="Layer_1" xmlns="http://www.w3.org/2000/svg" xmlns:xlink="http://www.w3.org/1999/xlink" x="0px" y="0px"
	 viewBox="0 0 300 300" style="enable-background:new 0 0 300 300;" xml:space="preserve">
<style type="text/css">
	.st0{fill:#1D1D1B;}
</style>
<g>
	<g>
		<path class="st0" d="M41.5,212c1,1.3,1.5,2.8,1.5,4.5c0,2.4-0.8,4.2-2.4,5.6c-1.6,1.4-3.9,2.1-6.9,2.1H21.6v-28.2h11.9
			c2.9,0,5,0.6,6.6,1.9c1.5,1.3,2.3,3,2.3,5.3c0,1.8-0.5,3.2-1.4,4.3c-0.9,1.1-2.1,1.9-3.6,2.2C39.1,209.9,40.5,210.7,41.5,212z
			 M27.3,207.7h5.1c1.4,0,2.5-0.3,3.2-0.9c0.7-0.6,1.1-1.5,1.1-2.7c0-1.2-0.4-2.1-1.1-2.7c-0.7-0.6-1.8-1-3.3-1h-5V207.7z
			 M36.1,218.6c0.8-0.7,1.2-1.6,1.2-2.9c0-1.3-0.4-2.2-1.2-2.9c-0.8-0.7-2-1-3.5-1h-5.3v7.8h5.4C34.1,219.5,35.3,219.2,36.1,218.6z"
			/>
		<path class="st0" d="M65.7,224.1l-6.6-11h-2.5v11H51v-28.2h10.8c3.3,0,5.8,0.8,7.5,2.4c1.7,1.6,2.6,3.7,2.6,6.3
			c0,2.1-0.6,3.9-1.8,5.4c-1.2,1.4-2.9,2.4-5.1,2.9l7,11.3H65.7z M56.6,209.3h4.6c3.2,0,4.8-1.4,4.8-4.3c0-1.4-0.4-2.4-1.2-3.2
			c-0.8-0.8-2-1.1-3.7-1.1h-4.6V209.3z"/>
		<path class="st0" d="M96.8,218.5H85.5l-2,5.7h-6l10.4-27.9h6.4l10.4,27.9h-6L96.8,218.5z M95.3,214.2l-4.2-11.9L87,214.2H95.3z"/>
		<path class="st0" d="M135.7,224.1H130l-12.6-19.2v19.2h-5.6v-28.2h5.6l12.6,19.4v-19.4h5.6V224.1z"/>
		<path class="st0" d="M167.9,217.4c-1.2,2.1-2.9,3.8-5.1,5c-2.2,1.2-4.9,1.8-7.9,1.8h-10v-28.2h10c3.1,0,5.7,0.6,7.9,1.7
			c2.2,1.2,3.9,2.8,5.1,4.9c1.2,2.1,1.8,4.6,1.8,7.4C169.6,212.8,169.1,215.2,167.9,217.4z M161.4,216.7c1.7-1.6,2.5-3.8,2.5-6.7
			c0-2.9-0.8-5.2-2.5-6.8c-1.7-1.6-4-2.4-7.1-2.4h-3.9v18.3h3.9C157.4,219.1,159.8,218.3,161.4,216.7z"/>
	</g>
	<path class="st0" d="M100.3,38.9c0,0,72.8,27.5,71.3,67.3h0v67.3c0,0-72.8-27.5-71.3-67.3h0V38.9z"/>
	<g>
		<path class="st0" d="M236.5,157.7c13.5-9.3,29.3-15.3,46.2-17v-21.1c-9.8,3.8-19,9.2-27.2,16.2
			C247.9,142.1,241.6,149.5,236.5,157.7z"/>
		<path class="st0" d="M228.2,164c5.9-11.9,14.2-22.6,24.6-31.4c9-7.6,19.1-13.5,29.9-17.4V54.5c0,0-103.7,39.1-101.5,95.8h0V246
			c0,0,4.6-1.7,11.9-5c0-3.1,0.1-6.2,0.3-9.3C195.7,204.4,208.8,180.5,228.2,164z"/>
		<path class="st0" d="M218.3,199.6c0.6-6.7,1.8-13.3,3.6-19.6c-12.1,14.3-20,32.3-21.7,52.3c-0.2,1.8-0.2,3.6-0.3,5.5
			c5.9-2.8,12.7-6.4,19.9-10.5C218.1,218.3,217.6,209,218.3,199.6z"/>
		<path class="st0" d="M222.5,199.9c-0.7,8.5-0.2,16.9,1.3,25.1c28.3-16.9,60.2-43.1,58.9-74.8h0v-2.7
			c-20.6,2.3-39.4,11.4-53.9,25.2C225.4,181.3,223.2,190.5,222.5,199.9z"/>
	</g>
</g>
</svg>
