<?xml version="1.0" encoding="utf-8"?>
<!-- Generator: Adobe Illustrator 23.0.1, SVG Export Plug-In . SVG Version: 6.00 Build 0)  -->
<svg version="1.1" id="Layer_1" xmlns="http://www.w3.org/2000/svg" xmlns:xlink="http://www.w3.org/1999/xlink" x="0px" y="0px"
	 viewBox="0 0 300 300" style="enable-background:new 0 0 300 300;" xml:space="preserve">
<style type="text/css">
	.st0{fill:#1D1D1B;}
</style>
<g>
	<g>
		<g>
			<path class="st0" d="M93.5,210.6h9.8c4.4,0,7.6,0.7,9.8,2c2.1,1.3,3.2,3.5,3.2,6.4c0,0.4,0,0.9-0.1,1.3c-0.1,0.4-0.2,1-0.4,1.6
				c-0.2,0.7-0.5,1.3-0.9,1.8c-0.4,0.5-1,1.1-1.7,1.6c-0.7,0.5-1.6,1-2.6,1.3c2.3,0.4,4,1.4,5.2,2.9c1.2,1.5,1.8,3.3,1.8,5.4
				c0,3.1-1,5.5-3,7.2c-2,1.7-5,2.5-9,2.5H93.5V210.6z M97.5,225.3h7.3c2.4,0,4.2-0.4,5.4-1.2c1.2-0.8,1.8-2.3,1.8-4.4
				c0-2.1-0.7-3.6-2.2-4.4c-1.5-0.8-3.7-1.2-6.8-1.2h-5.6V225.3z M97.5,228.5v13h7.1c2.9,0,5.1-0.5,6.5-1.6c1.4-1.1,2.2-2.7,2.2-5
				c0-2.4-0.8-4-2.3-5c-1.6-0.9-4-1.4-7.3-1.4H97.5z"/>
			<path class="st0" d="M157.9,244.7h-4.6l-4.7-10.7c-1.3-2.9-2.1-4.6-2.4-5.2c-1.1,0.1-2.5,0.1-4,0.1l-6.1-0.2v16H132v-34.5h10.9
				c1.3,0,2.4,0,3.3,0.1c1,0.1,1.9,0.2,2.9,0.3c1,0.2,1.8,0.4,2.5,0.7c0.7,0.3,1.4,0.7,2,1.1c0.6,0.5,1.1,1,1.5,1.6
				c0.4,0.6,0.7,1.4,0.9,2.3c0.2,0.9,0.3,1.9,0.3,2.9c0,2.2-0.6,4-1.7,5.6c-1.1,1.6-2.7,2.6-4.8,3.2c0,0,0.2,0.3,0.5,0.8
				c0.3,0.5,0.7,1.2,1.1,1.9c0.4,0.8,0.8,1.4,1,1.9L157.9,244.7z M136.1,213.8v11.5c0.6,0,1.9,0,3.9,0c2,0,3.5,0,4.6,0
				c2.9,0,5-0.5,6.1-1.5c1.2-1,1.7-2.5,1.7-4.7c0-1.9-0.6-3.2-1.7-4.2c-1.1-0.9-3-1.4-5.6-1.4H136.1z"/>
			<path class="st0" d="M194.8,244.7l-4-10.8h-13.6l-4.1,10.8H169l13.1-34.2h4.1l12.7,34.2H194.8z M189.5,230.6
				c-3.2-9.4-5-14.7-5.4-15.9l-5.6,15.9H189.5z"/>
			<path class="st0" d="M239.4,244.7h-4.5l-17.7-26.9l-1.2-1.6c0.1,3.2,0.2,6.1,0.2,8.7v19.8h-3.7v-34.1h4.5l17.8,26.9l1.2,1.6
				c-0.1-4.9-0.2-7.7-0.2-8.5v-19.9h3.7V244.7z"/>
			<path class="st0" d="M285,227.6c0,5.6-1.6,9.8-4.7,12.7c-3.2,2.9-7.6,4.4-13.2,4.4h-10.1v-34.1h9.5c2.8,0,5.4,0.3,7.6,1
				c2.2,0.7,4.2,1.7,5.9,3c1.7,1.4,2.9,3.1,3.8,5.3C284.5,222.2,285,224.7,285,227.6z M280.7,227.8c0-4.8-1.2-8.2-3.7-10.4
				c-2.5-2.2-6-3.3-10.8-3.3h-5.4v27.2h6c4.5,0,7.9-1.1,10.3-3.4C279.5,235.6,280.7,232.2,280.7,227.8z"/>
		</g>
	</g>
	<g>
		<g>
			<polygon class="st0" points="132.2,81 153.4,81 153.4,48.7 17.6,48.7 17.6,184.5 153.4,184.5 153.4,140.5 132.2,140.5 			"/>
			<rect x="165.7" y="81" class="st0" width="38.3" height="59.5"/>
		</g>
		<path class="st0" d="M17.6,198.5v47.8h47.8v-47.8H17.6z M53.2,234.1H29.7l23.6-23.6V234.1z"/>
	</g>
</g>
</svg>
