<?xml version="1.0" encoding="utf-8"?>
<!-- Generator: Adobe Illustrator 23.0.1, SVG Export Plug-In . SVG Version: 6.00 Build 0)  -->
<svg version="1.1" id="Layer_1" xmlns="http://www.w3.org/2000/svg" xmlns:xlink="http://www.w3.org/1999/xlink" x="0px" y="0px"
	 viewBox="0 0 300 300" style="enable-background:new 0 0 300 300;" xml:space="preserve">
<style type="text/css">
	.st0{fill:#1D1D1B;}
</style>
<g>
	<g>
		<path class="st0" d="M205.3,22.9H88.8L30.6,123.8l58.2,100.9h116.5l58.2-100.9L205.3,22.9z M200.2,214.2l-0.4,0.8H94.4l-52.6-91.2
			l52.6-91.2h0.9l11.9,20.7l12.7-22h1.7l-13.6,23.5l6.4,11.1l19.9-34.5h2.2l-21.1,36.5l6,10.4l27-46.8h3.3L123.2,81l5.4,9.4
			l34.1-59.1h4.5l-36.4,63l4.9,8.5l41.3-71.5h5.6l-44.1,76.4l4.3,7.4l48.4-83.8h6.7l-51.7,89.6l4.1,7.2l51.8-89.8l4.5,7.7
			l-51.8,89.8L200.2,214.2z"/>
	</g>
	<g>
		<g>
			<path class="st0" d="M47.1,259.2c0.6,0.8,0.9,1.8,0.9,2.9c0,1.6-0.6,2.8-1.9,3.7c-1.2,0.9-3,1.3-5.4,1.3h-9.2v-18.5h8.7
				c2.2,0,3.9,0.4,5.1,1.3c1.2,0.9,1.8,2,1.8,3.5c0,0.9-0.2,1.7-0.6,2.4c-0.4,0.7-1,1.3-1.7,1.6C45.7,257.8,46.5,258.4,47.1,259.2z
				 M35,251.3v5.1h4.9c1.2,0,2.1-0.2,2.8-0.6c0.6-0.4,1-1.1,1-1.9c0-0.8-0.3-1.5-1-1.9c-0.6-0.4-1.6-0.6-2.8-0.6H35z M44.6,261.7
				c0-1.8-1.3-2.7-4-2.7H35v5.3h5.6C43.3,264.4,44.6,263.5,44.6,261.7z"/>
			<path class="st0" d="M69.1,267.1l-3.8-5.4c-0.2,0-0.4,0-0.7,0h-4.2v5.4H57v-18.5h7.6c1.6,0,3,0.3,4.2,0.8
				c1.2,0.5,2.1,1.3,2.7,2.3c0.6,1,1,2.2,1,3.5c0,1.4-0.3,2.6-1,3.6c-0.7,1-1.7,1.8-2.9,2.2l4.3,6.1H69.1z M67.9,252.5
				c-0.8-0.6-1.9-1-3.4-1h-4v7.4h4c1.5,0,2.6-0.3,3.4-1c0.8-0.6,1.2-1.6,1.2-2.7C69,254,68.7,253.1,67.9,252.5z"/>
			<path class="st0" d="M93.6,262.8h-9.3l-1.8,4.3H79l8.3-18.5h3.4l8.4,18.5h-3.6L93.6,262.8z M92.5,260.1L89,252l-3.5,8.1H92.5z"/>
			<path class="st0" d="M123.2,248.6v18.5h-2.8l-10.2-12.5v12.5h-3.4v-18.5h2.8l10.2,12.5v-12.5H123.2z"/>
			<path class="st0" d="M133.4,248.6h8.1c2,0,3.7,0.4,5.3,1.2c1.5,0.8,2.7,1.9,3.6,3.3c0.8,1.4,1.3,3,1.3,4.9c0,1.8-0.4,3.5-1.3,4.9
				c-0.8,1.4-2,2.5-3.6,3.3c-1.5,0.8-3.3,1.2-5.3,1.2h-8.1V248.6z M141.4,264.2c1.4,0,2.6-0.3,3.6-0.8c1-0.5,1.8-1.3,2.4-2.2
				c0.6-1,0.8-2.1,0.8-3.3c0-1.3-0.3-2.4-0.8-3.3c-0.6-1-1.3-1.7-2.4-2.2c-1-0.5-2.2-0.8-3.6-0.8h-4.5v12.7H141.4z"/>
			<path class="st0" d="M189.6,248.6v18.5h-2.8l-10.2-12.5v12.5h-3.4v-18.5h2.8l10.2,12.5v-12.5H189.6z"/>
			<path class="st0" d="M211.9,262.8h-9.3l-1.8,4.3h-3.5l8.3-18.5h3.4l8.4,18.5h-3.6L211.9,262.8z M210.7,260.1l-3.5-8.1l-3.5,8.1
				H210.7z"/>
			<path class="st0" d="M242,267.1l0-12.3l-6.1,10.2h-1.5l-6.1-10v12.1H225v-18.5h2.8l7.4,12.3l7.2-12.3h2.8l0,18.5H242z"/>
			<path class="st0" d="M269.4,264.2v2.9h-13.9v-18.5H269v2.9H259v4.8h8.9v2.8H259v5.1H269.4z"/>
		</g>
	</g>
</g>
</svg>
