<?xml version="1.0" encoding="utf-8"?>
<!-- Generator: Adobe Illustrator 23.0.1, SVG Export Plug-In . SVG Version: 6.00 Build 0)  -->
<svg version="1.1" id="Layer_1" xmlns="http://www.w3.org/2000/svg" xmlns:xlink="http://www.w3.org/1999/xlink" x="0px" y="0px"
	 viewBox="0 0 519.7 519.7" style="enable-background:new 0 0 519.7 519.7;" xml:space="preserve">
<style type="text/css">
	.st0{fill:#060606;}
	.st1{fill:#FEFEFE;}
	.st2{fill:#146D95;}
	.st3{fill:#3A95CE;}
	.st4{fill:#17A7CF;}
	.st5{fill:#040404;}
	.st6{fill:#B1D8FC;}
	.st7{fill:#F38996;}
	.st8{fill:#FFFFFF;}
	.st9{fill:#FDFDFD;}
	.st10{fill:#050506;}
	.st11{fill:#DCE7F1;}
	.st12{fill:#44AD5D;}
	.st13{fill:#FFCE00;}
	.st14{fill:#D76868;}
	.st15{fill:#D66767;}
	.st16{fill:#050505;}
	.st17{fill:#45B3D9;}
	.st18{fill:#1FBEF5;}
	.st19{fill:#020202;}
	.st20{fill:#E4F6FD;}
	.st21{fill:#060707;}
	.st22{fill:#B4E9D6;}
	.st23{fill:#FB542B;}
	.st24{fill:#010101;}
	.st25{fill:#FBFCFC;}
	.st26{fill:#E0F3EF;}
	.st27{fill:#EB8412;}
	.st28{fill:#F9FAFB;}
	.st29{fill:#000001;}
</style>
<g>
	<path d="M21.4,243.7c2.5,0.5,3.8-1.8,5.9-2.5c6.7-2.3,13.3-5.2,20-7.5c3.2-1.1,4.8-2.7,5.6-6.1c3.6-15.2,9.5-29.4,17.8-42.7
		c1.6-2.6,1.5-4.5,0.3-7c-3.2-6.7-6-13.6-9.2-20.3c-1.8-3.8-1.5-6.8,1.6-9.8c7.7-7.5,15.4-15.2,22.9-22.9c2.9-2.9,5.8-3.4,9.5-1.7
		c7.2,3.3,14.4,6.3,21.6,9.7c2,0.9,3.5,0.8,5.4-0.3c13.9-8.6,28.8-14.9,44.8-18.5c2.2-0.5,3.3-1.7,4-3.7c2.7-7.3,5.7-14.4,8.3-21.7
		c1.4-4,3.8-5.8,8.1-5.8c10.8,0.1,21.6,0.1,32.4,0c4.1-0.1,6.5,1.7,7.9,5.5c2.7,7.2,5.6,14.4,8.3,21.7c0.8,2.2,1.9,3.5,4.3,4
		c16,3.6,30.9,10,44.8,18.6c1.9,1.2,3.4,1.1,5.4,0.2c6.9-3.2,13.9-6.1,20.8-9.3c4.3-2.1,7.6-1.4,11,2.1c6.4,6.7,13.1,13.2,19.6,19.7
		c6.4,6.4,6.4,6.4,3,15.1c1.6,0.7,2.5-0.7,3.5-1.3c17.4-9.8,34.6-20.3,52.7-28.8c17.8-8.4,36.8,3.4,36.9,23.1
		c0.1,23.9,0.1,47.7-0.1,71.6c0,3.7,1.1,4.7,4.6,4.5c5.6-0.3,11.3-0.4,16.8,1c12.7,3.1,21.5,10.8,26.4,23c0.5,1.2,0.4,2.8,1.7,3.6
		c0.1,0,0.2-0.1,0.3-0.2c0.1-0.1,0.2-0.2,0.3-0.3c0,6.7,0,13.4,0,20.1c-1-1.7-1.4-0.3-1.6,0.4c-7,19.1-21.2,26.6-40.8,26
		c-7.6-0.2-7.6,0-7.6,7.7c0,22.9,0.1,45.9,0,68.8c-0.1,13.5-10.6,24.6-24,25.8c-5.1,0.5-9.5-1.2-13.7-3.9
		c-17.3-10.9-34.7-21.8-52.1-32.6c-1.3-0.8-2.7-1.4-4-2.1c-0.4-0.1-0.7-0.2-1.1-0.4c0,0.4,0.1,0.8,0.1,1.2c5,12.7,7.2,10.1-4.4,21.6
		c-5.8,5.8-11.7,11.5-17.4,17.4c-2.9,2.9-5.8,3.4-9.5,1.7c-7.2-3.3-14.4-6.3-21.6-9.7c-2-0.9-3.5-0.9-5.4,0.3
		c-13.9,8.6-28.8,14.9-44.8,18.6c-2.1,0.5-3.3,1.5-4.1,3.6c-2.6,7.3-5.6,14.4-8.2,21.7c-1.4,3.9-3.8,5.9-8.1,5.8
		c-10.8-0.2-21.6-0.1-32.4,0c-4.1,0-6.5-1.6-7.9-5.4c-2.6-7.3-5.6-14.4-8.2-21.7c-0.9-2.4-2.2-3.6-4.7-4.2c-15.5-3.6-30-9.6-43.5-18
		c-2.5-1.6-4.5-1.6-7.1-0.4c-6.9,3.2-13.9,6.1-20.8,9.3c-3.6,1.7-6.6,1.2-9.5-1.7c-7.6-7.7-15.2-15.3-22.9-22.9
		c-2.9-2.8-3.5-5.8-1.8-9.4c3.3-7,6.3-14.2,9.5-21.2c1.1-2.3,1.1-4-0.3-6.2c-8.6-13.8-14.6-28.6-18.4-44.4c-0.5-2.2-1.5-3.3-3.6-4.1
		c-7.3-2.7-14.4-5.7-21.7-8.2c-2-0.7-3.4-3-5.9-2.5C21.4,272.9,21.4,258.3,21.4,243.7z M204,436.2c2.7,0,5.5-0.2,8.2,0
		c3.7,0.3,5.8-0.8,7.1-4.6c2.1-6.5,5-12.7,7.3-19.2c1.3-3.7,3.6-5.7,7.4-6.5c17.4-3.7,33.7-10.3,48.6-20.2c3.2-2.1,6.3-2.3,9.9-0.6
		c6.4,3.1,13.1,5.8,19.5,8.9c2.5,1.2,4.1,0.9,6-1c4.4-4.6,8.9-9.1,13.5-13.6c2.1-2,2.2-4,1-6.5c-2.2-4.7-4.4-9.4-6.3-14.2
		c-1-2.5-2.6-4.3-5.1-5.5c-7.2-3.3-14.4-6.6-21.4-10.3c-3.5-1.8-5.6-1.3-8.2,1.6c-10.1,11.4-22,20.5-35.8,27c-2.9,1.4-4.2,3-4.6,6.4
		c-1.2,12-8.9,20.7-19.2,22.6c-11.4,2-21.1-3.1-26.7-14.4c-1.2-2.5-2.9-2.7-5.1-2.8c-29.7-1-55.6-11.7-76.8-32.2
		c-27.3-26.3-39.7-58.7-36.2-96.8c2.5-27.6,13.7-51.3,32.9-71c19.3-19.8,42.9-31.7,70.6-34.7c36.6-4,68.5,6.6,95.2,32.1
		c7.8,7.4,7.8,7.9,17.3,3.2c11.7-5.8,25.6-9.3,29.1-24.8c0.1-0.3,0.2-0.6,0.4-0.8c1.5-2.4,1.1-4.5-1-6.5c-4.6-4.4-9.1-8.9-13.5-13.6
		c-1.9-2-3.6-2.2-6-1c-6.4,3.1-13.1,5.8-19.5,8.9c-3.5,1.7-6.7,1.5-9.9-0.6c-14.9-9.9-31.1-16.5-48.6-20.2c-3.9-0.8-6.1-2.8-7.4-6.5
		c-2.4-6.6-5.1-13-7.5-19.6c-0.9-2.5-2.4-3.5-5.1-3.5c-6.4,0.1-12.8,0.2-19.2,0c-2.9-0.1-4.4,1-5.4,3.7c-2.3,6.3-4.9,12.5-7.1,18.8
		c-1.5,4.3-4.2,6.6-8.8,7.5c-17,3.4-32.8,10.1-47.3,19.7c-3.5,2.3-6.6,2.4-10.2,0.7c-6.3-3-12.8-5.7-19.1-8.6
		c-2.6-1.2-4.4-0.9-6.4,1.2c-4,4.3-8.2,8.6-12.6,12.6c-2.5,2.3-3.1,4.5-1.6,7.6c2.9,6.2,5.4,12.6,8.4,18.7c1.7,3.5,1.6,6.5-0.6,9.8
		c-9.7,14.9-16.6,31.1-20.1,48.6c-0.8,4-3.1,6.3-6.9,7.7c-6.3,2.2-12.5,4.9-18.8,7.1c-3,1-4.4,2.6-4.3,5.9c0.2,6.1,0.2,12.2,0,18.3
		c-0.1,3,0.9,4.7,3.9,5.7c6.5,2.2,12.8,4.9,19.2,7.2c3.8,1.4,6,3.7,6.8,7.7c3.5,17.5,10.4,33.7,20.1,48.6c2.2,3.3,2.2,6.3,0.5,9.8
		c-3,6.2-5.5,12.5-8.4,18.7c-1.3,2.9-1.1,5,1.4,7.3c4.4,4.1,8.8,8.5,12.9,12.9c2,2.2,3.9,2.4,6.4,1.2c6.5-3,13.1-5.8,19.5-8.8
		c3.2-1.5,6-1.6,9,0.4c15.1,10.1,31.6,16.8,49.4,20.5c3.1,0.6,5.3,2.1,6.4,5.1c1.7,4.5,3.5,9.1,5.3,13.6
		C191.4,436.2,191.4,436.2,204,436.2z M388.1,377.9c0-11.9,0-22.9,0-34c0-62.3,0-124.7,0-187c0-5.4,0-5.4-4.6-2.9
		c-8.2,4.6-16.4,9.3-24.5,14c-33.6,19.3-67.3,38.4-105.3,47.8c-2.1,0.5-2.5,1.7-2.5,3.6c0,30.7,0,61.4,0,92.1c0,2.2,0.6,3.2,2.9,3.6
		c4.5,0.8,8.9,2,13.3,3.1c29.9,7.9,57.3,21.4,83.8,37.1C363.4,362.6,375.3,370.1,388.1,377.9z M212.3,205.2c2.4,0,4.9,0.1,7.3,0
		c9.4-0.4,18.9,1.1,28.2-0.9c10-2.1,19.6-5.5,29.1-8.9c3.7-1.3,4-2.3,1.1-5.1c-24.8-23.3-54-33.5-87.7-28.9
		C126.8,170,85.9,232,102.8,293.5c12,43.7,52.8,76.3,96.6,77.2c3.1,0.1,4.2-0.6,4.1-3.9c-0.2-12.3-0.2-24.6,0-37
		c0.1-3.4-1.2-4-4.2-4c-7.4,0-14.9,0.4-22.3-0.9c-28.2-4.9-49.5-30.4-49.5-59.4c0-29,21.2-54.6,49.3-59.5
		C188.5,204.1,200.4,205.7,212.3,205.2z M238.7,265.5c0-14-0.1-28,0.1-42c0.1-4.1-1-5.7-5.4-5.5c-7.1,0.3-14.3,0.1-21.4,0.1
		c-10.3,0.1-20.8-0.8-31,0.4c-24.5,2.9-42.4,25.7-40.8,50.7c1.6,24.3,22.4,43.8,46.9,44c15.4,0.1,30.7-0.1,46.1,0.1
		c4.6,0.1,5.6-1.6,5.6-5.8C238.5,293.4,238.7,279.4,238.7,265.5z M425.9,266.1c0-36.8,0-73.6,0-110.4c0-1.8,0.1-3.7-0.1-5.5
		c-0.6-5.4-7.6-10.8-13.3-10.4c-6.9,0.5-12.2,5.3-12.2,11.1c0,76.5,0,153,0,229.4c0,7.8,9.4,14,16.7,11.2c6.3-2.5,8.9-6.3,8.9-13.3
		C425.9,340.9,425.9,303.5,425.9,266.1z M438.8,266c0,7,0.1,14,0,21c0,2.2,0.4,3.4,3,3.3c3.9-0.2,7.9,0.1,11.8-0.1
		c11.8-0.7,21.7-10.4,22.5-21.8c0.9-12.7-7.3-23.4-19.6-25.7c-4.7-0.9-9.4-0.3-14.1-0.6c-2.7-0.2-3.7,0.7-3.7,3.6
		C438.9,252.4,438.8,259.2,438.8,266z M216,353.2c0,7.8-0.1,15.5,0,23.3c0.1,7,4.9,11.9,11.2,11.9c6.3,0,11.2-4.9,11.3-11.8
		c0.1-15.8,0-31.6,0.1-47.4c0-2.3-0.6-3.2-3.1-3.2c-5.5,0.1-11,0.2-16.4,0c-2.8-0.1-3.2,1.2-3.2,3.6
		C216.1,337.4,216,345.3,216,353.2z M282.4,336.2c-9.9-3.6-19.5-6.2-29.1-8.4c-1.3-0.3-2,0.1-2,1.6c0,9.9,0,19.9,0,30.4
		C263.4,353.7,273.3,346,282.4,336.2z"/>
	<path class="st2" d="M204,436.2c-12.7,0-12.7,0-17.3-11.5c-1.8-4.5-3.6-9-5.3-13.6c-1.2-3-3.3-4.4-6.4-5.1
		c-17.8-3.7-34.3-10.5-49.4-20.5c-3-2-5.9-1.9-9-0.4c-6.5,3-13.1,5.8-19.5,8.8c-2.5,1.2-4.4,1-6.4-1.2c-4.1-4.5-8.5-8.8-12.9-12.9
		c-2.4-2.2-2.7-4.4-1.4-7.3c2.9-6.2,5.4-12.6,8.4-18.7c1.7-3.5,1.7-6.4-0.5-9.8c-9.7-14.9-16.6-31.1-20.1-48.6c-0.8-4-3-6.4-6.8-7.7
		c-6.4-2.3-12.7-5-19.2-7.2c-3-1-3.9-2.7-3.9-5.7c0.2-6.1,0.2-12.2,0-18.3c-0.1-3.3,1.2-4.9,4.3-5.9c6.3-2.2,12.5-4.8,18.8-7.1
		c3.8-1.3,6.1-3.7,6.9-7.7c3.5-17.5,10.4-33.7,20.1-48.6c2.2-3.3,2.3-6.2,0.6-9.8c-3-6.1-5.5-12.5-8.4-18.7
		c-1.5-3.1-0.9-5.3,1.6-7.6c4.3-4,8.5-8.2,12.6-12.6c2-2.1,3.8-2.4,6.4-1.2c6.3,3,12.8,5.6,19.1,8.6c3.7,1.8,6.8,1.6,10.2-0.7
		c14.5-9.6,30.3-16.2,47.3-19.7c4.6-0.9,7.2-3.2,8.8-7.5c2.2-6.3,4.8-12.5,7.1-18.8c1-2.7,2.5-3.8,5.4-3.7c6.4,0.2,12.8,0.1,19.2,0
		c2.7-0.1,4.2,0.9,5.1,3.5c2.4,6.6,5.2,13,7.5,19.6c1.3,3.7,3.5,5.7,7.4,6.5c17.4,3.7,33.7,10.3,48.6,20.2c3.2,2.1,6.3,2.3,9.9,0.6
		c6.4-3.1,13.1-5.8,19.5-8.9c2.4-1.2,4.1-1,6,1c4.4,4.6,8.9,9.1,13.5,13.6c2.1,2,2.5,4,1,6.5c-0.2,0.3-0.3,0.5-0.4,0.8
		c-3.4,15.6-17.4,19-29.1,24.8c-9.5,4.7-9.5,4.2-17.3-3.2c-26.7-25.4-58.6-36-95.2-32.1c-27.7,3-51.3,14.8-70.6,34.7
		c-19.2,19.7-30.4,43.4-32.9,71c-3.5,38.1,9,70.5,36.2,96.8c21.2,20.5,47.1,31.3,76.8,32.2c2.2,0.1,3.9,0.3,5.1,2.8
		c5.6,11.3,15.3,16.4,26.7,14.4c10.4-1.8,18.1-10.6,19.2-22.6c0.3-3.4,1.6-5.1,4.6-6.4c13.8-6.5,25.7-15.6,35.8-27
		c2.6-2.9,4.8-3.4,8.2-1.6c7,3.6,14.2,6.9,21.4,10.3c2.5,1.2,4,3,5.1,5.5c2,4.8,4.1,9.5,6.3,14.2c1.2,2.5,1.1,4.5-1,6.5
		c-4.6,4.4-9.1,8.9-13.5,13.6c-1.9,2-3.6,2.2-6,1c-6.4-3.1-13.1-5.8-19.5-8.9c-3.5-1.7-6.7-1.5-9.9,0.6
		c-14.9,9.9-31.1,16.5-48.6,20.2c-3.8,0.8-6.1,2.8-7.4,6.5c-2.3,6.4-5.2,12.7-7.3,19.2c-1.3,3.8-3.4,4.9-7.1,4.6
		C209.5,436,206.8,436.2,204,436.2z"/>
	<path class="st4" d="M238.7,265.5c0,14-0.1,28,0.1,42c0.1,4.2-1,5.9-5.6,5.8c-15.4-0.3-30.7,0-46.1-0.1
		c-24.6-0.1-45.3-19.6-46.9-44c-1.7-25,16.3-47.8,40.8-50.7c10.2-1.2,20.7-0.4,31-0.4c7.1,0,14.3,0.2,21.4-0.1
		c4.3-0.2,5.4,1.5,5.4,5.5C238.5,237.5,238.7,251.5,238.7,265.5z M197.1,253.8c7.5,0,14.9,0,22.4,0c4.6,0,7.7-2.3,7.9-5.8
		c0.2-3.6-3-6.7-7.6-6.9c-4.1-0.2-8.2-0.1-12.3-0.1c-10.9,0-21.9-0.1-32.8,0.1c-4.7,0.1-7.4,3-7.2,7c0.2,3.8,2.5,5.6,7.3,5.6
		C182.2,253.8,189.7,253.8,197.1,253.8z M197.6,277.4c-7.5,0-14.9,0-22.4,0c-5.5,0-7.8,1.9-7.8,6c0,4,2.8,6.5,7.6,6.7
		c4.9,0.1,9.7,0,14.6,0c10,0,20.1,0.1,30.1-0.1c4.6-0.1,7.8-3.2,7.6-6.9c-0.2-3.4-3.3-5.8-7.9-5.8
		C212.2,277.4,204.9,277.4,197.6,277.4z"/>
	<path class="st4" d="M425.9,266.1c0,37.4,0,74.8,0,112.2c0,7-2.6,10.8-8.9,13.3c-7.3,2.9-16.7-3.4-16.7-11.2c0-76.5,0-153,0-229.4
		c0-5.8,5.2-10.6,12.2-11.1c5.7-0.4,12.7,5,13.3,10.4c0.2,1.8,0.1,3.6,0.1,5.5C425.9,192.5,425.9,229.3,425.9,266.1z"/>
	<path class="st29" d="M344,367.4c0-0.4-0.1-0.8-0.1-1.2c0.4,0.1,0.7,0.2,1.1,0.4C344.6,366.8,344.3,367.1,344,367.4z"/>
	<path d="M197.1,253.8c-7.5,0-14.9,0-22.4,0c-4.9,0-7.1-1.8-7.3-5.6c-0.2-4.1,2.5-7,7.2-7c10.9-0.2,21.9-0.1,32.8-0.1
		c4.1,0,8.2-0.1,12.3,0.1c4.6,0.2,7.8,3.3,7.6,6.9c-0.2,3.4-3.3,5.7-7.9,5.8C212,253.8,204.6,253.8,197.1,253.8z"/>
	<path d="M197.6,277.4c7.3,0,14.6,0,21.9,0c4.6,0,7.7,2.3,7.9,5.8c0.2,3.6-3,6.8-7.6,6.9c-10,0.2-20.1,0.1-30.1,0.1
		c-4.9,0-9.7,0.1-14.6,0c-4.9-0.1-7.6-2.7-7.6-6.7c0-4.2,2.3-6,7.8-6C182.7,277.4,190.2,277.4,197.6,277.4z"/>
</g>
</svg>
