<?xml version="1.0" encoding="utf-8"?>
<!-- Generator: Adobe Illustrator 23.0.1, SVG Export Plug-In . SVG Version: 6.00 Build 0)  -->
<svg version="1.1" id="Layer_1" xmlns="http://www.w3.org/2000/svg" xmlns:xlink="http://www.w3.org/1999/xlink" x="0px" y="0px"
	 viewBox="0 0 519.7 519.7" style="enable-background:new 0 0 519.7 519.7;" xml:space="preserve">
<style type="text/css">
	.st0{fill:#060606;}
	.st1{fill:#FEFEFE;}
	.st2{fill:#146D95;}
	.st3{fill:#3A95CE;}
	.st4{fill:#17A7CF;}
	.st5{fill:#040404;}
	.st6{fill:#B1D8FC;}
	.st7{fill:#F38996;}
	.st8{fill:#FFFFFF;}
	.st9{fill:#FDFDFD;}
	.st10{fill:#050506;}
	.st11{fill:#DCE7F1;}
	.st12{fill:#44AD5D;}
	.st13{fill:#FFCE00;}
	.st14{fill:#D76868;}
	.st15{fill:#D66767;}
	.st16{fill:#050505;}
	.st17{fill:#45B3D9;}
	.st18{fill:#1FBEF5;}
	.st19{fill:#020202;}
	.st20{fill:#E4F6FD;}
	.st21{fill:#060707;}
	.st22{fill:#B4E9D6;}
	.st23{fill:#FB542B;}
	.st24{fill:#010101;}
	.st25{fill:#FBFCFC;}
	.st26{fill:#E0F3EF;}
	.st27{fill:#EB8412;}
	.st28{fill:#F9FAFB;}
	.st29{fill:#000001;}
</style>
<g>
	<path class="st21" d="M260.7,44.7c65.2,0,130.3,0,195.5,0c24.3,0,37.4,13.1,37.4,37.3c0,84.1,0,168.3,0,252.4
		c0,24.4-12.9,37.2-37.2,37.2c-44.8,0-89.6,0.1-134.4-0.1c-5.2,0-7.6,1.6-9.1,6.4c-6.4,20.2-3,39.8,2.8,59.3c1,3.6,3.4,3.3,6,3.3
		c7.3,0,14.7-0.2,22,0.1c23.7,1.1,41.2,19.1,41.7,42.7c0.2,8.6-1.2,10.1-9.6,10.1c-76.8,0-153.6,0-230.3,0c-8.6,0-10-1.5-9.9-9.9
		c0.4-23.3,17.5-41.5,40.8-42.9c7.8-0.5,15.6-0.2,23.5-0.2c2.4,0,4.5,0,5.5-3.1c5.7-19.3,9-38.7,3.1-58.7c-1.6-5.3-4-7.4-9.9-7.3
		c-45,0.3-90.1,0.2-135.1,0.2c-22.8,0-36-13.2-36-36.3c0-84.6,0-169.2,0-253.8c0-23.6,13.3-36.7,37.1-36.7
		C129.9,44.7,195.3,44.7,260.7,44.7z M261,55.8c-66.1,0-132.3,0-198.4,0c-15.7,0-24.2,8.1-24.3,23.8c-0.1,74.7,0,149.3-0.2,224
		c0,5.3,2,6.1,6.6,6.1c22-0.2,44.1-0.3,66.1,0.1c6.5,0.1,8.3-1.6,8.3-8.2c-0.4-29.6-0.2-59.3-0.1-88.9c0.1-13.3,5.9-18.9,19.2-18.9
		c7.3,0,14.7,0,22,0c12.9,0,19.2,6.2,19.2,19c0,26.5,0,53.1,0,79.6c0,17.3,0,16.9,17.3,17.3c6.2,0.1,7.2-2,7.2-7.6
		c-0.3-34.8-0.1-69.7-0.1-104.5c0-12.8-0.1-25.6,0-38.4c0.2-12.4,6.1-18.2,18.3-18.3c7.1-0.1,14.2,0,21.3,0c16,0,21.2,5.2,21.2,21.2
		c0,43.6,0,87.2,0,130.8c0,16.7,0,16.4,17.1,16.8c6,0.1,7.4-1.5,7.4-7.4c-0.3-33.2-0.2-66.4-0.1-99.5c0-13.5,5.8-19.2,19.4-19.3
		c6.6,0,13.3,0,19.9,0c16.5,0,21.2,4.6,21.2,21c0,29.2,0,58.3,0,87.5c0,17.8,0,17.5,17.6,17.9c6,0.1,7.4-1.8,7.3-7.6
		c-0.2-47.9-0.1-95.8-0.1-143.6c0-11.6,5.8-17.5,17.3-17.6c9.5-0.1,19-0.2,28.4,0.1c7.9,0.3,13.6,6.1,14.2,14
		c0.2,2.6,0.1,5.2,0.1,7.8c0,46.5,0.1,92.9-0.1,139.4c0,6,1.6,7.7,7.5,7.5c11.6-0.4,23.2-0.3,34.8-0.1c4.2,0.1,6.2-0.6,6.2-5.7
		c-0.2-74.9-0.1-149.8-0.2-224.7c0-15.2-8.6-23.4-23.9-23.4C392.8,55.8,326.9,55.8,261,55.8z M260.4,320.2c-46.7,0-93.3,0-140,0
		c-25.4,0-50.7,0-76.1,0.1c-2.1,0-5.7-1.3-5.7,2.1c0,9.1-2.3,18.5,2.5,27.2c5.1,9.1,13.5,11.7,23.4,11.7c80.1-0.1,160.1,0,240.2,0
		c3.3,0,6.6-0.2,9.9-0.2c48.3,0,96.7,0.2,145,0.1c14.1,0,22.7-9.2,23.1-23.3c0.1-3.6-0.3-7.1,0.1-10.7c0.6-5.5-1.3-7.2-7-7.1
		C404,320.3,332.2,320.2,260.4,320.2z M260.1,482.4c36,0,72-0.1,107.9,0.1c6.4,0,7.1-2.3,5.5-7.5c-4.2-14.3-16.4-23.8-31.4-23.9
		c-54.4,0-108.9,0-163.3,0c-15,0-27.3,9.6-31.5,23.8c-1.5,5.2-1,7.6,5.5,7.5C188.6,482.2,224.4,482.4,260.1,482.4z M384.4,230.7
		c0,24.2,0.1,48.3-0.1,72.5c0,4.5,1.1,6.3,5.9,6.1c9.5-0.4,19-0.2,28.4,0c3.7,0.1,5.5-0.6,5.4-5c-0.1-48.6-0.1-97.2-0.1-145.7
		c0-5.5-2.5-7.6-7.8-7.5c-7.3,0.2-14.7,0-22,0c-8.6,0-9.8,1.2-9.8,9.9C384.4,184.2,384.4,207.5,384.4,230.7z M214.5,231.6
		c0,23.7,0.2,47.3-0.2,71c-0.1,5.8,1.7,7.1,7.1,6.9c8.7-0.4,17.5-0.5,26.3,0c5.7,0.4,6.5-1.9,6.4-6.9c-0.2-29.3-0.1-58.7-0.1-88
		c0-18.5-0.1-36.9,0-55.4c0-6-2.3-8.7-8.5-8.4c-7.1,0.3-14.2,0.1-21.3,0.1c-8.9,0-9.8,0.8-9.8,9.7
		C214.4,184.3,214.5,208,214.5,231.6z M260,441c13,0,26-0.2,39,0.1c4.8,0.1,6.3-1,4.9-6c-5.6-19.8-8-39.7-1.5-59.8
		c1-3.1-0.1-3.7-2.8-3.7c-26,0-52,0-78.1,0c-2.5,0-4.2,0.2-3.1,3.5c6.6,20.1,4.1,40-1.4,59.8c-1.3,4.7-0.6,6.3,4.6,6.2
		C234.5,440.8,247.3,441,260,441z M338.8,252.8c0-17-0.1-34.1,0.1-51.1c0.1-5.7-2.1-8.2-7.9-8c-7.8,0.3-15.6,0.3-23.4,0
		c-5.9-0.2-8.3,2.4-8.3,7.9c0,34.3,0,68.7-0.1,103c0,3.7,1.3,5,5,4.9c9.5-0.2,18.9-0.3,28.4,0.1c4.9,0.2,6.5-1.1,6.4-6.2
		C338.6,286.4,338.8,269.6,338.8,252.8z M129.6,257.6c0,15.4,0.2,30.7-0.1,46.1c-0.1,4.4,1.3,5.7,5.6,5.6c9.7-0.3,19.4-0.2,29.1,0
		c3.6,0.1,5-1.1,5-4.9c-0.1-30.7-0.1-61.5,0-92.2c0-5.6-2.8-8.2-8.3-8.2c-7.6,0-15.1,0.1-22.7,0c-6.3-0.1-8.7,2.6-8.6,9
		C129.9,227.8,129.6,242.7,129.6,257.6z"/>
	<path class="st8" d="M261,55.8c65.9,0,131.8,0,197.7,0c15.2,0,23.9,8.2,23.9,23.4c0.1,74.9,0,149.8,0.2,224.7c0,5.1-2,5.7-6.2,5.7
		c-11.6-0.2-23.2-0.4-34.8,0.1c-5.9,0.2-7.6-1.5-7.5-7.5c0.2-46.5,0.1-92.9,0.1-139.4c0-2.6,0.1-5.2-0.1-7.8
		c-0.6-7.9-6.2-13.7-14.2-14c-9.5-0.3-19-0.2-28.4-0.1c-11.5,0.1-17.3,6.1-17.3,17.6c0,47.9-0.1,95.8,0.1,143.6
		c0,5.8-1.3,7.7-7.3,7.6c-17.6-0.3-17.6,0-17.6-17.9c0-29.2,0-58.3,0-87.5c0-16.4-4.7-21-21.2-21c-6.6,0-13.3,0-19.9,0
		c-13.7,0.1-19.4,5.8-19.4,19.3c0,33.2-0.2,66.4,0.1,99.5c0.1,5.9-1.4,7.6-7.4,7.4c-17.1-0.4-17.1-0.1-17.1-16.8
		c0-43.6,0-87.2,0-130.8c0-16-5.2-21.2-21.2-21.2c-7.1,0-14.2-0.1-21.3,0c-12.3,0.1-18.2,5.9-18.3,18.3c-0.2,12.8,0,25.6,0,38.4
		c0,34.8-0.1,69.7,0.1,104.5c0,5.6-1,7.8-7.2,7.6c-17.3-0.4-17.3-0.1-17.3-17.3c0-26.5,0-53.1,0-79.6c0-12.8-6.3-19-19.2-19
		c-7.3,0-14.7,0-22,0c-13.3,0-19.1,5.6-19.2,18.9c-0.1,29.6-0.2,59.3,0.1,88.9c0.1,6.6-1.8,8.3-8.3,8.2c-22-0.4-44.1-0.3-66.1-0.1
		c-4.6,0-6.6-0.7-6.6-6.1c0.2-74.7,0.1-149.3,0.2-224c0-15.6,8.5-23.8,24.3-23.8C128.8,55.8,194.9,55.8,261,55.8z M389.1,90.5
		c-22.9,14.2-44.8,27.7-66.5,41.2c-2.4,1.5-3.9,0.2-5.8-0.9c-8.1-4.6-16.4-4.7-24.1,0.4c-3,2-4.8,1.5-7.4,0
		c-11.4-6.7-22.8-13.3-34.4-19.8c-2.8-1.6-3.8-3.1-3.6-6.6c0.6-13.7-8.2-22.6-21.5-22.4c-12.9,0.2-21.1,9.2-19.8,22.9
		c0.5,4.5-1.5,6.3-4.5,8.3c-28,18.5-55.9,37-83.8,55.7c-3.7,2.5-6.3,3.1-10.6,0.8c-11.4-6-24.3-1-28.8,10.4
		c-3.3,8.2-1.3,18.6,4.9,24.2c6.9,6.1,14.9,6.8,23.2,3.4c8.7-3.6,12.3-10.9,11.7-19.9c-0.3-5.2,1.4-7.9,5.6-10.7
		c27.7-18.1,55.2-36.5,82.7-54.9c3.3-2.2,5.7-3.4,10-1c7.2,4,15.2,3.7,22.1-1.1c2.9-2.1,4.7-1.7,7.4-0.2
		c11.6,6.8,23.2,13.7,34.9,20.2c2.9,1.6,3.7,3.4,3.7,6.6c-0.1,14.3,7.5,22.2,20.7,22.2c12.7-0.1,21-8.9,20.5-22.6
		c-0.1-3.9,1-5.8,4.3-7.8c20.6-12.5,41-25.3,61.5-37.9c3-1.8,5.6-4.3,9.3-5c0.7,4.2-0.2,8.1-0.8,12c-0.6,3.7,0.1,6.9,4.3,7.6
		c4.4,0.7,5.8-2.3,6.2-5.9c0.8-7.8,1.4-15.5,2-23.3c0.3-3.6-1.5-6.3-5-6.6c-9.4-0.7-18.9-1.1-28.4-1.2c-2.8,0-4.9,1.9-5,5
		c-0.1,2.8,1.5,4.4,4.1,5C381.4,89.5,384.5,89.9,389.1,90.5z M98.5,159.7c24,0,43.2-18.9,43.5-42.9c0.3-23.6-20.1-44.1-43.7-43.8
		c-24,0.3-42.8,19.5-42.8,43.6C55.5,140.9,74.3,159.7,98.5,159.7z"/>
	<path class="st4" d="M260.4,320.2c71.8,0,143.6,0.1,215.4-0.1c5.7,0,7.6,1.6,7,7.1c-0.4,3.5,0,7.1-0.1,10.7
		c-0.4,14.1-9,23.3-23.1,23.3c-48.3,0.2-96.7,0-145-0.1c-3.3,0-6.6,0.2-9.9,0.2c-80.1,0-160.1,0-240.2,0c-9.9,0-18.3-2.6-23.4-11.7
		c-4.8-8.6-2.5-18.1-2.5-27.2c0-3.5,3.7-2.1,5.7-2.1c25.4-0.1,50.7-0.1,76.1-0.1C167.1,320.2,213.7,320.2,260.4,320.2z M261,335.6
		c-5,0-9.9,0-14.9,0c-3.1,0-5.6,0.8-5.6,4.7c0,3.6,2.2,5.3,5.3,5.4c9.9,0.2,19.9,0.2,29.8-0.1c3.1-0.1,5.1-2.2,4.9-5.7
		c-0.2-3.5-2.4-4.3-5.3-4.3C270.5,335.6,265.7,335.6,261,335.6z"/>
	<path class="st2" d="M260.1,482.4c-35.7,0-71.5-0.1-107.2,0.1c-6.5,0.1-7-2.4-5.5-7.5c4.1-14.3,16.5-23.8,31.5-23.8
		c54.4,0,108.9,0,163.3,0c15,0,27.3,9.5,31.4,23.9c1.5,5.2,0.9,7.6-5.5,7.5C332.1,482.2,296.1,482.4,260.1,482.4z"/>
	<path class="st2" d="M384.4,230.7c0-23.2,0-46.4,0-69.7c0-8.7,1.2-9.9,9.8-9.9c7.3,0,14.7,0.1,22,0c5.3-0.1,7.8,1.9,7.8,7.5
		c-0.1,48.6-0.1,97.2,0.1,145.7c0,4.4-1.7,5.1-5.4,5c-9.5-0.2-19-0.3-28.4,0c-4.8,0.2-5.9-1.6-5.9-6.1
		C384.5,279,384.4,254.9,384.4,230.7z"/>
	<path class="st22" d="M214.5,231.6c0-23.7,0-47.3,0-71c0-8.9,0.9-9.7,9.8-9.7c7.1,0,14.2,0.2,21.3-0.1c6.2-0.3,8.5,2.4,8.5,8.4
		c-0.1,18.5,0,36.9,0,55.4c0,29.3-0.1,58.7,0.1,88c0,5-0.7,7.2-6.4,6.9c-8.7-0.6-17.5-0.5-26.3,0c-5.4,0.3-7.2-1.1-7.1-6.9
		C214.7,279,214.5,255.3,214.5,231.6z"/>
	<path class="st2" d="M260,441c-12.8,0-25.6-0.2-38.3,0.1c-5.2,0.1-5.9-1.5-4.6-6.2c5.4-19.8,8-39.7,1.4-59.8
		c-1.1-3.3,0.6-3.5,3.1-3.5c26,0,52,0,78.1,0c2.7,0,3.8,0.6,2.8,3.7c-6.5,20.1-4,40,1.5,59.8c1.4,5-0.1,6.1-4.9,6
		C286.1,440.8,273.1,441,260,441z"/>
	<path class="st23" d="M338.8,252.8c0,16.8-0.2,33.6,0.1,50.4c0.1,5.1-1.5,6.4-6.4,6.2c-9.5-0.4-18.9-0.2-28.4-0.1
		c-3.6,0.1-5-1.1-5-4.9c0.1-34.3,0.1-68.7,0.1-103c0-5.5,2.4-8.2,8.3-7.9c7.8,0.3,15.6,0.3,23.4,0c5.9-0.2,8,2.3,7.9,8
		C338.7,218.7,338.8,235.7,338.8,252.8z"/>
	<path class="st23" d="M129.6,257.6c0-14.9,0.2-29.8-0.1-44.7c-0.1-6.4,2.3-9.2,8.6-9c7.6,0.2,15.1,0.1,22.7,0
		c5.5,0,8.3,2.6,8.3,8.2c0,30.7-0.1,61.5,0,92.2c0,3.7-1.3,4.9-5,4.9c-9.7-0.2-19.4-0.3-29.1,0c-4.3,0.1-5.7-1.1-5.6-5.6
		C129.8,288.4,129.6,273,129.6,257.6z"/>
	<path class="st21" d="M389.1,90.5c-4.7-0.7-7.7-1-10.7-1.6c-2.6-0.5-4.3-2.2-4.1-5c0.2-3.1,2.3-5,5-5c9.5,0.1,18.9,0.5,28.4,1.2
		c3.5,0.3,5.3,2.9,5,6.6c-0.6,7.8-1.2,15.6-2,23.3c-0.4,3.6-1.8,6.7-6.2,5.9c-4.2-0.7-4.9-3.9-4.3-7.6c0.6-3.9,1.5-7.9,0.8-12
		c-3.7,0.6-6.4,3.2-9.3,5c-20.5,12.6-40.9,25.4-61.5,37.9c-3.2,2-4.4,3.8-4.3,7.8c0.5,13.7-7.8,22.6-20.5,22.6
		c-13.2,0.1-20.8-7.9-20.7-22.2c0-3.2-0.8-5-3.7-6.6c-11.7-6.5-23.3-13.3-34.9-20.2c-2.7-1.6-4.4-1.9-7.4,0.2
		c-6.9,4.8-15,5.1-22.1,1.1c-4.3-2.4-6.7-1.2-10,1c-27.5,18.4-55,36.8-82.7,54.9c-4.3,2.8-6,5.5-5.6,10.7c0.6,9-3,16.3-11.7,19.9
		c-8.2,3.4-16.3,2.7-23.2-3.4c-6.3-5.6-8.2-16-4.9-24.2c4.6-11.4,17.4-16.5,28.8-10.4c4.4,2.3,7,1.7,10.6-0.8
		c27.9-18.7,55.8-37.2,83.8-55.7c3.1-2,5-3.8,4.5-8.3c-1.4-13.7,6.8-22.7,19.8-22.9c13.3-0.2,22,8.7,21.5,22.4
		c-0.1,3.5,0.8,5,3.6,6.6c11.5,6.5,23,13.1,34.4,19.8c2.6,1.5,4.4,2,7.4,0c7.7-5.1,16-5,24.1-0.4c1.8,1,3.3,2.4,5.8,0.9
		C344.4,118.2,366.2,104.7,389.1,90.5z M97.9,199.6c6.1-0.1,10.7-4.9,10.3-10.8c-0.3-6-5.3-10.8-11-10.6
		c-5.9,0.2-10.4,5.1-10.2,11.2C87.1,195.6,91.5,199.7,97.9,199.6z M237.2,103c-0.2-6.1-4.9-10.5-11.1-10.3
		c-6.2,0.2-10.1,4.7-9.8,11.2c0.3,6,4.5,10.1,10.4,10C232.8,113.9,237.4,109.1,237.2,103z M315.8,148.9c0.1-6-4.7-10.7-10.8-10.7
		c-6.2,0-10.2,3.9-10.4,10.1c-0.2,6.3,4.2,11.1,10.2,11.3C310.7,159.7,315.8,154.8,315.8,148.9z"/>
	<path class="st21" d="M98.5,159.7c-24.2,0-43-18.9-43-43.1c0-24.1,18.9-43.3,42.8-43.6c23.6-0.3,44,20.2,43.7,43.8
		C141.7,140.8,122.5,159.7,98.5,159.7z M65.5,114.7c0.7,2-1.7,5.4,3.7,4.4c18.7-3.4,33.6-12.6,45.4-27.4c1.9-2.4,1.7-3.4-0.8-4.5
		c-10.5-4.9-21-5.1-31.2,0.7C72.1,93.8,66.6,103,65.5,114.7z M131.4,114.8c0.3-4.2-1.4-9.7-4.4-14.9c-1.4-2.5-2.6-3.7-5.1-1
		c-5.2,5.5-10.6,10.8-16,16c-1.7,1.7-2.3,3.5-1.6,5.7c2,7.5,4.2,14.9,6.1,22.4c0.9,3.7,2.4,3.8,5.2,1.9
		C125.7,138.2,131.4,129.1,131.4,114.8z M95.1,149.6c6,0.4,6.2,0.1,4.9-5.1c-1.5-6.1-3.1-12.3-4.7-18.4c-0.6-2.5-1.5-4.1-4.9-2.9
		c-5.9,2.1-12.1,3.7-18.2,5.3c-3.4,0.9-3.8,2.4-1.9,5.3C76.4,143.2,85.1,148.1,95.1,149.6z"/>
	<path class="st24" d="M261,335.6c4.7,0,9.5,0,14.2,0c2.9,0,5.1,0.9,5.3,4.3c0.2,3.5-1.8,5.6-4.9,5.7c-9.9,0.3-19.9,0.2-29.8,0.1
		c-3.1-0.1-5.3-1.8-5.3-5.4c0-3.9,2.5-4.7,5.6-4.7C251.1,335.6,256,335.6,261,335.6z"/>
	<path class="st22" d="M97.9,199.6c-6.4,0.1-10.8-4-10.9-10.2c-0.1-6.1,4.3-11,10.2-11.2c5.7-0.2,10.7,4.5,11,10.6
		C108.5,194.8,104,199.5,97.9,199.6z"/>
	<path class="st4" d="M237.2,103c0.2,6-4.4,10.9-10.5,11c-5.9,0.1-10.2-4-10.4-10c-0.3-6.6,3.6-11,9.8-11.2
		C232.3,92.6,237,96.9,237.2,103z"/>
	<path class="st23" d="M315.8,148.9c-0.1,5.9-5.1,10.8-11,10.6c-6-0.1-10.4-5-10.2-11.3c0.2-6.2,4.3-10,10.4-10.1
		C311.1,138.2,315.9,142.9,315.8,148.9z"/>
	<path class="st22" d="M65.5,114.7c1.2-11.8,6.6-21,17.1-26.8c10.2-5.7,20.7-5.5,31.2-0.7c2.5,1.1,2.7,2.2,0.8,4.5
		c-11.8,14.8-26.6,24-45.4,27.4C63.8,120.1,66.2,116.7,65.5,114.7z"/>
	<path class="st4" d="M131.4,114.8c-0.1,14.3-5.7,23.5-15.9,30.2c-2.8,1.9-4.3,1.7-5.2-1.9c-1.8-7.5-4-14.9-6.1-22.4
		c-0.6-2.2-0.1-4,1.6-5.7c5.4-5.3,10.8-10.6,16-16c2.5-2.7,3.7-1.5,5.1,1C130,105.1,131.7,110.6,131.4,114.8z"/>
	<path class="st22" d="M95.1,149.6c-10-1.5-18.7-6.4-24.7-15.7c-1.9-2.9-1.5-4.4,1.9-5.3c6.1-1.6,12.2-3.2,18.2-5.3
		c3.4-1.2,4.2,0.4,4.9,2.9c1.6,6.1,3.1,12.2,4.7,18.4C101.3,149.7,101.1,149.9,95.1,149.6z"/>
</g>
</svg>
