<?xml version="1.0" encoding="utf-8"?>
<!-- Generator: Adobe Illustrator 23.0.1, SVG Export Plug-In . SVG Version: 6.00 Build 0)  -->
<svg version="1.1" id="Layer_1" xmlns="http://www.w3.org/2000/svg" xmlns:xlink="http://www.w3.org/1999/xlink" x="0px" y="0px"
	 viewBox="0 0 519.7 519.7" style="enable-background:new 0 0 519.7 519.7;" xml:space="preserve">
<style type="text/css">
	.st0{fill:#060606;}
	.st1{fill:#FEFEFE;}
	.st2{fill:#146D95;}
	.st3{fill:#3A95CE;}
	.st4{fill:#17A7CF;}
	.st5{fill:#040404;}
	.st6{fill:#FDFDFD;}
	.st7{fill:#B1D8FC;}
	.st8{fill:#F38996;}
	.st9{fill:#FFFFFF;}
	.st10{fill:#050506;}
	.st11{fill:#DCE7F1;}
	.st12{fill:#44AD5D;}
	.st13{fill:#FFCE00;}
	.st14{fill:#D76868;}
	.st15{fill:#D66767;}
	.st16{fill:#050505;}
	.st17{fill:#45B3D9;}
	.st18{fill:#1FBEF5;}
	.st19{fill:#020202;}
	.st20{fill:#E4F6FD;}
</style>
<g>
	<path class="st10" d="M295.5,481.1l-79.2,0c-26.5,0-53,0-79.6,0c-4.3,0-7.2-0.4-8.6-2.3c-1.3-1.8-0.9-4.3,0-7.4l0.7-0.8
		c2.7-1.5,5.5-1.7,7.6-1.7c1.1,0,2.3,0.1,3.3,0.1c1.1,0.1,2.1,0.1,3.2,0.1c0.7,0,1.3,0,1.9-0.1c0.5,0,1-0.1,1.5-0.1
		c1.5,0,3,0.2,4.5,0.3c1.4,0.2,2.8,0.3,4,0.3c2,0,3.3-0.4,4.2-1.2c1.6-1.6,1.2-5.2,0.8-8.6c-0.2-1.6-0.4-3.4-0.4-4.9
		c0.2-20.3,12.9-33.1,33.3-33.2c5,0,10-0.1,15-0.1c5.4,0,10.2,0,14.6,0.1l0.3,0c1.1,0,1.8-0.1,2-0.4c0.3-0.3,0.5-1.1,0.4-2.3
		c-0.1-28.2-0.2-56.9-0.2-84.6l0-23.5l0-26.8c0.1-45.4,0.1-92.4,0.2-138.6c0-1.8-0.7-2.8-2.2-4.4c-7-7.3-11.1-15-12.3-23.2
		c-0.6-4.1-1.9-4.3-5.6-4.3l-6.3,0c-11,0-22.4,0.1-33.6,0.1c-13.2,0-24.3-0.1-34.8-0.2l-0.4,0c-2.8,0-3.4,0.5-3.5,0.6
		c-0.4,0.6,0.5,3.1,0.8,4.1c2.4,6.6,4.8,13.2,7.1,19.8c13.4,37.3,27.3,75.9,40.3,114c3,8.7,5.7,14.9,13.4,14.9
		c1.5,0,3.1-0.2,4.9-0.7c0.2,0,0.3-0.1,0.5-0.1c0.1,0,0.2,0,0.4,0l0.1,0c4.9,0.2,6,3.2,6.3,5.1c0.3,2-0.1,3.7-1.1,5
		c-0.9,1.2-2.3,1.8-4.1,2c-1.7,0.1-2.1,0.6-2.3,2.8c-0.8,10.3-4.5,19.5-8.5,27.9l-0.1,0.2l-0.9,1.3c-0.6,0.9-1.3,1.9-1.9,2.8
		c-14.4,22.3-38.3,35.6-64,35.6c-5.1,0-10.4-0.5-15.5-1.6c-24.6-5-43.2-19.8-55.2-44.1l0-0.1l-2.8-7l-0.1-0.3
		c-0.3-1.5-0.6-3-0.8-4.4c-0.7-3.6-1.4-7.3-1.9-11c-0.2-1.6-0.6-1.9-2.3-2.2c-1.8-0.2-3.2-1-4.2-2.2c-0.9-1.2-1.3-2.9-1-4.8
		c0.5-3.1,2.7-4.9,6.3-5c0.7,0,1.5,0,2.2,0l0.9,0c5.6,0,8.4-0.1,10.1-1.3c1.6-1.2,2.6-4,4.6-9.4l9.1-25.5
		c13.1-36.8,26.6-74.8,40-112.2c0.8-2.2,1.1-3.5,0.8-3.9c-0.1-0.1-0.4-0.5-2.4-0.5c-0.3,0-0.7,0-1.1,0c-2.8,0.2-5.9,0.2-9.6,0.2
		c-2.3,0-4.5,0-6.8-0.1c-2.2,0-4.5-0.1-6.7-0.1l-1.7,0c-2.2,0-4.8-0.2-6.3-1.8c-1-1-1.5-2.5-1.5-4.3c0-6,5.5-6,8.1-6l54,0
		c22.3,0,46.4,0,70.6,0.1l0.2,0c4.1,0,5.2-0.5,6.2-4.8c4.6-19.4,17.3-32.1,36.7-36.7c3.7-0.9,4.8-1.7,4.5-5.3
		c-0.4-5.2-0.4-10.5-0.4-15.6c0-2.2,0-4.3,0-6.5l0-0.2c0-0.3,0.1-0.5,0.1-0.8c0.1-0.5,0.1-1,0.1-1.5c0-1.9,0.2-4.6,1.9-6.3
		c1.1-1.1,2.5-1.6,4.4-1.6c4.2,0,6.3,2.7,6.3,7.9c0,0.5,0.1,1,0.1,1.5c0,0.3,0.1,0.5,0.1,0.8l0,0.2c0,2.3,0,4.5-0.1,6.8
		c0,5.6-0.1,11.4-0.3,17.1c-0.1,2.1,0.3,2.5,2.6,3c21.6,4.8,34.9,18.5,39.6,40.8c0.3,1.5,0.8,1.5,1.3,1.5c0.5,0,1-0.1,1.6-0.2
		c0.6-0.1,1.2-0.2,1.9-0.2c27.8,0.1,55.7,0.1,81.6,0.1l42.7,0c0.9,0,1.7,0,2.6,0c4,0.1,6.3,2.1,6.5,5.7c0.1,1.9-0.4,3.4-1.5,4.6
		c-1.1,1.2-2.9,1.8-5.1,1.8c-4.7,0-9.4,0-14,0c-3.3,0-6.6,0-9.9,0c-0.9,0-1.8,0-2.5,0c-0.7,0-1.3,0-1.9,0c-1.2,0-1.7,0.1-2,0.1
		c0,0.9,1.2,3.4,2.5,6.3l0.1,0.2l0.1,0.2c0.1,0.4,0.2,0.8,0.3,1.2c0.2,0.8,0.3,1.6,0.6,2.3c9.3,26.2,18.6,52.4,27.9,78.5l19,53.5
		c1.9,5.4,2.8,8,4.4,9.1s4.5,1.2,9.9,1.2l1.8,0c2.5,0,6.8,0,8.3,5.1l0,0.8c-0.1,0.3-0.1,0.6-0.2,0.9c-0.2,1.1-0.4,2.4-1.6,2.9
		c-6.2,2.3-6.7,7-7.3,12.5c-0.3,2.6-0.6,5.3-1.5,7.7c-5.4,14.1-13.7,26.1-24.5,35.6l-0.2,0.1c-9.4,6.3-20.8,13-34.5,15.5
		c-5.3,0.9-10.5,1.4-15.6,1.4c-30.1,0-54.4-16.3-68.4-46c-1-2.1-1.8-4.3-2.6-6.4c-0.4-1-0.7-2-1.1-2.9l-0.1-0.3
		c-0.2-0.9-0.3-1.8-0.5-2.6c-0.4-2-0.8-4-1.1-6.1c-0.1-0.6-0.1-1.3-0.2-2c-0.3-3.3-0.5-4.7-3.9-4.9c-1-0.1-1.9-0.5-2.6-1.3
		c-1-1.2-1.4-3-1.2-4.9c0.4-3.1,2.4-5.1,5.5-5.2l1.1-0.1c1.9-0.1,3.8-0.2,5.7-0.2c1.5,0,2.8,0.1,4.1,0.2c0.3,0,0.7,0,1,0
		c2.4,0,3.5-1,4.6-4.1c12.8-37.1,24.4-69.9,35.3-100.3c1.5-4.1,3-8.3,4.5-12.4c3.5-9.5,7.2-19.3,10.2-29.2l0.1-0.2
		c1.3-2.9,2.5-5.6,2.3-6.2c-0.4-0.3-3.2-0.3-6.1-0.3c-6.4,0-12.8,0-19.3,0c-6.4,0-12.9,0-19.3,0c-12.2,0-22.2-0.1-31.2-0.3
		c-0.3,0-0.5,0-0.8,0c-3.5,0-5.6,0.5-6.8,1.7c-1,1.1-1.5,2.9-1.4,5.5l-0.1,0.6c-2.6,6.7-6.1,14.4-12.7,20.6c-1.1,1-1.3,2.2-1.3,4
		c0.1,43.8,0.2,87.6,0.2,131.4l0,17.1l0,24.9c0,32.6-0.1,66.4-0.2,99.6c0,1.3,0.1,2,0.5,2.4c0.3,0.3,1,0.4,2,0.4l0.3,0
		c4.4-0.1,9.1-0.1,14.5-0.1c5,0,10.1,0,15.1,0.1c20.3,0.2,33.1,12.9,33.3,33.2c0,1.6-0.2,3.3-0.4,4.9c-0.4,3.4-0.8,7,0.8,8.6
		c0.9,0.9,2.2,1.3,4.2,1.3c1.3,0,2.6-0.1,4-0.3c1.5-0.2,3-0.3,4.5-0.3c0.5,0,1,0,1.5,0.1c0.6,0.1,1.2,0.1,1.9,0.1
		c1,0,2.1-0.1,3.2-0.1c1.1-0.1,2.2-0.1,3.3-0.1c2.1,0,4.8,0.2,7.6,1.7l0.7,0.8c0.8,2.7,1.4,5.5,0,7.5c-1.5,2-4.7,2.3-7.9,2.3
		c-12.5,0-25.1,0-37.7,0L295.5,481.1z M257.8,434.1c-22.2,0-45.1,0-67.9,0.1c-9.7,0-17.2,7.2-17.9,17.1c-0.1,2-0.1,4-0.1,5.9
		c0,2.4,0.1,4.8-0.2,7.3c-0.2,1.8,0,2.9,0.5,3.5c0.5,0.6,1.7,0.9,3.8,0.9l0.2,0c11.6-0.1,23.9-0.1,40-0.1c6.8,0,13.7,0,20.5,0
		c6.8,0,13.7,0,20.5,0h70.4c8.6,0,13.3,0,15.1-1.9c1.7-1.9,1.4-6.7,0.7-15.5c-0.8-10-8.3-17.2-17.8-17.2
		C303.4,434.2,280.6,434.1,257.8,434.1z M237.6,293.5c0,9.9,0,19.8,0,29.6c0,30.1,0,61.2-0.1,91.8c0,3.2,0.3,4.9,1.1,5.7
		c0.7,0.7,1.8,1,3.6,1c0.5,0,0.9,0,1.5-0.1c4.4-0.3,9.1-0.5,14-0.5c4.3,0,8.9,0.1,13.8,0.4c0.5,0,1,0,1.4,0c2.1,0,3.3-0.3,4-1
		c0.8-0.8,1.2-2.5,1.2-5.4c-0.2-68.8-0.2-138.8-0.2-206.5c0-17.4,0-56.5,0-56.5c-9.8,2.5-14.9,3.8-20.2,3.8
		c-5.3,0-10.5-1.3-20.2-3.9V293.5z M338.1,278.3c-1.7,0-2.6,0.2-3,0.6c-0.4,0.4-0.4,1.4-0.2,3c4.8,30.9,32.1,54.3,63.4,54.5l0.3,0
		c31.1,0,57.6-22.6,63.1-53.7c0.4-2.5,0.2-3.4-0.1-3.8c-0.5-0.6-2-0.6-3.5-0.6l-0.5,0c-8,0.1-16.5,0.1-27.4,0.1
		c-5.3,0-10.6,0-15.8,0c-5.3,0-10.6,0-15.8,0l-0.1-0.1c-5.2,0-10.4,0-15.7,0c-5.3,0-10.5,0-15.7,0c-11.6,0-20.5,0-28.8-0.1
		L338.1,278.3z M56.8,278.3c-1.7,0-2.8,0.2-3.2,0.6c-0.5,0.6-0.2,2.4,0,3.8c5.6,31.1,32.2,53.8,63.3,53.8
		c31.1,0,57.8-22.7,63.5-53.8c0.3-1.9,0.3-3.1-0.1-3.6c-0.4-0.5-1.5-0.7-3.4-0.7l-0.4,0c-8.1,0.1-16.6,0.1-27.7,0.1
		c-5.3,0-10.7,0-16,0c-5.3,0-10.7,0-16,0l-0.1-0.1c-5.4,0-10.7,0-16.1,0c-5.4,0-10.8,0-16.2,0c-10.7,0-19.4-0.1-27.3-0.2L56.8,278.3
		z M166.7,266L117,125.9L67.3,266H166.7z M448.3,265.9l-49.7-140l-49.7,140H448.3z M257.5,71c-19.3,0-35.8,16.4-36,35.8
		c-0.1,9.7,3.6,18.8,10.4,25.7c6.8,6.9,15.8,10.7,25.4,10.8l0.3,0c20.1,0,36.1-15.6,36.4-35.6c0.2-19.8-15.8-36.3-35.8-36.6
		C258,71,257.7,71,257.5,71z"/>
	<path class="st10" d="M289.4,294.3c-0.1,41.5-0.1,83-0.3,124.4c0,3.3,0.9,4.3,4.2,4.2c9.8-0.2,19.7-0.1,29.5-0.1
		c19.5,0.2,31.7,12.4,31.9,31.8c0,5-2.2,11.5,0.9,14.5c3.3,3.3,9.9,0.6,15.1,1.1c5.1,0.5,10.5-1.3,15.4,1.4c1.9,6.2,0.6,7.9-6.5,7.9
		c-28,0-56.1,0-84.1,0c-52.9,0-105.9,0-158.8,0c-7.9,0-9.2-1.5-7.2-7.9c4.9-2.7,10.3-0.9,15.4-1.4c5.2-0.5,11.8,2.2,15.1-1.1
		c3-3,0.8-9.5,0.9-14.5c0.2-19.4,12.3-31.7,31.8-31.8c9.8-0.1,19.7-0.1,29.5,0.1c3.3,0.1,4.2-0.8,4.2-4.2
		c-0.2-36-0.2-72.1-0.3-108.1c0.1-55.1,0.1-110.3,0.3-165.4c0-2.4-1.1-3.8-2.6-5.4c-6.1-6.3-10.7-13.7-11.9-22.4
		c-0.8-5.4-3.4-5.5-7.5-5.5c-24.7,0.1-49.5,0.3-74.2-0.1c-6.2-0.1-6.2,1.7-4.4,6.6c16,44.6,32.2,89.1,47.5,133.8
		c3.6,10.5,7.1,18.3,20,15.2c0.2,0,0.4,0,0.6,0c2.6,0.1,4.6,1.1,4.9,3.8c0.4,2.9-0.9,5.1-3.9,5.3c-2.9,0.2-3.4,1.9-3.6,4.1
		c-0.7,9.8-4.3,18.7-8.4,27.4c-0.9,1.4-1.9,2.8-2.8,4.2c-17.1,26.5-47.2,39.6-78,33.4c-25.3-5.1-42.9-20.4-54.2-43.3
		c-0.9-2.3-1.9-4.6-2.8-7c-0.9-5.1-2-10.2-2.7-15.4c-0.3-2.4-1.3-3.1-3.6-3.4c-3-0.4-4.4-2.4-3.9-5.4c0.4-2.7,2.4-3.7,5-3.8
		c1,0,2.1,0,3.1,0c11.9-0.1,11.9-0.1,16-11.7c16.3-45.9,32.6-91.8,49-137.6c1.7-4.8,1.6-6.6-4.2-6.3c-8.2,0.5-16.3,0.1-24.5,0.1
		c-3.4,0-6.7-0.4-6.7-4.7c0-4.3,3.4-4.6,6.8-4.6c41.5,0,83-0.1,124.6,0.1c4.6,0,6.5-0.7,7.8-5.9c4.5-18.9,16.5-31.1,35.6-35.6
		c4.2-1,5.9-2.2,5.6-6.8c-0.5-7.3-0.3-14.7-0.4-22c0.1-0.8,0.2-1.6,0.2-2.5c0-3.4,0.7-6.5,4.9-6.5c4.1,0,4.9,3.1,4.9,6.5
		c0,0.8,0.1,1.6,0.2,2.5c-0.1,8,0,15.9-0.3,23.9c-0.1,2.9,0.9,3.8,3.7,4.4c21.5,4.8,34.1,18.3,38.5,39.7c0.8,4.1,4.1,2.1,6.1,2.1
		c40.6,0.1,81.3,0.1,121.9,0.1c1.7,0,3.4,0,5,0c2.9,0,5,1.3,5.1,4.3c0.1,3.4-1.9,4.9-5.1,4.9c-8,0-15.9,0.1-23.9,0
		c-9-0.1-9.4-1.2-5,8.6c0.3,1.2,0.5,2.4,0.9,3.6c15.6,44,31.3,88,46.9,132c4,11.2,3.9,11.2,15.6,11.3c3.6,0,7.3-0.5,8.7,4.1
		c-0.3,1-0.3,2.6-0.9,2.9c-10.3,3.8-6.8,13.9-9.7,21c-5.3,13.6-13.2,25.4-24.1,35.1c-10.5,7-21.4,13-34,15.3
		c-37.5,6.6-66.9-10.9-82.5-43.8c-1.4-3-2.4-6.1-3.7-9.2c-0.5-2.9-1.2-5.7-1.6-8.6c-0.5-3.6,0.3-7.7-5.5-8c-1.9-0.1-2.7-2.5-2.4-4.6
		c0.3-2.4,1.7-3.9,4.1-4c3.6-0.2,7.2-0.4,10.7-0.1c4,0.4,5.7-1.2,7.1-5c11.6-33.5,23.3-67,35.3-100.3c5-13.9,10.4-27.5,14.7-41.6
		c3.8-8.5,3.8-8.5-5.1-8.5c-23.3,0-46.5,0.3-69.8-0.2c-6.8-0.1-10.6,1.3-10.3,8.7c-2.9,7.5-6.4,14.5-12.4,20
		c-1.6,1.5-1.8,3.1-1.8,5.1C289.3,195.3,289.3,244.8,289.4,294.3z M236.1,150.1c0,2.4,0,4.6,0,6.9c0,45.5,0,91,0,136.5
		c0,40.5,0.1,80.9-0.1,121.4c0,6,1,8.6,7.8,8.1c9.2-0.7,18.5-0.6,27.7-0.1c6.1,0.3,8.1-1.1,8.1-7.8c-0.3-86.2-0.2-172.4-0.2-258.6
		c0-2.1,0-4.1,0-6.3C257.6,155.9,257.6,155.9,236.1,150.1z M399.3,123.8c-0.5,0-1,0-1.5,0c-16.9,47.7-33.9,95.5-50.9,143.5
		c34.8,0,68.8,0,103.4,0C433.2,219.2,416.2,171.5,399.3,123.8z M168.7,267.4c-17.2-48.5-34.1-96.1-51.1-143.8c-0.5,0-0.9,0-1.4,0
		c-17,47.8-33.9,95.6-51,143.8C100,267.4,134,267.4,168.7,267.4z M257.4,470.2c23.5,0,46.9,0,70.4,0c18.7,0,18.7,0,17.1-18.9
		c-0.8-10.6-8.8-18.5-19.3-18.5c-45.2-0.1-90.5-0.1-135.7,0c-10.5,0-18.6,7.9-19.3,18.5c-0.3,4.4,0.2,8.8-0.2,13.2
		c-0.5,4.8,1.2,5.9,5.9,5.9C203.4,470.1,230.4,470.2,257.4,470.2z M398.7,277C398.7,277,398.7,277,398.7,277
		c-20.1-0.1-40.2,0-60.3-0.2c-4.2,0-5.5,1-4.8,5.3c4.9,31.6,32.7,55.5,64.8,55.7c31.8,0.2,59.3-23.3,64.8-54.8
		c1-5.6-0.8-6.1-5.5-6.1C438.1,277.2,418.4,277,398.7,277z M116.8,277C116.8,277,116.8,277,116.8,277c-19.9-0.1-39.8,0.1-59.7-0.2
		c-5.1-0.1-5.8,1.4-4.9,6.1c5.7,31.7,33,55,64.8,54.9c31.9,0,59-23.2,64.8-55c0.9-5-0.5-6-5.3-5.9C156.6,277.2,136.7,277,116.8,277z
		 M257.3,144.7c20.9,0.2,37.8-16.3,38.1-37c0.3-20.6-16.5-37.7-37.2-38.1c-20.5-0.4-37.9,16.6-38.1,37.2
		C219.9,127.5,236.6,144.5,257.3,144.7z"/>
	<path class="st11" d="M62.7,381.2c1.5,0,2.8,0.5,3.9,1.6c-1.5,1.5-2.7,0.9-3.9-0.3C62.7,382,62.7,381.6,62.7,381.2z"/>
	<path class="st2" d="M236.1,150.1c21.4,5.8,21.4,5.8,43.2,0.2c0,2.2,0,4.2,0,6.3c0,86.2-0.1,172.4,0.2,258.6c0,6.7-2,8.1-8.1,7.8
		c-9.2-0.5-18.5-0.6-27.7,0.1c-6.8,0.5-7.8-2-7.8-8.1c0.3-40.5,0.1-80.9,0.1-121.4c0-45.5,0-91,0-136.5
		C236.1,154.7,236.1,152.5,236.1,150.1z"/>
	<path class="st4" d="M257.4,470.2c-27,0-54-0.1-81.1,0.1c-4.7,0-6.4-1.1-5.9-5.9c0.4-4.4-0.1-8.8,0.2-13.2
		c0.7-10.6,8.7-18.4,19.3-18.5c45.2-0.1,90.5-0.1,135.7,0c10.5,0,18.4,8,19.3,18.5c1.5,18.9,1.5,18.9-17.1,18.9
		C304.3,470.2,280.9,470.2,257.4,470.2z"/>
	<path class="st4" d="M398.7,277c19.7,0,39.4,0.1,59.1-0.1c4.7,0,6.5,0.5,5.5,6.1c-5.5,31.6-33,55-64.8,54.8
		c-32.1-0.2-59.9-24.1-64.8-55.7c-0.7-4.3,0.6-5.3,4.8-5.3C358.5,277.1,378.6,277,398.7,277C398.7,277,398.7,277,398.7,277z"/>
	<path class="st4" d="M116.8,277c19.9,0,39.8,0.1,59.7-0.1c4.7-0.1,6.2,0.9,5.3,5.9c-5.8,31.9-32.9,55-64.8,55
		c-31.8,0-59.1-23.2-64.8-54.9c-0.8-4.7-0.2-6.2,4.9-6.1C77,277.1,96.9,277,116.8,277C116.8,277,116.8,277,116.8,277z"/>
	<path class="st4" d="M257.3,144.7c-20.7-0.2-37.4-17.2-37.2-37.9c0.2-20.6,17.6-37.6,38.1-37.2c20.8,0.4,37.5,17.5,37.2,38.1
		C295.2,128.4,278.2,144.9,257.3,144.7z"/>
</g>
</svg>
