<?xml version="1.0" encoding="utf-8"?>
<!-- Generator: Adobe Illustrator 23.0.1, SVG Export Plug-In . SVG Version: 6.00 Build 0)  -->
<svg version="1.1" id="Layer_1" xmlns="http://www.w3.org/2000/svg" xmlns:xlink="http://www.w3.org/1999/xlink" x="0px" y="0px"
	 viewBox="0 0 519.7 519.7" style="enable-background:new 0 0 519.7 519.7;" xml:space="preserve">
<style type="text/css">
	.st0{fill:#060606;}
	.st1{fill:#FEFEFE;}
	.st2{fill:#146D95;}
	.st3{fill:#3A95CE;}
	.st4{fill:#17A7CF;}
	.st5{fill:#040404;}
	.st6{fill:#FDFDFD;}
	.st7{fill:#B1D8FC;}
	.st8{fill:#F38996;}
	.st9{fill:#FFFFFF;}
	.st10{fill:#050506;}
	.st11{fill:#DCE7F1;}
	.st12{fill:#44AD5D;}
	.st13{fill:#FFCE00;}
	.st14{fill:#D76868;}
	.st15{fill:#D66767;}
	.st16{fill:#050505;}
	.st17{fill:#45B3D9;}
	.st18{fill:#1FBEF5;}
	.st19{fill:#020202;}
	.st20{fill:#E4F6FD;}
</style>
<g>
	<path class="st12" d="M220.5,110.6c-0.3,0-0.7-0.8-0.8-1.1c-1.8-3.7-3.8-7.2-5.7-10.7l-0.2-0.4c-0.4-0.7-0.4-0.9-0.4-0.9
		c0,0,0.1-0.2,0.9-0.6c11.9-5.9,23.1-9.2,34.2-10.1c1.6-0.1,2.6-0.2,3.5-0.2c2.7,0,2.7,0,2.7,6.6V94c-0.1,0.9,0,1.9,0.1,2.9
		c0.2,1.6,0.3,3.1-0.4,4.3c-0.3,0.5-0.8,0.8-2,0.8c-0.5,0-0.9,0-1.4-0.1c-0.5,0-1.1-0.1-1.7-0.1c-0.5,0-1,0-1.4,0.1
		c-8.6,1.6-17.7,3.8-26.2,8.3C221,110.6,220.7,110.6,220.5,110.6z"/>
	<path class="st13" d="M173.9,181c-0.2,0-0.3,0-0.5,0c-0.7-0.1-1.5-0.1-2.5-0.1c-0.6,0-1.3,0-1.9,0c-0.6,0-1.2,0-1.8,0H167
		c-3.3,0-5.9,0-6.5-0.7c-0.6-0.7-0.3-3.4,0.1-6.3c1.4-11.6,4.7-22.7,9.9-33c0.5-1,0.8-1.1,0.8-1.1c0.1,0,0.4,0,1.2,0.6
		c2.9,2,6.2,3.9,10,6c1.4,0.7,1.5,1,0.8,2.5c-5.1,10.6-7.7,20.5-8.1,30.3C175.2,181,174.7,181,173.9,181z"/>
	<path class="st14" d="M351.9,182.5c-2.8-0.1-6.1,0.6-8.2-0.7c-2.2-1.3-0.7-4.9-1.1-7.4c-1.6-8.5-3.7-16.8-7.6-24.6
		c-1.1-2.2-0.6-3.3,1.4-4.5c3.3-2,6.7-3.9,9.7-6.3c2.4-1.8,3.2-0.8,4.2,1.4c5.9,12,9.5,24.6,10.3,38c0.2,3.3-0.6,4.1-3.6,3.8
		c-1.7-0.2-3.4,0-5.1,0C351.9,182.4,351.9,182.4,351.9,182.5z"/>
	<path class="st15" d="M348.1,232.6c-0.1,0-0.4-0.1-1.1-0.6c-3.1-2.4-6.5-4.5-9.1-6c-1.9-1.1-2.2-2.1-1.1-4.3
		c4.7-9.8,7.1-19.3,7.4-29c0.1-1.8,0.5-1.8,1.5-1.8c0.1,0,0.2,0,0.3,0c0.8,0,1.6,0.1,2.6,0.1c0.7,0,1.4,0,2,0c0.7,0,1.3,0,2,0h0.3
		c3,0,5.6,0,6.2,0.6c0.6,0.7,0.2,3.4-0.1,6.4c-1.4,11.6-4.8,22.9-10.1,33.4C348.4,232.2,348.2,232.5,348.1,232.6z"/>
	<path class="st14" d="M331.1,138.5c-1.6,0-2.7-1.6-4.2-4.2c-0.8-1.4-1.6-2.8-2.7-3.9c-5-5.2-10.2-10.6-16.6-14.6
		c-1-0.6-1.3-1.1-1.4-1.3c-0.1-0.3,0.1-0.8,0.6-1.5c0.8-1.1,1.4-2.3,2-3.5c0.3-0.5,0.5-1,0.8-1.5c1.9-3.4,3.2-5.7,4.1-5.7
		c1,0,3.1,1.6,6,3.7c8.5,6.3,16,14.1,22.2,23c0.4,0.6,0.7,1.1,1.2,1.8c0,0.1,0.1,0.1,0.1,0.2c-0.1,0.1-0.2,0.3-0.3,0.4
		c-0.4,0.3-0.8,0.6-1.3,0.9l-0.4,0.3c-1.1,0.7-2.3,1.6-3.3,2.4C335.5,136.7,333.2,138.5,331.1,138.5L331.1,138.5z"/>
	<path class="st13" d="M171.6,232c-0.6,0-1.2-1.3-1.6-2c-5.6-12.1-8.7-23.6-9.7-36.5l-0.1-0.4c-0.5-1.2-0.3-1.7-0.2-1.8
		c0.2-0.3,0.9-0.5,2.4-0.5c0.4,0,0.9,0,1.4,0.1c0.5,0,1,0.1,1.5,0.1c1,0,2-0.1,3-0.1c1-0.1,1.9-0.1,2.8-0.1c1.6,0,2.7,0.2,3.6,0.7
		c1.3,0.7,1.3,2.4,1.2,5.1c-0.1,1.4-0.1,2.9,0.2,4.3c1.5,6.8,3.3,14.1,6.6,21c1.2,2.4,0.9,3.4-1.3,4.5c-2.4,1.2-5.2,2.8-7.7,4.7
		C172.4,231.9,171.8,232,171.6,232z"/>
	<path class="st12" d="M297.2,109.7c-0.2,0-0.5-0.1-1.1-0.4c-10.4-4.9-20.4-7.4-30.4-7.7c-0.9,0-0.9,0-0.9-1.2c0-1.7,0-3.4,0-5.1
		l0-2c0-3,0-5.1,0.4-6.1c0.2-0.3,0.3-0.7,2.4-0.7c0.9,0,2.1,0.1,3.7,0.2c10.6,0.8,21.2,3.9,32.6,9.5c0.5,0.3,0.7,0.4,0.8,0.5
		c0,0-0.1,0.2-0.3,0.7c-2.2,3.6-4.4,7.5-6.4,11.4C297.8,109.1,297.5,109.7,297.2,109.7z"/>
	<path class="st12" d="M188.8,138.7c-0.2,0-0.6-0.1-1.3-0.5c-3.2-2.1-6.5-4.1-9.7-5.9l-0.3-0.2c-1-0.6-1.1-0.9-1.1-1
		c0,0,0-0.3,0.5-1c7.6-11,16.9-20.2,27.6-27.3c0.2-0.1,0.3-0.2,0.5-0.3c0.2,0.3,0.5,0.8,0.7,1.2c0.7,1.3,1.5,2.5,2.2,3.7
		c1.7,2.7,3.3,5.2,3.5,7.7c0.1,1.9-1.5,3-4.2,4.6c-1.5,0.9-3,1.8-4.1,3c-1,1.1-2.1,2.1-3.1,3.2c-3.5,3.6-7.1,7.3-9.9,11.7
		C189.6,138.3,189.2,138.7,188.8,138.7z"/>
	<path class="st16" d="M411.1,503.6c-11,0-21.9,0-32.9,0c-6.5,0-10.2-3.6-10.2-10c-0.1-21.2-0.1-42.7,0-63.9c0-6.3,3.7-9.9,10.2-10
		c5.3-0.1,9.3-0.1,13.1-0.1c4.6,0,8.7,0,12.6,0.1l0.3,0c1.2,0,1.5-0.2,1.6-0.3c0.1-0.1,0.3-0.5,0.3-1.9c-0.1-3.4-0.1-6.8-0.1-10.1
		c0-2.9,0-6,0-9c-0.2-8.9-6-14.9-14.9-15.6c-1-0.1-2-0.1-3-0.1l-4.2,0c-8.7,0-17.4,0-26.1,0c-8.7,0-17.4,0-26.1,0
		c-17.3,0-40,0-62.8-0.2h-0.1c-1.8,0-3,0.2-3.5,0.7c-0.5,0.5-0.7,1.6-0.6,3.7c0.3,10,0.2,19.6,0,30.4c0,2.4,0.2,2.9,2.7,3.3
		c21.2,3.6,35.7,23.2,33.8,45.7c-1.7,20.5-20.4,37.2-41.6,37.2l-0.1,0c-21-0.1-39.6-16.7-41.4-37.1c-2-22.5,12.5-42.2,33.7-45.8
		c2.6-0.4,2.9-0.8,2.9-3.1c-0.2-11.7-0.1-23.3,0-33.1c0-1.2-0.2-1.4-0.2-1.5c0,0-0.3-0.2-1.4-0.2c-16.7,0-33.4,0-50.1,0
		c-24.1,0-49,0-73.5,0.1c-9.8,0-15.8,6.1-16,16.3c-0.1,2.8,0,5.7,0,8.5c0,3.3,0,6.7-0.1,10.1c0,1.2,0.2,1.6,0.2,1.7
		c0.1,0.1,0.3,0.3,1.5,0.3l0.2,0c3.7-0.1,7.6-0.1,12.2-0.1c4.2,0,8.3,0,12.5,0.1l0.5,0c7.4,0.1,10.9,3.5,10.9,10.7
		c0.1,20.5,0.1,41.6,0,62.5c0,7.3-3.5,10.6-10.9,10.6c-10.7,0-21.4,0-32.2,0s-21.4,0-32.2,0c-7.5,0-10.9-3.4-10.9-11.1
		c0-19.8,0-40.5,0-61.5c0-7.9,3.3-11.2,11.3-11.2l4.5,0c3,0,5.9,0,8.9,0c4.4,0,8,0,11.3,0.1l0.3,0c1.2,0,1.5-0.2,1.6-0.3
		c0.1-0.1,0.3-0.5,0.3-1.9c-0.2-4.5-0.1-9-0.1-13.4c0-1.3,0-2.6,0-3.9c0.1-17.1,10.4-27.5,27.5-27.7c4.1,0,8.4-0.1,13.7-0.1
		c3.6,0,7.3,0,10.9,0c3.6,0,7.3,0,10.9,0l39.5,0c12.7,0,29.5,0,46.3,0.1c0,0,0,0,0,0c1.3,0,2-0.1,2.3-0.4c0.2-0.2,0.4-0.7,0.3-2.2
		c-0.2-6.1-0.2-12.5,0-19.7c0-1.2-0.2-1.5-0.2-1.6c-0.1-0.1-0.3-0.2-1.3-0.2c-0.1,0-0.3,0-0.4,0c-1.9,0.1-3.9,0.1-6.4,0.1
		c-1.7,0-3.4,0-5.1,0c-1,0-2.1,0-3.1,0c-6.7,0-8.9-2.3-9-8.8c0-5.7-0.1-12.6,0-19.6c0-1.8-0.1-2.2-1.6-2.5
		c-13.8-3.3-26.8-8.7-38.5-16c-0.5-0.3-0.9-0.5-1.2-0.5c-0.4,0-0.9,0.4-1.7,1.2c-5.1,5.2-9.7,9.8-14.2,14.2c-2.2,2.1-4,3.1-5.8,3.1
		c-1.8,0-3.6-0.9-5.7-3c-10.2-10.1-20.5-20.4-31.7-31.7c-4.1-4.2-4.1-7.3,0-11.5c4.1-4.2,9.1-9.3,14.2-14.2c1.4-1.4,1.5-1.9,0.6-3.3
		c-7.2-11.5-12.5-24.3-15.7-38.1c-0.4-1.6-0.7-1.7-2.2-1.7l-0.2,0c-3.5,0-7.1,0.1-10.6,0.1c-3.3,0-6.6,0-9.9,0
		c-5.5-0.1-7.9-2.5-8-7.9c-0.1-15-0.1-30.3,0-45.2c0-5.3,2.5-7.7,8-7.8c3.3,0,6.7-0.1,10-0.1c3.6,0,7.1,0,10.6,0.1l0.2,0
		c1.5,0,1.8-0.2,2.2-1.8c3.3-13.9,8.6-26.7,15.8-38c0.9-1.4,0.8-1.8-0.4-2.9c-5.1-4.9-10-9.9-14.5-14.5c-4.1-4.2-4.1-7.3,0.1-11.5
		c9.8-9.9,20.1-20.2,31.3-31.3c1.7-1.6,3.7-3.3,6-3.3c1.9,0,3.7,1,6.2,3.5l0.5,0.5c4.4,4.3,9,8.8,13.3,13.4c0.9,1,1.4,1.1,1.7,1.1
		c0.4,0,0.9-0.2,1.6-0.6c11.2-7,23.7-12.2,37.2-15.5c2.3-0.6,2.6-1.1,2.5-3.2c-0.1-3.1-0.1-6.3-0.1-9.3c0-2.9,0-5.9,0-8.9
		c-0.1-3.1,0.3-6.7,3.6-9.4l0.9-0.3h52.2l1,0.4c3.2,2.9,3.5,6.5,3.4,9.4c-0.1,3.6-0.1,7.3-0.1,10.9c0,2.7,0,5.5,0,8.2
		c0,1.4,0.1,1.7,1.6,2.1c14,3.3,26.9,8.6,38.5,15.9c0.5,0.3,0.9,0.5,1.2,0.5c0,0,0,0,0,0c0.4,0,0.8-0.3,1.6-1.1
		c4.6-4.7,9.4-9.4,13.9-13.9c1.8-1.8,3.9-3.5,6.2-3.5c1.9,0,3.6,1,6,3.3c11.2,11.1,21.4,21.3,31.3,31.3c4.1,4.2,4.2,7.3,0.1,11.5
		c-5.4,5.6-10,10.1-14.2,14.2c-1.4,1.4-1.5,1.9-0.6,3.3c7.1,11.3,12.4,24,15.7,37.6c0.5,2,1,2.2,2.7,2.2l0.3,0
		c3.1-0.1,6.3-0.1,9.8-0.1c3,0,6.3,0,10.3,0.1c5.5,0.1,7.9,2.5,8,7.9c0.1,14,0.1,28.7,0,44.8c0,5.7-2.5,8.2-8.1,8.2
		c-3.5,0-7,0.1-10.5,0.1c-3.7,0-7,0-10.1-0.1l-0.2,0c-1.4,0-1.7,0.1-2.1,1.9c-3.4,13.9-8.7,26.7-15.8,38c-0.8,1.3-0.8,1.7,0.5,2.9
		c4.6,4.4,9.3,9.2,14.5,14.6c3.9,4,3.9,7.3,0.1,11.2c-9.9,10-20.4,20.5-32,32c-2,2-3.7,2.9-5.5,2.9c-1.8,0-3.6-0.9-5.7-3
		c-5.9-5.8-10.4-10.2-14.5-14.6c-0.8-0.9-1.2-1-1.5-1c-0.3,0-0.8,0.2-1.5,0.6c-11.5,7.1-24.3,12.4-38,15.8c-1.8,0.4-1.9,0.9-1.9,2.7
		c0.1,6,0.1,12.4,0,20.1c-0.1,5.6-2.5,8-8.2,8.1c-2.7,0-5.3,0.1-8,0.1c-2.9,0-5.5,0-7.9-0.1l-0.2,0c-0.7,0-0.9,0.1-0.9,0.1l0,0
		c0,0-0.1,0.2-0.1,1c0.1,8.1,0.1,15.1,0,21.5c0,1.1,0.2,1.3,0.2,1.3c0,0,0.2,0.1,0.6,0.1c0.2,0,0.4,0,0.6,0c0.4,0,0.7-0.1,1.2-0.1
		c0.3,0,0.6,0,0.9,0c0.3,0,0.6,0,0.8,0c11.4,0,22.7,0,34.1,0.1c11.4,0,22.7,0.1,34.1,0.1c19,0,34.5-0.1,48.9-0.3c0.2,0,0.5,0,0.7,0
		c9.4,0,17.4,3.2,22.8,8.9c5,5.4,7.4,12.9,6.7,21.2c-0.2,2.3-0.1,4.6-0.1,6.9c0.1,2.3,0.1,4.7-0.1,7c-0.1,1.5,0,2.4,0.4,2.8
		c0.3,0.4,1.1,0.5,2.3,0.5c0.2,0,0.4,0,0.6,0c3.3-0.1,6.8-0.2,10.9-0.2c3.3,0,6.5,0,9.8,0.1l3.6,0c7,0.1,10.5,3.6,10.5,10.6
		c0,22.4,0,43,0,63c0,6.7-3.6,10.3-10.3,10.3C433,503.6,422.1,503.6,411.1,503.6z M87.5,493.3c19.3,0,36.2,0.1,51.6,0.2l0.1,0
		c1.1,0,1.8-0.1,2.1-0.4c0.3-0.3,0.4-1.1,0.4-2.4c-0.1-12.9-0.1-26.1-0.1-38.8c0-6.3,0-12.6,0-18.9c0-0.3,0-0.6,0-1
		c0.1-0.9,0.1-1.3-0.2-1.7c-0.3-0.3-0.7-0.4-1.4-0.4c-0.4,0-0.7,0-1.1,0.1c-0.4,0-0.9,0.1-1.3,0.1c-17.8-0.1-35.8-0.2-53.2-0.2
		l-1.3,0c-3.7,0-6.3,0.1-7.1,0.9c-0.9,0.9-0.7,3.9-0.5,8.8c-0.1,4.5-0.1,8.9-0.2,13.2c-0.2,12.5-0.3,25.4-0.6,38.1
		c0,1.3,0.2,1.8,0.4,2c0.4,0.4,1.8,0.4,2.2,0.4C80.9,493.3,84.2,493.3,87.5,493.3z M379.9,429.9c-0.9,0-1.1,0.1-1.1,0.1
		c0,0-0.2,0.2-0.2,1.1c-0.2,20.2-0.5,40.5-0.8,60.6c0,1.1,0.2,1.4,0.3,1.5c0.1,0.1,0.4,0.3,1.4,0.3c16.6-0.1,33.5-0.2,49.8-0.2
		l14.5,0c0-0.1,0-0.4,0-0.4c0-5.4-0.1-10.9-0.1-16.3l0-5.1l0.1-10.1c0.1-9.5,0.2-19.4,0.4-29.1c0-1-0.1-1.6-0.3-1.8
		c-0.1-0.1-0.4-0.3-1.6-0.3c-2.7,0-5.3,0-8,0C415,430.1,396,430,379.9,429.9v-1.4V429.9z M260.4,429.9c-18.1,0-32.4,13.8-32.7,31.5
		c-0.1,8.3,3.1,16.2,9,22.3c6.1,6.2,14.2,9.6,22.8,9.7h0.2c17.6,0,32-14.2,32-31.6c0.1-17.2-14.2-31.8-31.2-31.9L260.4,429.9z
		 M260.1,338.4c6.4,0,12.4,0,18.2,0.1l0.1,0c1.2,0,1.5-0.2,1.6-0.3c0.3-0.3,0.3-1.6,0.3-2.1c-0.1-4.4-0.1-8.8-0.1-13.1
		c0-2.2,0-4.3,0-6.5c0-4.4,2.1-7.1,6.3-8c14.5-3.1,28.2-8.8,40.8-16.9c1.7-1.1,3.2-1.6,4.7-1.6c2,0,3.8,0.9,5.6,2.8
		c2.3,2.4,4.7,4.8,7,7.1c2.3,2.3,4.8,4.7,7.1,7.1c0.9,0.9,1.2,1,1.2,1c0,0,0.3,0,1.1-0.8c8.9-9.1,17.9-18.1,26.7-26.7
		c0.9-0.9,0.9-1.2,0.9-1.3c0-0.1-0.1-0.5-1.1-1.4c-2-1.9-3.9-3.9-5.8-5.8c-2.4-2.4-4.9-4.9-7.4-7.3c-4.2-3.8-4.6-7.5-1.5-12.3
		c7.6-11.5,13-24.5,16.1-38.7c1.2-5.3,4-7.7,9.4-7.7l0.4,0c1.6,0,3.3,0,4.9,0c1.3,0,2.6,0,3.9,0c1.3,0,2.6,0,3.9,0
		c2.3,0,4.2,0,5.9,0.1l0.2,0c1,0,1.2-0.2,1.2-0.2c0,0,0.2-0.3,0.2-1.5c-0.1-4.5-0.1-9-0.1-13.4c0-1.8,0-3.5,0-5.3c0-1.8,0-3.6,0-5.4
		c0-4.4,0-8.9,0.1-13.3c0-1.2-0.2-1.6-0.3-1.7c-0.1-0.1-0.4-0.3-1.4-0.3l-0.2,0c-1.9,0-4,0.1-6.5,0.1c-1.4,0-2.8,0-4.2,0
		c-1.4,0-2.8,0-4.2,0c-1.7,0-3.5,0-5.2,0l-0.2,0c-4.2,0-6.8-2.1-7.6-6.4c-3-14.4-8.7-28-16.7-40.4c-2.7-4.2-2.3-7.6,1.4-11.1
		c2.4-2.3,4.8-4.6,7.1-7c2.1-2.1,4.3-4.3,6.5-6.5c0.3-0.3,1.2-1.1,1.2-1.5c0-0.1,0-0.4-0.9-1.2c-8.4-8.2-17.1-16.9-26.7-26.7
		c-0.8-0.8-1.1-0.8-1.2-0.8c-0.1,0-0.4,0.1-1.2,1c-3.3,3.4-6.7,6.8-10,10.1c-1.1,1-2.1,2.1-3.2,3.1c-2.4,2.4-4.2,4-6.5,4
		c-1.7,0-3.3-0.8-6-2.5c-12.5-7.8-25.7-13.2-39.2-16c-4.5-0.9-6.8-3.7-6.8-8.1c0-2.7,0-5.4,0-8.1c0-3.8,0-7.7,0.1-11.5
		c0-1.3-0.1-1.8-0.3-1.9c-0.1-0.1-0.5-0.3-1.7-0.3l-0.1,0c-5.9,0.1-12,0.1-18.2,0.1c-6,0-12.2,0-18.6-0.1l-0.1,0
		c-1.2,0-1.6,0.2-1.8,0.4c-0.2,0.2-0.3,0.6-0.3,1.9c0.1,3.4,0.1,6.9,0.1,10.2c0,3.1,0,6.2,0,9.3c0.1,4.4-2,7.2-6.2,8.1
		c-14.1,2.9-27.8,8.5-40.9,16.8c-1.7,1.1-3.3,1.6-4.8,1.6c-2,0-3.8-0.9-5.6-2.8c-2.3-2.4-4.7-4.8-7-7.1c-2.3-2.3-4.8-4.7-7.1-7.1
		c-0.8-0.9-1.1-0.9-1.2-0.9c-0.1,0-0.4,0-1.2,0.9c-8.4,8.6-17.4,17.6-26.7,26.7c-0.9,0.9-0.9,1.2-0.9,1.2c0,0.1,0,0.4,0.9,1.1
		c2.2,2,4.3,4.2,6.3,6.2c2.4,2.4,4.8,4.8,7.3,7.1c3.9,3.6,4.4,7.4,1.5,12c-7.8,11.9-13.2,25.2-16.3,39.6c-1,4.5-3.6,6.8-8.1,6.8
		c-0.1,0-0.3,0-0.4,0c-1.7,0-3.5-0.1-5.7-0.1c-1.3,0-2.7,0-4,0c-1.3,0-2.7,0-4,0c-2.1,0-3.8,0-5.4-0.1c-0.1,0-0.3,0-0.4,0
		c-1.1,0-1.5,0.2-1.6,0.3c-0.1,0.1-0.3,0.5-0.3,1.8c0.2,12.5,0.2,24.9,0,36.9c0,1.3,0.2,1.7,0.3,1.8c0.1,0.1,0.5,0.3,1.6,0.3
		c0.1,0,0.3,0,0.4,0c2.2-0.1,4.7-0.1,7.7-0.1c1.6,0,3.2,0,4.8,0c1.6,0,3.2,0,4.8,0l1.8,0c5.9,0,7.9,3.5,8.5,6.5
		c2.9,14.3,8.6,28,16.8,40.8c2.6,4,2.1,7.3-1.5,10.7c-2.2,2.1-4.5,4.4-6.6,6.5c-2.3,2.3-4.6,4.6-7,6.9c-0.3,0.3-1.2,1.2-1.2,1.6
		c0,0.1,0.1,0.5,1,1.5c8.4,8.1,17,16.7,26.4,26.4c0.8,0.9,1.2,0.9,1.3,0.9c0.2,0,0.5-0.2,1.4-1.1c2.1-2.2,4.3-4.3,6.4-6.4
		c2.4-2.3,4.8-4.7,7.1-7.2c2.1-2.2,4.1-3.3,6.3-3.3c1.7,0,3.4,0.6,5.3,1.9c11.4,7.6,24.7,13.1,39.5,16.5c4.8,1.1,6.9,3.7,6.8,8.4
		c-0.1,3.2-0.1,6.5,0,9.6c0,3.3,0,6.6,0,9.9c0,1.2,0.1,1.6,0.3,1.8c0.1,0.1,0.4,0.3,1.5,0.3h0.1
		C247.9,338.5,254.1,338.4,260.1,338.4z"/>
	<path class="st16" d="M411.1,503.6c-11,0-21.9,0-32.9,0c-6.5,0-10.2-3.6-10.2-10c-0.1-21.2-0.1-42.7,0-63.9c0-6.3,3.7-9.9,10.2-10
		c5.3-0.1,9.3-0.1,13.1-0.1c4.6,0,8.7,0,12.6,0.1l0.3,0c1.2,0,1.5-0.2,1.6-0.3c0.1-0.1,0.3-0.5,0.3-1.9c-0.1-3.4-0.1-6.8-0.1-10.1
		c0-2.9,0-6,0-9c-0.2-8.9-6-14.9-14.9-15.6c-1-0.1-2-0.1-3-0.1l-4.2,0c-8.7,0-17.4,0-26.1,0c-8.7,0-17.4,0-26.1,0
		c-17.3,0-40,0-62.8-0.2h-0.1c-1.8,0-3,0.2-3.5,0.7c-0.5,0.5-0.7,1.6-0.6,3.7c0.3,10,0.2,19.6,0,30.4c0,2.4,0.2,2.9,2.7,3.3
		c21.2,3.6,35.7,23.2,33.8,45.7c-1.7,20.5-20.4,37.2-41.6,37.2l-0.1,0c-21-0.1-39.6-16.7-41.4-37.1c-2-22.5,12.5-42.2,33.7-45.8
		c2.6-0.4,2.9-0.8,2.9-3.1c-0.2-11.7-0.1-23.3,0-33.1c0-1.2-0.2-1.4-0.2-1.5c0,0-0.3-0.2-1.4-0.2c-16.7,0-33.4,0-50.1,0
		c-24.1,0-49,0-73.5,0.1c-9.8,0-15.8,6.1-16,16.3c-0.1,2.8,0,5.7,0,8.5c0,3.3,0,6.7-0.1,10.1c0,1.2,0.2,1.6,0.2,1.7
		c0.1,0.1,0.3,0.3,1.5,0.3l0.2,0c3.7-0.1,7.6-0.1,12.2-0.1c4.2,0,8.3,0,12.5,0.1l0.5,0c7.4,0.1,10.9,3.5,10.9,10.7
		c0.1,20.5,0.1,41.6,0,62.5c0,7.3-3.5,10.6-10.9,10.6c-10.7,0-21.4,0-32.2,0s-21.4,0-32.2,0c-7.5,0-10.9-3.4-10.9-11.1
		c0-19.8,0-40.5,0-61.5c0-7.9,3.3-11.2,11.3-11.2l4.5,0c3,0,5.9,0,8.9,0c4.4,0,8,0,11.3,0.1l0.3,0c1.2,0,1.5-0.2,1.6-0.3
		c0.1-0.1,0.3-0.5,0.3-1.9c-0.2-4.5-0.1-9-0.1-13.4c0-1.3,0-2.6,0-3.9c0.1-17.1,10.4-27.5,27.5-27.7c4.1,0,8.4-0.1,13.7-0.1
		c3.6,0,7.3,0,10.9,0c3.6,0,7.3,0,10.9,0l39.5,0c12.7,0,29.5,0,46.3,0.1c0,0,0,0,0,0c1.3,0,2-0.1,2.3-0.4c0.2-0.2,0.4-0.7,0.3-2.2
		c-0.2-6.1-0.2-12.5,0-19.7c0-1.2-0.2-1.5-0.2-1.6c-0.1-0.1-0.3-0.2-1.3-0.2c-0.1,0-0.3,0-0.4,0c-1.9,0.1-3.9,0.1-6.4,0.1
		c-1.7,0-3.4,0-5.1,0c-1,0-2.1,0-3.1,0c-6.7,0-8.9-2.3-9-8.8c0-5.7-0.1-12.6,0-19.6c0-1.8-0.1-2.2-1.6-2.5
		c-13.8-3.3-26.8-8.7-38.5-16c-0.5-0.3-0.9-0.5-1.2-0.5c-0.4,0-0.9,0.4-1.7,1.2c-5.1,5.2-9.7,9.8-14.2,14.2c-2.2,2.1-4,3.1-5.8,3.1
		c-1.8,0-3.6-0.9-5.7-3c-10.2-10.1-20.5-20.4-31.7-31.7c-4.1-4.2-4.1-7.3,0-11.5c4.1-4.2,9.1-9.3,14.2-14.2c1.4-1.4,1.5-1.9,0.6-3.3
		c-7.2-11.5-12.5-24.3-15.7-38.1c-0.4-1.6-0.7-1.7-2.2-1.7l-0.2,0c-3.5,0-7.1,0.1-10.6,0.1c-3.3,0-6.6,0-9.9,0
		c-5.5-0.1-7.9-2.5-8-7.9c-0.1-15-0.1-30.3,0-45.2c0-5.3,2.5-7.7,8-7.8c3.3,0,6.7-0.1,10-0.1c3.6,0,7.1,0,10.6,0.1l0.2,0
		c1.5,0,1.8-0.2,2.2-1.8c3.3-13.9,8.6-26.7,15.8-38c0.9-1.4,0.8-1.8-0.4-2.9c-5.1-4.9-10-9.9-14.5-14.5c-4.1-4.2-4.1-7.3,0.1-11.5
		c9.8-9.9,20.1-20.2,31.3-31.3c1.7-1.6,3.7-3.3,6-3.3c1.9,0,3.7,1,6.2,3.5l0.5,0.5c4.4,4.3,9,8.8,13.3,13.4c0.9,1,1.4,1.1,1.7,1.1
		c0.4,0,0.9-0.2,1.6-0.6c11.2-7,23.7-12.2,37.2-15.5c2.3-0.6,2.6-1.1,2.5-3.2c-0.1-3.1-0.1-6.3-0.1-9.3c0-2.9,0-5.9,0-8.9
		c-0.1-3.1,0.3-6.7,3.6-9.4l0.9-0.3h52.2l1,0.4c3.2,2.9,3.5,6.5,3.4,9.4c-0.1,3.6-0.1,7.3-0.1,10.9c0,2.7,0,5.5,0,8.2
		c0,1.4,0.1,1.7,1.6,2.1c14,3.3,26.9,8.6,38.5,15.9c0.5,0.3,0.9,0.5,1.2,0.5c0,0,0,0,0,0c0.4,0,0.8-0.3,1.6-1.1
		c4.6-4.7,9.4-9.4,13.9-13.9c1.8-1.8,3.9-3.5,6.2-3.5c1.9,0,3.6,1,6,3.3c11.2,11.1,21.4,21.3,31.3,31.3c4.1,4.2,4.2,7.3,0.1,11.5
		c-5.4,5.6-10,10.1-14.2,14.2c-1.4,1.4-1.5,1.9-0.6,3.3c7.1,11.3,12.4,24,15.7,37.6c0.5,2,1,2.2,2.7,2.2l0.3,0
		c3.1-0.1,6.3-0.1,9.8-0.1c3,0,6.3,0,10.3,0.1c5.5,0.1,7.9,2.5,8,7.9c0.1,14,0.1,28.7,0,44.8c0,5.7-2.5,8.2-8.1,8.2
		c-3.5,0-7,0.1-10.5,0.1c-3.7,0-7,0-10.1-0.1l-0.2,0c-1.4,0-1.7,0.1-2.1,1.9c-3.4,13.9-8.7,26.7-15.8,38c-0.8,1.3-0.8,1.7,0.5,2.9
		c4.6,4.4,9.3,9.2,14.5,14.6c3.9,4,3.9,7.3,0.1,11.2c-9.9,10-20.4,20.5-32,32c-2,2-3.7,2.9-5.5,2.9c-1.8,0-3.6-0.9-5.7-3
		c-5.9-5.8-10.4-10.2-14.5-14.6c-0.8-0.9-1.2-1-1.5-1c-0.3,0-0.8,0.2-1.5,0.6c-11.5,7.1-24.3,12.4-38,15.8c-1.8,0.4-1.9,0.9-1.9,2.7
		c0.1,6,0.1,12.4,0,20.1c-0.1,5.6-2.5,8-8.2,8.1c-2.7,0-5.3,0.1-8,0.1c-2.9,0-5.5,0-7.9-0.1l-0.2,0c-0.7,0-0.9,0.1-0.9,0.1l0,0
		c0,0-0.1,0.2-0.1,1c0.1,8.1,0.1,15.1,0,21.5c0,1.1,0.2,1.3,0.2,1.3c0,0,0.2,0.1,0.6,0.1c0.2,0,0.4,0,0.6,0c0.4,0,0.7-0.1,1.2-0.1
		c0.3,0,0.6,0,0.9,0c0.3,0,0.6,0,0.8,0c11.4,0,22.7,0,34.1,0.1c11.4,0,22.7,0.1,34.1,0.1c19,0,34.5-0.1,48.9-0.3c0.2,0,0.5,0,0.7,0
		c9.4,0,17.4,3.2,22.8,8.9c5,5.4,7.4,12.9,6.7,21.2c-0.2,2.3-0.1,4.6-0.1,6.9c0.1,2.3,0.1,4.7-0.1,7c-0.1,1.5,0,2.4,0.4,2.8
		c0.3,0.4,1.1,0.5,2.3,0.5c0.2,0,0.4,0,0.6,0c3.3-0.1,6.8-0.2,10.9-0.2c3.3,0,6.5,0,9.8,0.1l3.6,0c7,0.1,10.5,3.6,10.5,10.6
		c0,22.4,0,43,0,63c0,6.7-3.6,10.3-10.3,10.3C433,503.6,422.1,503.6,411.1,503.6z M87.5,493.3c19.3,0,36.2,0.1,51.6,0.2l0.1,0
		c1.1,0,1.8-0.1,2.1-0.4c0.3-0.3,0.4-1.1,0.4-2.4c-0.1-12.9-0.1-26.1-0.1-38.8c0-6.3,0-12.6,0-18.9c0-0.3,0-0.6,0-1
		c0.1-0.9,0.1-1.3-0.2-1.7c-0.3-0.3-0.7-0.4-1.4-0.4c-0.4,0-0.7,0-1.1,0.1c-0.4,0-0.9,0.1-1.3,0.1c-17.8-0.1-35.8-0.2-53.2-0.2
		l-1.3,0c-3.7,0-6.3,0.1-7.1,0.9c-0.9,0.9-0.7,3.9-0.5,8.8c-0.1,4.5-0.1,8.9-0.2,13.2c-0.2,12.5-0.3,25.4-0.6,38.1
		c0,1.3,0.2,1.8,0.4,2c0.4,0.4,1.8,0.4,2.2,0.4C80.9,493.3,84.2,493.3,87.5,493.3z M379.9,429.9c-0.9,0-1.1,0.1-1.1,0.1
		c0,0-0.2,0.2-0.2,1.1c-0.2,20.2-0.5,40.5-0.8,60.6c0,1.1,0.2,1.4,0.3,1.5c0.1,0.1,0.4,0.3,1.4,0.3c16.6-0.1,33.5-0.2,49.8-0.2
		l14.5,0c0-0.1,0-0.4,0-0.4c0-5.4-0.1-10.9-0.1-16.3l0-5.1l0.1-10.1c0.1-9.5,0.2-19.4,0.4-29.1c0-1-0.1-1.6-0.3-1.8
		c-0.1-0.1-0.4-0.3-1.6-0.3c-2.7,0-5.3,0-8,0C415,430.1,396,430,379.9,429.9v-1.4V429.9z M260.4,429.9c-18.1,0-32.4,13.8-32.7,31.5
		c-0.1,8.3,3.1,16.2,9,22.3c6.1,6.2,14.2,9.6,22.8,9.7h0.2c17.6,0,32-14.2,32-31.6c0.1-17.2-14.2-31.8-31.2-31.9L260.4,429.9z
		 M260.1,338.4c6.4,0,12.4,0,18.2,0.1l0.1,0c1.2,0,1.5-0.2,1.6-0.3c0.3-0.3,0.3-1.6,0.3-2.1c-0.1-4.4-0.1-8.8-0.1-13.1
		c0-2.2,0-4.3,0-6.5c0-4.4,2.1-7.1,6.3-8c14.5-3.1,28.2-8.8,40.8-16.9c1.7-1.1,3.2-1.6,4.7-1.6c2,0,3.8,0.9,5.6,2.8
		c2.3,2.4,4.7,4.8,7,7.1c2.3,2.3,4.8,4.7,7.1,7.1c0.9,0.9,1.2,1,1.2,1c0,0,0.3,0,1.1-0.8c8.9-9.1,17.9-18.1,26.7-26.7
		c0.9-0.9,0.9-1.2,0.9-1.3c0-0.1-0.1-0.5-1.1-1.4c-2-1.9-3.9-3.9-5.8-5.8c-2.4-2.4-4.9-4.9-7.4-7.3c-4.2-3.8-4.6-7.5-1.5-12.3
		c7.6-11.5,13-24.5,16.1-38.7c1.2-5.3,4-7.7,9.4-7.7l0.4,0c1.6,0,3.3,0,4.9,0c1.3,0,2.6,0,3.9,0c1.3,0,2.6,0,3.9,0
		c2.3,0,4.2,0,5.9,0.1l0.2,0c1,0,1.2-0.2,1.2-0.2c0,0,0.2-0.3,0.2-1.5c-0.1-4.5-0.1-9-0.1-13.4c0-1.8,0-3.5,0-5.3c0-1.8,0-3.6,0-5.4
		c0-4.4,0-8.9,0.1-13.3c0-1.2-0.2-1.6-0.3-1.7c-0.1-0.1-0.4-0.3-1.4-0.3l-0.2,0c-1.9,0-4,0.1-6.5,0.1c-1.4,0-2.8,0-4.2,0
		c-1.4,0-2.8,0-4.2,0c-1.7,0-3.5,0-5.2,0l-0.2,0c-4.2,0-6.8-2.1-7.6-6.4c-3-14.4-8.7-28-16.7-40.4c-2.7-4.2-2.3-7.6,1.4-11.1
		c2.4-2.3,4.8-4.6,7.1-7c2.1-2.1,4.3-4.3,6.5-6.5c0.3-0.3,1.2-1.1,1.2-1.5c0-0.1,0-0.4-0.9-1.2c-8.4-8.2-17.1-16.9-26.7-26.7
		c-0.8-0.8-1.1-0.8-1.2-0.8c-0.1,0-0.4,0.1-1.2,1c-3.3,3.4-6.7,6.8-10,10.1c-1.1,1-2.1,2.1-3.2,3.1c-2.4,2.4-4.2,4-6.5,4
		c-1.7,0-3.3-0.8-6-2.5c-12.5-7.8-25.7-13.2-39.2-16c-4.5-0.9-6.8-3.7-6.8-8.1c0-2.7,0-5.4,0-8.1c0-3.8,0-7.7,0.1-11.5
		c0-1.3-0.1-1.8-0.3-1.9c-0.1-0.1-0.5-0.3-1.7-0.3l-0.1,0c-5.9,0.1-12,0.1-18.2,0.1c-6,0-12.2,0-18.6-0.1l-0.1,0
		c-1.2,0-1.6,0.2-1.8,0.4c-0.2,0.2-0.3,0.6-0.3,1.9c0.1,3.4,0.1,6.9,0.1,10.2c0,3.1,0,6.2,0,9.3c0.1,4.4-2,7.2-6.2,8.1
		c-14.1,2.9-27.8,8.5-40.9,16.8c-1.7,1.1-3.3,1.6-4.8,1.6c-2,0-3.8-0.9-5.6-2.8c-2.3-2.4-4.7-4.8-7-7.1c-2.3-2.3-4.8-4.7-7.1-7.1
		c-0.8-0.9-1.1-0.9-1.2-0.9c-0.1,0-0.4,0-1.2,0.9c-8.4,8.6-17.4,17.6-26.7,26.7c-0.9,0.9-0.9,1.2-0.9,1.2c0,0.1,0,0.4,0.9,1.1
		c2.2,2,4.3,4.2,6.3,6.2c2.4,2.4,4.8,4.8,7.3,7.1c3.9,3.6,4.4,7.4,1.5,12c-7.8,11.9-13.2,25.2-16.3,39.6c-1,4.5-3.6,6.8-8.1,6.8
		c-0.1,0-0.3,0-0.4,0c-1.7,0-3.5-0.1-5.7-0.1c-1.3,0-2.7,0-4,0c-1.3,0-2.7,0-4,0c-2.1,0-3.8,0-5.4-0.1c-0.1,0-0.3,0-0.4,0
		c-1.1,0-1.5,0.2-1.6,0.3c-0.1,0.1-0.3,0.5-0.3,1.8c0.2,12.5,0.2,24.9,0,36.9c0,1.3,0.2,1.7,0.3,1.8c0.1,0.1,0.5,0.3,1.6,0.3
		c0.1,0,0.3,0,0.4,0c2.2-0.1,4.7-0.1,7.7-0.1c1.6,0,3.2,0,4.8,0c1.6,0,3.2,0,4.8,0l1.8,0c5.9,0,7.9,3.5,8.5,6.5
		c2.9,14.3,8.6,28,16.8,40.8c2.6,4,2.1,7.3-1.5,10.7c-2.2,2.1-4.5,4.4-6.6,6.5c-2.3,2.3-4.6,4.6-7,6.9c-0.3,0.3-1.2,1.2-1.2,1.6
		c0,0.1,0.1,0.5,1,1.5c8.4,8.1,17,16.7,26.4,26.4c0.8,0.9,1.2,0.9,1.3,0.9c0.2,0,0.5-0.2,1.4-1.1c2.1-2.2,4.3-4.3,6.4-6.4
		c2.4-2.3,4.8-4.7,7.1-7.2c2.1-2.2,4.1-3.3,6.3-3.3c1.7,0,3.4,0.6,5.3,1.9c11.4,7.6,24.7,13.1,39.5,16.5c4.8,1.1,6.9,3.7,6.8,8.4
		c-0.1,3.2-0.1,6.5,0,9.6c0,3.3,0,6.6,0,9.9c0,1.2,0.1,1.6,0.3,1.8c0.1,0.1,0.4,0.3,1.5,0.3h0.1
		C247.9,338.5,254.1,338.4,260.1,338.4z"/>
	<path class="st16" d="M411.1,504.8c-11,0-21.9,0-32.9,0c-7.2,0-11.3-4.1-11.3-11.1c-0.1-21.2-0.1-42.7,0-63.9c0-7,4.2-11,11.4-11.1
		c5.3-0.1,9.3-0.1,13.1-0.1c4.6,0,8.8,0,12.7,0.1l0.3,0c0.3,0,0.5,0,0.7,0c0-0.2,0-0.5,0-1c-0.1-3.4-0.1-6.9-0.1-10.2
		c0-2.9,0-6,0-8.9c-0.2-8.4-5.4-13.8-13.9-14.5c-1-0.1-1.9-0.1-2.9-0.1l-4.2,0c-8.7,0-17.4,0-26.1,0c-8.7,0-17.4,0-26.1,0
		c-17.3,0-40,0-62.8-0.2h-0.1c-2.2,0-2.6,0.4-2.6,0.4c-0.1,0.1-0.4,0.5-0.3,2.8c0.3,10,0.2,19.7,0,30.4c0,1.3,0.1,1.6,0.2,1.7l0,0
		c0,0,0.3,0.3,1.6,0.5c21.7,3.7,36.7,23.8,34.8,46.9c-1.8,21.1-20.9,38.2-42.8,38.2l-0.1,0c-21.6-0.1-40.7-17.2-42.5-38.1
		c-2-23.1,12.9-43.3,34.6-47c1.4-0.2,1.7-0.5,1.8-0.5h0c0,0,0.2-0.3,0.1-1.5c-0.2-11.7-0.1-23.3,0-33.2c0-0.2,0-0.4,0-0.6
		c-0.1,0-0.3,0-0.5,0c-16.7,0-33.4,0-50.1,0c-24.1,0-49,0-73.5,0.1c-9.1,0-14.7,5.7-14.9,15.2c-0.1,2.8,0,5.7,0,8.5
		c0,3.3,0,6.8-0.1,10.2c0,0.3,0,0.6,0,0.7c0.1,0,0.3,0,0.5,0l0.2,0c3.7-0.1,7.7-0.1,12.2-0.1c4.2,0,8.3,0,12.5,0.1l0.5,0
		c8.1,0.1,12,3.9,12,11.8c0.1,20.5,0.1,41.6,0,62.5c0,7.9-3.9,11.8-12,11.8c-10.7,0-21.5,0-32.2,0s-21.4,0-32.2,0
		c-8.2,0-12-3.9-12.1-12.2c0-19.8,0-40.5,0-61.6c0-8.5,3.8-12.3,12.4-12.4l4.5,0c3,0,5.9,0,8.9,0c4.4,0,8,0,11.4,0.1l0.2,0
		c0.3,0,0.6,0,0.7,0c0-0.2,0-0.5,0-1c-0.2-4.5-0.1-9.1-0.1-13.5c0-1.3,0-2.6,0-3.9c0.1-17.6,11-28.6,28.6-28.8
		c4.1,0,8.4-0.1,13.7-0.1c3.6,0,7.3,0,10.9,0c3.6,0,7.3,0,10.9,0l39.5,0c12.7,0,29.5,0,46.3,0.1c0,0,0,0,0,0c0.8,0,1.2-0.1,1.4-0.1
		c0-0.2,0.1-0.6,0.1-1.3c-0.2-6.1-0.2-12.5,0-19.8c0-0.3,0-0.5,0-0.6c-0.1,0-0.2,0-0.4,0c-0.1,0-0.3,0-0.4,0
		c-1.9,0.1-3.9,0.1-6.4,0.1c-1.7,0-3.4,0-5.1,0c-1,0-2.1,0-3.1,0c-7.3,0-10-2.7-10.1-9.9c0-5.8-0.1-12.6,0-19.6c0-0.7,0-1-0.1-1.2
		c-0.1,0-0.3-0.1-0.7-0.2c-14-3.3-27-8.7-38.8-16.1c-0.3-0.2-0.5-0.3-0.6-0.3c-0.3,0.2-0.8,0.7-0.9,0.9c-5.1,5.2-9.7,9.8-14.2,14.2
		c-1.6,1.6-3.9,3.4-6.6,3.4c-2.8,0-4.9-1.8-6.5-3.3c-10.2-10.1-20.5-20.4-31.7-31.7c-4.6-4.6-4.6-8.4,0-13.1
		c4.1-4.3,9.1-9.3,14.2-14.2c0.7-0.7,0.9-1,0.9-1l0,0c0,0,0-0.3-0.4-0.8c-7.3-11.6-12.6-24.5-15.9-38.4c-0.1-0.4-0.2-0.6-0.2-0.7
		c-0.1,0-0.4-0.1-0.9-0.1l-0.2,0c-3.5,0-7.1,0.1-10.6,0.1c-3.3,0-6.6,0-9.9,0c-6.1-0.1-9.1-3-9.1-9c-0.1-15.1-0.1-30.3,0-45.2
		c0-5.9,3-8.9,9.1-8.9c3.3,0,6.7-0.1,10-0.1c3.6,0,7.1,0,10.6,0.1l0.1,0c0.6,0,0.8-0.1,0.9-0.1c0,0,0.1-0.2,0.3-0.9
		c3.3-14,8.7-26.9,16-38.4c0.3-0.5,0.4-0.8,0.4-0.8l0,0c0,0-0.1-0.2-0.6-0.7c-5.1-4.9-10-9.9-14.6-14.6c-4.6-4.7-4.6-8.4,0.1-13.1
		c9.8-9.9,20.1-20.2,31.3-31.3c1.8-1.8,4-3.6,6.8-3.6c2.8,0,5.1,1.9,7,3.8l0.5,0.5c4.4,4.3,9,8.8,13.3,13.4c0.6,0.6,0.9,0.7,0.9,0.7
		c0,0,0.3,0,1-0.5c11.3-7.1,23.9-12.4,37.5-15.6c1.7-0.4,1.7-0.4,1.6-2.1c-0.1-3.1-0.1-6.3-0.1-9.3c0-2.9,0-5.9,0-8.8
		c-0.1-3.2,0.3-7.3,4-10.3l1.6-0.6h52.2l1.7,0.7c3.5,3.2,3.9,7.2,3.8,10.3c-0.1,3.6-0.1,7.3-0.1,10.8c0,2.7,0,5.5,0,8.2
		c0,0.4,0,0.6,0,0.7c0.1,0,0.3,0.1,0.7,0.2c14.1,3.3,27.2,8.7,38.8,16c0.3,0.2,0.5,0.3,0.6,0.3c0.1-0.1,0.4-0.3,0.9-0.8
		c4.6-4.7,9.4-9.5,13.9-13.9c2-2,4.3-3.8,7-3.8c2.7,0,5,1.9,6.8,3.7c11.2,11.1,21.4,21.4,31.3,31.3c4.6,4.6,4.6,8.4,0.1,13.1
		c-5.5,5.6-10,10.1-14.2,14.2c-0.8,0.7-0.9,1-0.9,1l0,0c0,0,0,0.2,0.4,0.8c7.2,11.4,12.5,24.2,15.8,37.9c0.2,1,0.5,1.2,0.5,1.2
		s0.2,0.1,1.1,0.1l0.3,0c3.1-0.1,6.3-0.1,9.9-0.1c3,0,6.3,0,10.3,0.1c6.1,0.1,9,3,9.1,9c0.1,14,0.1,28.7,0,44.8c0,6.3-3,9.3-9.3,9.4
		c-3.5,0-7,0.1-10.5,0.1c-3.7,0-7,0-10.1-0.1l-0.2,0c-0.4,0-0.6,0-0.7,0.1c-0.1,0.1-0.2,0.4-0.3,0.9c-3.4,14-8.8,26.9-16,38.3
		c-0.3,0.5-0.4,0.7-0.4,0.8c0,0,0,0,0,0c0,0,0.2,0.2,0.7,0.8c4.6,4.4,9.3,9.2,14.5,14.6c4.3,4.5,4.4,8.4,0.1,12.8
		c-9.9,10-20.4,20.5-32,32c-1.4,1.4-3.5,3.2-6.3,3.2c-2.8,0-5-1.9-6.5-3.3c-5.9-5.8-10.4-10.3-14.6-14.6c-0.5-0.5-0.7-0.6-0.7-0.6
		c0,0-0.2,0.1-0.8,0.4c-11.6,7.2-24.5,12.5-38.4,15.9c-0.8,0.2-1,0.4-1,0.4c0,0-0.1,0.3,0,1.3c0.1,6,0.1,12.4,0,20.1
		c-0.1,6.3-2.9,9.2-9.3,9.2c-2.7,0-5.3,0.1-8,0.1c-2.9,0-5.5,0-8-0.1l0,0c0,0,0,0,0,0c0.1,8.1,0.1,15.1,0,21.5c0,0.1,0,0.1,0,0.2
		c0,0,0.1,0,0.1,0c0.4,0,0.8-0.1,1.3-0.1c0.3,0,0.6,0,1,0c0.3,0,0.5,0,0.8,0c11.4,0,22.7,0,34.1,0.1c11.4,0,22.7,0.1,34.1,0.1
		c19,0,34.5-0.1,48.8-0.3c0.2,0,0.5,0,0.7,0c9.7,0,18.1,3.3,23.6,9.3c5.2,5.7,7.7,13.5,7,22c-0.2,2.2-0.1,4.4-0.1,6.8
		c0.1,2.3,0.1,4.7-0.1,7.2c-0.1,1.5,0.1,1.9,0.1,2c0,0,0,0,0,0c0,0,0.4,0.2,1.5,0.2c0.2,0,0.3,0,0.5,0c3.3-0.1,6.8-0.2,11-0.2
		c3.3,0,6.5,0,9.8,0.1l3.6,0c7.6,0.1,11.6,4.1,11.7,11.7c0,22.4,0,43,0,63c0,7.3-4.1,11.4-11.5,11.4
		C433,504.7,422.1,504.8,411.1,504.8z M87.5,492.2c19.3,0,36.2,0.1,51.6,0.2h0.1c0.7,0,1.1-0.1,1.3-0.1c0.1-0.2,0.1-0.6,0.1-1.6
		c-0.1-12.9-0.1-26.1-0.1-38.8c0-6.3,0-12.6,0-18.9c0-0.3,0-0.7,0.1-1.1c0-0.2,0-0.6,0-0.8c-0.1,0-0.2-0.1-0.5-0.1
		c-0.3,0-0.7,0-1,0.1c-0.4,0-0.9,0.1-1.4,0.1c-17.8-0.1-35.8-0.2-53.2-0.2l-1.3,0c-2,0-5.7,0-6.2,0.6c-0.6,0.6-0.4,4.3-0.2,7.9
		l0,0.2c-0.1,4.4-0.1,8.8-0.2,13.1c-0.2,12.5-0.3,25.4-0.6,38.1c0,0.6,0,1,0.1,1.1c0.2,0,0.6,0.1,1.4,0.1
		C80.9,492.2,84.2,492.2,87.5,492.2z M379,492.3c0.1,0,0.3,0,0.6,0c16.6-0.1,33.5-0.2,49.8-0.2l13.4,0c0-5.2-0.1-10.4-0.1-15.6
		l0-5.1l0.1-10.1c0.1-9.5,0.2-19.4,0.4-29.1c0-0.5,0-0.8,0-1c-0.1,0-0.4,0-0.7,0c-2.7,0-5.3,0-8,0c-19.5,0-38.5-0.1-54.5-0.2l0-2.6
		v2.6c0,0-0.1,0-0.1,0c0,0,0,0,0,0.1c-0.2,20.2-0.5,40.5-0.8,60.6C379,492,379,492.2,379,492.3z M260.4,431.1
		c-17.4,0-31.3,13.3-31.5,30.4c-0.1,8,3,15.6,8.7,21.5c5.9,6,13.7,9.3,22,9.4h0.2c17,0,30.8-13.7,30.9-30.5
		c0.1-16.5-13.7-30.6-30-30.7L260.4,431.1z M260.1,337.3c6.4,0,12.4,0,18.2,0.1l0.1,0c0.3,0,0.6,0,0.7,0c0-0.2,0-0.6,0-1.2
		c-0.1-4.4-0.1-8.8-0.1-13.1c0-2.2,0-4.3,0-6.5c0-6.2,3.9-8.4,7.2-9.1c14.3-3.1,27.9-8.7,40.5-16.7c1.9-1.2,3.6-1.8,5.4-1.8
		c2.3,0,4.4,1,6.5,3.2c2.3,2.4,4.7,4.7,7,7c2.3,2.3,4.8,4.7,7.1,7.1c0.2,0.2,0.3,0.3,0.4,0.4c0.1-0.1,0.2-0.2,0.3-0.3
		c8.9-9.1,17.9-18.1,26.7-26.7c0.2-0.2,0.3-0.3,0.4-0.5c-0.1-0.1-0.3-0.3-0.6-0.6c-2-1.9-4-3.9-5.9-5.8c-2.4-2.4-4.8-4.9-7.4-7.2
		c-4.6-4.1-5.1-8.5-1.7-13.8c7.5-11.4,12.8-24.2,15.9-38.3c1.3-5.8,4.6-8.6,10.5-8.6l0.4,0c1.6,0,3.3,0,4.9,0c1.3,0,2.6,0,3.9,0
		c1.3,0,2.6,0,3.9,0c2.3,0,4.2,0,5.9,0.1l0.2,0c0.1,0,0.2,0,0.3,0c0-0.1,0-0.3,0-0.5c-0.1-4.5-0.1-9-0.1-13.4c0-1.8,0-3.5,0-5.3
		c0-1.8,0-3.6,0-5.4c0-4.4,0-8.9,0.1-13.4c0-0.4,0-0.6,0-0.8c-0.1,0-0.3,0-0.5,0l-0.2,0c-1.9,0-4,0.1-6.5,0.1c-1.4,0-2.8,0-4.2,0
		c-1.4,0-2.8,0-4.2,0c-1.7,0-3.5,0-5.2,0l-0.3,0c-3.3,0-7.5-1.3-8.8-7.3c-3-14.3-8.6-27.8-16.5-40c-3-4.7-2.5-8.7,1.6-12.6
		c2.4-2.3,4.7-4.6,7-6.9c2.1-2.1,4.3-4.4,6.6-6.5c0.3-0.3,0.5-0.5,0.6-0.7c-0.1-0.1-0.2-0.2-0.4-0.4c-8.4-8.2-17.1-16.9-26.8-26.7
		c-0.1-0.1-0.2-0.2-0.3-0.3c-0.1,0.1-0.2,0.2-0.4,0.4c-3.3,3.4-6.7,6.8-10.1,10.1c-1.1,1-2.1,2.1-3.2,3.1c-2.6,2.6-4.6,4.3-7.3,4.3
		c-2.1,0-4.2-1.2-6.6-2.7c-12.4-7.7-25.5-13.1-38.8-15.9c-6.4-1.3-7.7-5.8-7.7-9.3c0-2.7,0-5.4,0-8c0-3.8,0-7.7,0.1-11.6
		c0-0.5,0-0.9,0-1.1c-0.2,0-0.4-0.1-0.8-0.1l-0.1,0c-5.9,0.1-12,0.1-18.2,0.1c-6,0-12.2,0-18.6-0.1l-0.1,0c-0.5,0-0.8,0-0.9,0.1
		c0,0.2-0.1,0.5,0,1c0.1,3.4,0.1,6.9,0.1,10.3c0,3.1,0,6.2,0,9.3c0.1,5-2.4,8.3-7.1,9.2c-14,2.9-27.6,8.5-40.5,16.7
		c-1.9,1.2-3.7,1.8-5.4,1.8c-2.3,0-4.4-1-6.4-3.1c-2.3-2.4-4.7-4.8-7-7c-2.4-2.3-4.8-4.7-7.1-7.2c-0.2-0.2-0.3-0.3-0.4-0.4
		c-0.1,0.1-0.2,0.2-0.3,0.3c-8.4,8.6-17.4,17.6-26.7,26.7c-0.2,0.2-0.3,0.3-0.4,0.4c0.1,0.1,0.2,0.2,0.3,0.3c2.2,2,4.3,4.2,6.3,6.3
		c2.4,2.4,4.8,4.8,7.3,7.1c4.4,4,4.9,8.4,1.6,13.4c-7.7,11.7-13.1,24.9-16.1,39.2c-1.1,5.1-4.2,7.7-9.2,7.7c-0.2,0-0.3,0-0.5,0
		c-1.6,0-3.4-0.1-5.6-0.1c-1.3,0-2.7,0-4,0c-1.3,0-2.7,0-4,0c-2.1,0-3.8,0-5.5-0.1l-0.4,0c-0.4,0-0.6,0-0.8,0c0,0.2-0.1,0.5,0,0.9
		c0.2,12.5,0.2,24.9,0,36.9c0,0.4,0,0.7,0,0.9c0.1,0,0.4,0,0.7,0l0.4,0c2.2-0.1,4.7-0.1,7.7-0.1c1.6,0,3.2,0,4.8,0
		c1.6,0,3.2,0,4.8,0l1.8,0c5.2,0,8.6,2.6,9.6,7.4c2.9,14.2,8.5,27.8,16.6,40.5c2.8,4.4,2.3,8.4-1.6,12.2c-2.2,2.1-4.4,4.4-6.6,6.5
		c-2.3,2.3-4.6,4.7-7,6.9c-0.4,0.4-0.6,0.6-0.8,0.8c0.1,0.1,0.3,0.3,0.6,0.6c8.4,8.1,17,16.7,26.4,26.4c0.2,0.2,0.3,0.3,0.4,0.4
		c0.1-0.1,0.3-0.3,0.6-0.6c2.1-2.2,4.3-4.3,6.4-6.4c2.4-2.3,4.8-4.7,7.1-7.1c2.3-2.4,4.6-3.6,7.1-3.6c1.9,0,3.8,0.7,5.9,2.1
		c11.3,7.5,24.5,13,39.2,16.3c5.4,1.2,7.8,4.2,7.7,9.5c-0.1,3.2-0.1,6.5,0,9.6c0,3.3,0,6.6,0,10c0,0.4,0,0.7,0,0.9
		c0.1,0,0.3,0,0.6,0C247.9,337.3,254.1,337.3,260.1,337.3z"/>
	<path class="st16" d="M285.9,24.7c2.5,2.2,3,5,2.9,8.3c-0.2,6.4,0,12.7-0.1,19.1c0,2,0.5,3,2.7,3.5c13.5,3.2,26.3,8.3,38.1,15.7
		c2.1,1.3,3.2,0.6,4.7-0.9c4.5-4.7,9.2-9.3,13.8-13.9c4.1-4.1,6.2-4.1,10.2-0.2c10.5,10.4,20.9,20.8,31.3,31.3
		c3.6,3.6,3.6,5.8,0.1,9.5c-4.7,4.8-9.4,9.5-14.2,14.2c-1.7,1.6-2.3,2.8-0.9,5.1c7.2,11.5,12.3,24,15.5,37.2
		c0.7,2.8,1.9,3.4,4.4,3.3c6.7-0.2,13.4-0.1,20,0c4.7,0.1,6.5,1.9,6.6,6.5c0.1,14.9,0.1,29.8,0,44.8c0,4.9-1.9,6.8-6.7,6.8
		c-6.8,0.1-13.7,0.1-20.5,0c-2.3,0-3.1,0.6-3.7,2.9c-3.3,13.3-8.4,25.9-15.6,37.6c-1.3,2.1-0.9,3.2,0.7,4.7
		c4.9,4.8,9.7,9.6,14.5,14.5c3.3,3.5,3.4,5.9,0.1,9.2c-10.6,10.7-21.3,21.4-32,32c-3.3,3.3-5.7,3.3-9.2-0.1
		c-4.9-4.8-9.8-9.6-14.5-14.5c-1.6-1.7-2.8-1.8-4.7-0.6c-11.7,7.3-24.3,12.4-37.6,15.6c-2.7,0.7-3,1.9-2.9,4.1
		c0.1,6.7,0.1,13.4,0,20c0,4.9-1.8,6.6-6.8,6.7c-5.3,0.1-10.6,0.1-15.9,0c-2,0-2.7,0.5-2.6,2.6c0.1,7.1,0.1,14.3,0,21.4
		c0,2.3,0.8,3,2.9,2.8c0.9-0.1,1.9,0,2.8,0c39,0,78,0.4,117-0.2c18.7-0.3,30.1,12,28.7,28.6c-0.4,4.6,0.2,9.3-0.1,14
		c-0.3,3.9,0.8,5,4.8,4.9c8.1-0.3,16.2-0.2,24.2-0.1c6.2,0.1,9.1,2.9,9.1,9.2c0,21,0,42,0,62.9c0,5.9-2.9,8.9-8.9,8.9
		c-21.9,0-43.8,0.1-65.7,0c-5.7,0-8.8-2.9-8.8-8.6c-0.1-21.3-0.1-42.6,0-63.9c0-5.6,3.1-8.5,8.8-8.5c8.5-0.1,17.1-0.2,25.6,0
		c2.9,0.1,3.7-0.8,3.6-3.6c-0.2-6.4,0.1-12.7-0.1-19.1c-0.3-9.7-6.5-16.2-16.2-17c-1.5-0.1-3.1-0.1-4.7-0.1
		c-39.2,0-78.3,0.1-117.5-0.1c-4.9,0-5.8,1.4-5.6,5.9c0.3,10.1,0.2,20.2,0,30.3c0,3,0.6,4.1,3.8,4.7c20.6,3.5,34.5,22.4,32.6,44.2
		c-1.7,19.8-19.8,35.9-40.4,35.9c-20.3-0.1-38.2-16.1-39.9-35.8c-1.9-21.8,11.9-40.8,32.5-44.3c3.1-0.5,4.1-1.4,4-4.5
		c-0.2-11-0.1-22.1,0-33.1c0-2.4-0.6-3.2-3.1-3.2c-41.2,0.1-82.4,0-123.6,0.1c-10.7,0-17.2,7-17.4,17.7c-0.1,6.2,0.1,12.4-0.1,18.6
		c-0.1,2.6,0.7,3.4,3.3,3.4c8.4-0.2,16.8-0.1,25.2,0c6.6,0,9.5,2.8,9.5,9.3c0.1,20.8,0.1,41.7,0,62.5c0,6.5-2.8,9.2-9.5,9.2
		c-21.4,0-42.9,0-64.3,0c-6.8,0-9.5-2.7-9.5-9.7c0-20.5,0-41,0-61.5c0-7.1,2.7-9.8,9.9-9.8c8.2,0,16.5-0.1,24.7,0.1
		c3,0.1,3.7-0.9,3.6-3.7c-0.2-5.7-0.1-11.5-0.1-17.2c0.1-16.2,9.8-26.1,26.1-26.2c11.8-0.1,23.6,0,35.4,0c28.6,0,57.2-0.1,85.8,0.1
		c3.3,0,4.2-0.8,4.1-4.1c-0.2-6.5-0.2-13.1,0-19.6c0.1-2.7-0.9-3.4-3.4-3.3c-4.8,0.2-9.6,0.1-14.5,0.1c-5.9,0-7.5-1.6-7.6-7.4
		c0-6.5-0.1-13.1,0-19.6c0-2-0.2-3.3-2.7-3.9c-13.5-3.2-26.2-8.4-38-15.8c-2.2-1.4-3.3-0.5-4.7,1c-4.7,4.8-9.4,9.5-14.2,14.2
		c-3.6,3.6-6,3.6-9.5,0.1c-10.6-10.5-21.1-21.1-31.7-31.6c-3.6-3.6-3.6-5.9,0-9.5c4.7-4.8,9.4-9.5,14.2-14.2
		c1.7-1.6,2.3-2.8,0.9-5.1c-7.3-11.6-12.4-24.3-15.5-37.6c-0.6-2.5-1.7-2.8-3.8-2.8c-6.8,0.1-13.7,0.1-20.5,0
		c-4.7,0-6.5-1.8-6.6-6.4c-0.1-15.1-0.1-30.2,0-45.2c0-4.6,1.9-6.3,6.6-6.4c6.8-0.1,13.7-0.1,20.5,0c2.2,0,3.2-0.5,3.8-2.9
		c3.2-13.4,8.3-26,15.6-37.6c1.2-2,1.1-3.1-0.6-4.7c-4.9-4.7-9.7-9.6-14.5-14.5c-3.6-3.7-3.6-5.8,0.1-9.5
		c10.4-10.5,20.8-20.9,31.3-31.3c4-3.9,6.1-3.9,10.2,0.2c4.7,4.6,9.3,9.1,13.8,13.9c1.7,1.8,2.9,2,5.1,0.7
		c11.4-7.2,23.7-12.2,36.7-15.3c3-0.7,3.7-1.9,3.6-4.7c-0.2-6.1,0.1-12.1-0.1-18.2c-0.1-3.2,0.4-6.1,3-8.2
		C251.1,24.7,268.5,24.7,285.9,24.7z M74.4,439.7c-0.2,17.1-0.4,34.1-0.8,51.2c-0.1,3.3,1.1,3.9,4,3.9c20.5,0,41,0,61.4,0.2
		c3.4,0,4.1-1.1,4.1-4.2c-0.1-19.2-0.1-38.5-0.1-57.7c0-1.2,0.4-2.5-0.5-3.6c-1.4-1.4-3.3-0.7-4.9-0.7c-17.7-0.1-35.4-0.2-53.1-0.2
		C73.8,428.5,73.8,428.5,74.4,439.7z M444.4,494.7c1.1-0.2,0.9-1.1,0.9-1.8c0-7.1-0.1-14.3-0.1-21.4c0.2-13,0.3-26.1,0.5-39.1
		c0-2.5-0.5-3.6-3.3-3.6c-20.8,0-41.6-0.1-62.5-0.2c-2,0-2.7,0.5-2.7,2.6c-0.2,20.2-0.5,40.4-0.8,60.6c0,2.4,0.8,3.2,3.2,3.2
		C401.2,494.8,422.8,494.7,444.4,494.7z M413.7,185.9c0-6.2-0.1-12.4,0.1-18.6c0.1-2.6-0.7-3.5-3.4-3.4c-6.7,0.2-13.4,0-20,0.1
		c-3.8,0.1-5.7-1.7-6.5-5.2c-3.1-14.7-8.7-28.3-16.9-40.9c-2.5-3.8-1.8-6.4,1.2-9.3c4.6-4.4,9-9,13.6-13.4c1.7-1.6,2.4-2.7,0.3-4.7
		c-9-8.8-17.9-17.7-26.7-26.7c-1.8-1.9-2.8-1.6-4.4,0.1c-4.3,4.5-8.8,8.8-13.2,13.2c-4.5,4.5-5.4,4.6-10.8,1.3
		C314.7,70.5,301.5,65,287.3,62c-3.7-0.8-5.7-2.8-5.6-6.7c0.1-6.5-0.1-13.1,0.1-19.6c0.1-2.8-0.6-3.8-3.6-3.7
		c-12.3,0.2-24.5,0.1-36.8,0c-2.9,0-3.8,0.8-3.7,3.7c0.2,6.5-0.1,13.1,0.1,19.6c0.1,3.7-1.5,5.9-5,6.7c-14.9,3-28.6,8.9-41.3,17
		c-3.3,2.1-5.9,1.9-8.6-1c-4.6-4.8-9.5-9.4-14.1-14.2c-1.6-1.7-2.6-1.9-4.4-0.1c-8.8,9-17.7,17.9-26.7,26.7c-1.7,1.7-1.8,2.7,0,4.4
		c4.6,4.4,9,9.1,13.6,13.4c3.4,3.2,3.8,6.2,1.2,10.1c-8,12.3-13.5,25.7-16.5,40c-0.9,4-3,5.7-7.1,5.6c-6.4-0.2-12.7,0.1-19.1-0.1
		c-2.7-0.1-3.8,0.5-3.8,3.5c0.2,12.3,0.2,24.5,0,36.8c0,3.1,1.1,3.6,3.7,3.5c6.4-0.2,12.7,0,19.1-0.1c3.7,0,6.3,1.5,7.1,5.3
		c3,14.9,8.8,28.6,17,41.3c2.3,3.6,1.6,6.2-1.3,8.9c-4.6,4.4-9,9.1-13.6,13.4c-1.9,1.8-2.5,2.9-0.2,5.1c8.9,8.6,17.7,17.4,26.4,26.4
		c2,2.1,3,1.6,4.7-0.2c4.4-4.6,9.1-8.9,13.5-13.5c3.1-3.3,5.9-3.7,9.8-1.2c12.2,8.1,25.7,13.4,40,16.7c4.1,0.9,5.8,2.9,5.7,7
		c-0.1,6.5,0.1,13.1-0.1,19.6c-0.1,2.5,0.5,3.5,3.3,3.5c12.4-0.1,24.9-0.2,37.3,0c3.2,0,3.5-1.2,3.5-3.8c-0.1-6.5,0-13,0-19.6
		c0-3.6,1.5-5.8,5.2-6.6c14.8-3.2,28.6-8.9,41.3-17.1c3.4-2.2,5.9-1.8,8.6,1c4.7,4.8,9.5,9.4,14.2,14.2c1.6,1.6,2.5,2.1,4.4,0.2
		c8.8-9,17.7-17.9,26.7-26.7c2-2,1.6-3-0.2-4.7c-4.5-4.3-8.7-8.9-13.3-13.1c-3.7-3.3-4-6.3-1.2-10.5c7.9-12,13.2-25.2,16.3-39.2
		c1.1-5.1,3.7-6.6,8.4-6.6c6.2,0.1,12.4-0.1,18.6,0.1c2.4,0.1,3.2-0.7,3.1-3.1C413.5,198.4,413.7,192.1,413.7,185.9z M259.6,494.9
		c18.5,0.1,33.6-14.7,33.6-33.1c0.1-17.8-14.9-33.2-32.6-33.3c-18.9-0.1-34.1,14.4-34.3,32.9C226.1,479.6,241.2,494.8,259.6,494.9z"
		/>
	<path class="st4" d="M413.7,185.9c0,6.2-0.1,12.4,0.1,18.6c0.1,2.5-0.7,3.2-3.1,3.1c-6.2-0.2-12.4,0-18.6-0.1
		c-4.7-0.1-7.3,1.5-8.4,6.6c-3,14-8.4,27.2-16.3,39.2c-2.8,4.2-2.4,7.1,1.2,10.5c4.6,4.2,8.8,8.8,13.3,13.1c1.8,1.7,2.2,2.8,0.2,4.7
		c-9,8.8-17.9,17.7-26.7,26.7c-1.9,1.9-2.8,1.4-4.4-0.2c-4.7-4.8-9.5-9.4-14.2-14.2c-2.7-2.8-5.2-3.2-8.6-1
		c-12.7,8.2-26.5,13.9-41.3,17.1c-3.7,0.8-5.2,3-5.2,6.6c0,6.5-0.1,13.1,0,19.6c0.1,2.6-0.3,3.9-3.5,3.8c-12.4-0.2-24.9-0.2-37.3,0
		c-2.8,0-3.4-1-3.3-3.5c0.1-6.5-0.1-13.1,0.1-19.6c0.1-4.1-1.7-6.1-5.7-7c-14.3-3.2-27.8-8.5-40-16.7c-3.9-2.6-6.7-2.1-9.8,1.2
		c-4.4,4.6-9.1,8.9-13.5,13.5c-1.7,1.8-2.7,2.3-4.7,0.2c-8.7-8.9-17.4-17.7-26.4-26.4c-2.3-2.2-1.7-3.3,0.2-5.1
		c4.6-4.4,9-9.1,13.6-13.4c2.9-2.8,3.6-5.3,1.3-8.9c-8.2-12.7-14-26.5-17-41.3c-0.8-3.8-3.3-5.4-7.1-5.3c-6.4,0-12.7-0.1-19.1,0.1
		c-2.7,0.1-3.8-0.4-3.7-3.5c0.2-12.3,0.2-24.5,0-36.8c0-3.1,1.1-3.6,3.8-3.5c6.4,0.2,12.7-0.1,19.1,0.1c4.1,0.1,6.3-1.6,7.1-5.6
		c3.1-14.3,8.5-27.8,16.5-40c2.6-4,2.2-7-1.2-10.1c-4.7-4.3-9-9-13.6-13.4c-1.8-1.7-1.7-2.7,0-4.4c9-8.8,17.9-17.7,26.7-26.7
		c1.8-1.8,2.8-1.6,4.4,0.1c4.6,4.8,9.5,9.4,14.1,14.2c2.7,2.8,5.3,3.1,8.6,1c12.8-8.1,26.5-14,41.3-17c3.5-0.7,5.1-2.9,5-6.7
		c-0.2-6.5,0.1-13.1-0.1-19.6c-0.1-2.9,0.8-3.7,3.7-3.7c12.3,0.1,24.5,0.2,36.8,0c3,0,3.7,1,3.6,3.7c-0.2,6.5,0,13-0.1,19.6
		c0,3.9,1.9,6,5.6,6.7c14.2,3,27.4,8.5,39.7,16.2c5.3,3.3,6.2,3.2,10.8-1.3c4.4-4.4,8.9-8.7,13.2-13.2c1.6-1.7,2.6-2,4.4-0.1
		c8.8,9,17.7,17.9,26.7,26.7c2.1,2,1.4,3.1-0.3,4.7c-4.6,4.4-9,9-13.6,13.4c-3,2.9-3.7,5.5-1.2,9.3c8.1,12.6,13.8,26.2,16.9,40.9
		c0.7,3.6,2.7,5.3,6.5,5.2c6.7-0.1,13.4,0.1,20-0.1c2.7-0.1,3.5,0.8,3.4,3.4C413.5,173.5,413.7,179.7,413.7,185.9z M259.8,77.4
		c-59.7,0-108.4,48.8-108.5,108.5c-0.1,59.7,48.7,108.5,108.4,108.5c59.8,0,108.5-48.7,108.5-108.4
		C368.2,126.3,319.4,77.4,259.8,77.4z"/>
	<path class="st4" d="M278.3,338.6c-5.8-0.1-11.8-0.1-18.2-0.1c-6,0-12.2,0-19.1,0.1h-0.1c-1.1,0-1.4-0.2-1.5-0.3
		c-0.1-0.1-0.3-0.6-0.3-1.8c0.1-3.3,0.1-6.7,0-9.9c0-3.2,0-6.4,0-9.6c0.1-4.7-2-7.3-6.8-8.4c-14.8-3.3-28.1-8.9-39.5-16.5
		c-1.9-1.3-3.6-1.9-5.3-1.9c-2.2,0-4.2,1-6.3,3.3c-2.3,2.4-4.8,4.8-7.1,7.2c-2.1,2.1-4.3,4.2-6.4,6.4c-0.9,0.9-1.2,1.1-1.4,1.1
		c-0.1,0-0.4,0-1.3-0.9c-9.4-9.7-18-18.3-26.4-26.4c-1-0.9-1-1.4-1-1.5c0-0.4,0.9-1.3,1.2-1.6c2.4-2.3,4.7-4.6,7-6.9
		c2.1-2.2,4.4-4.4,6.6-6.5c3.6-3.4,4-6.7,1.5-10.7c-8.2-12.8-13.9-26.6-16.8-40.8c-0.6-3-2.5-6.5-8.4-6.5l-1.9,0c-1.6,0-3.2,0-4.8,0
		c-1.6,0-3.2,0-4.8,0c-3,0-5.4,0-7.7,0.1c-0.1,0-0.3,0-0.4,0c-1.1,0-1.5-0.2-1.6-0.3c-0.1-0.1-0.3-0.5-0.3-1.8
		c0.2-11.9,0.2-24.3,0-36.9c0-1.3,0.2-1.7,0.3-1.8c0.1-0.1,0.5-0.3,1.6-0.3c0.1,0,0.3,0,0.4,0c1.6,0,3.3,0.1,5.4,0.1
		c1.3,0,2.7,0,4,0c1.3,0,2.7,0,4,0c2.2,0,4,0,5.7,0.1c0.1,0,0.3,0,0.4,0c4.5,0,7.1-2.2,8.1-6.8c3.1-14.4,8.5-27.7,16.3-39.6
		c3-4.5,2.5-8.3-1.5-12c-2.5-2.3-4.9-4.8-7.3-7.1c-2-2.1-4.2-4.2-6.3-6.2c-0.8-0.8-0.9-1.1-0.9-1.1c0-0.1,0-0.4,0.9-1.2
		c9.3-9.1,18.3-18.1,26.7-26.7c0.8-0.8,1.1-0.9,1.2-0.9c0.1,0,0.4,0.1,1.2,0.9c2.3,2.4,4.8,4.8,7.1,7.1c2.3,2.3,4.7,4.7,7,7.1
		c1.8,1.9,3.6,2.8,5.6,2.8c1.5,0,3.1-0.5,4.8-1.6c13-8.3,26.8-13.9,40.9-16.8c4.1-0.9,6.3-3.6,6.2-8.1c-0.1-3.1-0.1-6.3,0-9.3
		c0-3.4,0-6.8-0.1-10.2c0-1.2,0.1-1.7,0.3-1.9c0.2-0.2,0.6-0.4,1.8-0.4l0.1,0c6.4,0.1,12.7,0.1,18.6,0.1c6.2,0,12.3,0,18.2-0.1
		l0.1,0c1.2,0,1.6,0.2,1.7,0.3c0.2,0.2,0.3,0.6,0.3,1.9c-0.1,3.9-0.1,7.8-0.1,11.5c0,2.7,0,5.4,0,8.1c0,4.4,2.2,7.2,6.8,8.1
		c13.5,2.8,26.7,8.2,39.2,16c2.8,1.7,4.4,2.5,6,2.5c2.3,0,4-1.6,6.5-4c1.1-1,2.1-2.1,3.2-3.1c3.3-3.3,6.8-6.7,10-10.1
		c0.8-0.9,1.2-1,1.2-1c0,0,0.4,0,1.2,0.8c9.6,9.8,18.3,18.6,26.7,26.7c0.8,0.8,0.9,1.2,0.9,1.2c0,0.3-0.9,1.2-1.2,1.5
		c-2.2,2.1-4.4,4.3-6.5,6.5c-2.3,2.3-4.7,4.7-7.1,7c-3.7,3.5-4.2,6.9-1.4,11.1c8,12.4,13.6,26,16.7,40.4c0.9,4.2,3.5,6.4,7.6,6.4
		l0.2,0c1.7,0,3.5,0,5.2,0c1.4,0,2.8,0,4.2,0c1.4,0,2.8,0,4.2,0c2.5,0,4.6,0,6.5-0.1l0.2,0c1.1,0,1.4,0.2,1.4,0.3
		c0.1,0.1,0.3,0.4,0.3,1.7c-0.1,4.4-0.1,9-0.1,13.3c0,1.8,0,3.6,0,5.4c0,1.8,0,3.5,0,5.3c0,4.4,0,8.9,0.1,13.4
		c0,1.2-0.2,1.4-0.2,1.5c0,0-0.3,0.2-1.2,0.2l-0.2,0c-1.7,0-3.6-0.1-5.9-0.1c-1.3,0-2.6,0-3.9,0c-1.3,0-2.6,0-3.9,0
		c-1.6,0-3.3,0-4.9,0l-0.4,0c-5.3,0-8.2,2.4-9.4,7.7c-3.1,14.2-8.5,27.2-16.1,38.7c-3.1,4.7-2.7,8.5,1.5,12.3c2.6,2.3,5,4.8,7.4,7.3
		c1.9,1.9,3.8,3.9,5.8,5.8c0.9,0.9,1.1,1.3,1.1,1.4c0,0.1,0,0.4-0.9,1.3c-8.8,8.6-17.8,17.6-26.7,26.7c-0.8,0.8-1.1,0.8-1.1,0.8
		c-0.1,0-0.4-0.1-1.2-1c-2.3-2.4-4.8-4.8-7.1-7.1c-2.3-2.3-4.7-4.7-7-7.1c-1.8-1.9-3.7-2.8-5.6-2.8c-1.5,0-3,0.5-4.7,1.6
		c-12.6,8.1-26.4,13.8-40.8,16.9c-4.2,0.9-6.3,3.6-6.3,8c0,2.2,0,4.3,0,6.5c0,4.3,0,8.7,0.1,13.1c0,0.5,0,1.8-0.3,2.1
		c-0.1,0.1-0.4,0.3-1.6,0.3L278.3,338.6z M259.8,76c-60.6,0-109.9,49.3-109.9,109.9c0,29.2,11.4,56.8,32.2,77.6
		c20.8,20.8,48.4,32.3,77.6,32.3c60.6,0,109.9-49.3,110-109.8c0-29.2-11.4-56.8-32.2-77.6C316.6,87.5,289,76,259.8,76L259.8,76z"/>
	<path class="st2" d="M444.4,494.7c-21.6,0.1-43.2,0.1-64.8,0.3c-2.4,0-3.2-0.8-3.2-3.2c0.3-20.2,0.6-40.4,0.8-60.6
		c0-2.1,0.7-2.6,2.7-2.6c20.8,0.1,41.6,0.2,62.5,0.2c2.8,0,3.4,1.1,3.3,3.6c-0.2,13-0.4,26.1-0.5,39.1c-1.2,1.3-0.7,2.9-0.8,4.4
		C444.4,482.1,444.4,488.4,444.4,494.7z"/>
	<path class="st2" d="M142.5,429.4c0.9,1.1,0.5,2.4,0.5,3.6c0,19.2,0,38.5,0.1,57.7c0,3.2-0.7,4.3-4.1,4.2
		c-20.5-0.2-41-0.3-61.4-0.2c-2.9,0-4.1-0.6-4-3.9c0.4-17.1,0.5-34.1,0.8-51.2c1.2-1.3,0.9-3,0.7-4.4c-0.6-4.6,1-6,5.8-6
		C101.4,429.6,122,429.4,142.5,429.4z"/>
	<path class="st2" d="M259.6,494.9c-18.4-0.1-33.5-15.3-33.2-33.4c0.3-18.5,15.5-33,34.3-32.9c17.6,0.1,32.6,15.5,32.6,33.3
		C293.2,480.1,278.1,495,259.6,494.9z"/>
	<path class="st17" d="M142.5,429.4c-20.6,0-41.1,0.2-61.7-0.1c-4.8-0.1-6.5,1.3-5.8,6c0.2,1.4,0.5,3.1-0.7,4.4
		c-0.6-11.2-0.6-11.2,10.2-11.2c17.7,0,35.4,0.1,53.1,0.2C139.3,428.7,141.1,428,142.5,429.4z"/>
	<path class="st18" d="M444.4,494.7c0-6.3,0-12.6,0-18.8c0-1.5-0.5-3.1,0.8-4.4c0,7.1,0.1,14.3,0.1,21.4
		C445.4,493.6,445.5,494.4,444.4,494.7z"/>
	<path class="st5" d="M259.7,295.8c-29.3,0-56.8-11.5-77.6-32.3c-20.8-20.8-32.2-48.4-32.2-77.6c0.1-60.6,49.4-109.8,109.9-109.9
		c29.3,0,56.8,11.5,77.6,32.3c20.8,20.8,32.3,48.4,32.2,77.6C369.6,246.5,320.3,295.8,259.7,295.8L259.7,295.8z M259.5,110.7
		c-7.4,0-14.8,1.1-21.9,3.2c-30.3,9.1-52.6,38.3-53,69.4c-0.2,12.7,2.1,24,6.9,34.5c3.5,7.6,1.9,12.5-5.3,17l-0.8,0.5
		c-2.4,1.4-4.8,2.9-7.3,4.3c-1.2,0.7-1.5,1-1.5,1.2c0,0.1-0.1,0.5,0.8,1.6c21,28.8,48.5,43.5,81.7,43.5c0,0,0,0,0,0
		c4.4,0,9-0.3,13.6-0.8c26.2-2.9,48.3-15.6,65.8-37.6c2.4-3,4.1-5.1,3.9-6.1c-0.2-0.9-2.4-2.4-5.4-4.4c-0.6-0.4-1.1-0.7-1.7-1.1
		c-0.7-0.5-1.5-0.9-2.2-1.4c-7-4.7-8.3-9.2-4.8-17.1c4.9-11.1,7-21.3,6.6-32.1l0-0.2c0.4-3.4,0-7.7-1.1-13.5
		C327,136.3,295.8,110.7,259.5,110.7z M345.7,190.8c-1,0-1.5,0.1-1.5,1.8c-0.3,9.7-2.7,19.2-7.4,29c-1.1,2.2-0.8,3.2,1.1,4.3
		c2.6,1.5,5.9,3.5,9.1,6c0.8,0.6,1.1,0.6,1.1,0.6c0,0,0.3-0.2,0.8-1.3c5.3-10.5,8.7-21.7,10.1-33.4c0.4-2.9,0.7-5.7,0.1-6.4
		c-0.6-0.6-3.2-0.6-6.1-0.6h-0.4c-0.7,0-1.3,0-2,0c-0.7,0-1.3,0-2,0c-1,0-1.8,0-2.6-0.1C345.9,190.9,345.8,190.8,345.7,190.8z
		 M162.3,190.8c-1.5,0-2.2,0.3-2.4,0.5c-0.1,0.1-0.3,0.5,0.2,1.8l0.1,0.4c1,12.8,4.1,24.4,9.7,36.5c0.4,0.8,1,2,1.6,2
		c0.2,0,0.8-0.1,2-1.1c2.5-2,5.3-3.5,7.7-4.7c2.2-1.1,2.4-2.1,1.3-4.5c-3.3-6.8-5.2-14.1-6.6-21c-0.3-1.4-0.2-2.9-0.2-4.3
		c0.1-2.7,0.1-4.4-1.2-5.1c-0.9-0.5-2-0.7-3.6-0.7c-0.9,0-1.8,0.1-2.8,0.1c-1,0.1-2,0.1-3,0.1c-0.5,0-1,0-1.5-0.1
		C163.2,190.8,162.8,190.8,162.3,190.8z M348.2,139.6c-0.1,0-0.4,0.1-1.2,0.7c-3.1,2.4-6.6,4.4-9.9,6.3c-1.4,0.9-1.5,1.2-0.8,2.6
		c4.3,8.4,6.3,17.3,7.7,25c0.2,1.1,0.1,2.2,0,3.3c-0.1,1.7-0.2,2.8,0.5,3.2c0.6,0.4,1.6,0.5,3,0.5c0.6,0,1.2,0,1.8-0.1
		c0.6,0,1.3-0.1,1.9-0.1c0.2,0,0.5,0,0.7,0l0.1-0.1c0.5,0,1,0,1.6,0c0.5,0,1.1,0,1.6,0c0.8,0,1.4,0,2.1,0.1c0.3,0,0.6,0,0.8,0
		c0.8,0,1-0.2,1-0.2c0.1-0.1,0.3-0.5,0.2-2.2c-0.8-12.7-4.1-25-10.2-37.5C348.7,140.2,348.3,139.7,348.2,139.6z M170.9,180.9
		c0.9,0,1.7,0,2.5,0.1c0.2,0,0.3,0,0.5,0c0.9,0,1.3,0,1.4-1.8c0.3-9.8,3-19.8,8.1-30.3c0.8-1.6,0.6-1.8-0.8-2.5
		c-3.9-2.1-7.1-4.1-10-6c-0.8-0.5-1.1-0.6-1.2-0.6c0,0-0.3,0.1-0.8,1.1c-5.2,10.4-8.5,21.5-9.9,33c-0.3,2.9-0.7,5.6-0.1,6.3
		c0.6,0.7,3.2,0.7,6.5,0.7h0.2c0.6,0,1.2,0,1.8,0C169.7,180.9,170.3,180.9,170.9,180.9z M205,102.5c-0.2,0.1-0.3,0.2-0.5,0.3
		c-10.7,7-20,16.2-27.6,27.3c-0.5,0.7-0.5,1-0.5,1c0,0.1,0.2,0.4,1.1,1l0.3,0.2c3.2,1.9,6.5,3.8,9.7,5.9c0.7,0.5,1.1,0.5,1.3,0.5
		c0.3,0,0.8-0.4,1.3-1.2c2.8-4.4,6.4-8.1,9.9-11.7c1-1.1,2.1-2.1,3.1-3.2c1.1-1.2,2.7-2.1,4.1-3c2.7-1.6,4.3-2.6,4.2-4.6
		c-0.2-2.5-1.8-5-3.5-7.7c-0.8-1.2-1.6-2.4-2.2-3.7C205.5,103.3,205.2,102.8,205,102.5z M313.7,102.3c-0.9,0-2.2,2.3-4.1,5.7
		c-0.3,0.5-0.5,1-0.8,1.5c-0.6,1.2-1.2,2.3-2,3.5c-0.5,0.7-0.7,1.2-0.6,1.5c0.1,0.2,0.3,0.7,1.4,1.3c6.4,4,11.6,9.4,16.6,14.6
		c1.1,1.1,1.9,2.5,2.7,3.9c1.6,2.6,2.6,4.2,4.2,4.2c2.1-0.1,4.5-1.8,6.7-3.6c1.1-0.8,2.2-1.7,3.3-2.4l0.4-0.3
		c0.5-0.3,0.9-0.6,1.3-0.9c0.1-0.1,0.2-0.2,0.3-0.4c0-0.1-0.1-0.1-0.1-0.2c-0.4-0.7-0.8-1.2-1.2-1.8c-6.3-8.9-13.7-16.6-22.2-23
		C316.8,103.9,314.7,102.3,313.7,102.3z M252,86.6c-0.9,0-1.9,0.1-3.5,0.2c-11.1,0.8-22.3,4.1-34.2,10.1c-0.8,0.4-0.9,0.6-0.9,0.6
		c0,0-0.1,0.2,0.4,0.9l0.2,0.4c2,3.5,4,7.1,5.7,10.7c0.2,0.3,0.6,1.1,0.8,1.1c0.1,0,0.4-0.1,1.1-0.4c8.6-4.6,17.7-6.7,26.2-8.3
		c0.4-0.1,0.9-0.1,1.4-0.1c0.6,0,1.1,0,1.7,0.1c0.5,0,1,0.1,1.4,0.1c1.2,0,1.6-0.3,2-0.8c0.7-1.1,0.6-2.6,0.4-4.3
		c-0.1-1-0.2-1.9-0.1-2.9v-0.8C254.6,86.6,254.6,86.6,252,86.6z M267.6,86.6c-2.1,0-2.2,0.4-2.4,0.7c-0.4,1-0.4,3.1-0.4,6.1l0,2.1
		c0,1.6,0,3.3,0,4.9c0,1.2,0,1.2,0.9,1.2c10,0.3,20,2.8,30.4,7.7c0.6,0.3,1,0.4,1.1,0.4c0.2,0,0.5-0.5,0.7-0.8
		c2.1-3.9,4.2-7.8,6.4-11.4c0.3-0.4,0.3-0.7,0.3-0.7c0,0,0,0,0,0c0,0-0.2-0.2-0.7-0.4c-11.4-5.5-22-8.6-32.6-9.5
		C269.7,86.7,268.6,86.6,267.6,86.6z"/>
	<path class="st16" d="M309,222.6c-1.8,0-3.4-1.1-4.8-2.2c-0.3-0.2-0.6-0.4-0.9-0.6l-1.7-1.1c-8.6-5.7-17.4-11.7-26-17.7
		c-1-0.7-1.8-1.1-2.4-1.1c-0.3,0-0.9,0.1-2.1,1.1c-3.5,3-7.9,4.7-12.5,4.7c-4.5,0-8.9-1.6-12.4-4.4c-7.4-6-9.5-16-5.2-24.4
		c3.4-6.6,10.1-10.7,17.6-10.7c1.6,0,3.2,0.2,4.8,0.6c9.3,2.3,15.1,10.3,14.8,20.4l-0.1,0.5c-0.8,2,0,2.9,3,4.9
		c7,4.6,14,9.4,20.8,14c2.4,1.7,4.9,3.3,7.3,5c0.2,0.2,0.5,0.3,0.8,0.5c1.7,1.1,3.6,2.3,4,4.4c0.2,1.2-0.1,2.5-1.1,3.8
		C311.8,221.8,310.5,222.6,309,222.6z M258.7,176.3c-5.7,0-9.6,3.8-9.7,9.5c0,5.7,4,10,9.4,10h0.1c5.1,0,9.9-4.6,10-9.7
		c0-2.4-1-4.9-2.8-6.8C263.9,177.4,261.4,176.3,258.7,176.3L258.7,176.3z"/>
	<path class="st16" d="M276.8,187.2c-1.3,3.2,0.8,4.8,3.5,6.6c9.5,6.2,18.8,12.6,28.1,19c2.4,1.6,5.8,3.3,3.3,6.8
		c-2.5,3.5-5.2,0.7-7.6-0.9c-9.3-6.2-18.5-12.4-27.7-18.8c-2.3-1.6-3.7-2.1-6.2,0.1c-6.7,5.9-16.4,5.7-23.1,0.3
		c-6.9-5.6-8.9-14.8-4.9-22.6c3.9-7.5,12.5-11.4,20.8-9.4C271.7,170.3,277.1,177.7,276.8,187.2z M258.8,174.9
		c-6.6-0.1-11.1,4.4-11.2,10.9c0,6.4,4.7,11.4,10.8,11.5c6,0.1,11.4-5.2,11.5-11.1C270.1,180.2,264.9,174.9,258.8,174.9z"/>
	<path class="st14" d="M258.8,174.9c6.1,0,11.3,5.3,11.2,11.3c-0.1,5.9-5.6,11.2-11.5,11.1c-6.2-0.1-10.9-5.1-10.8-11.5
		C247.7,179.3,252.3,174.8,258.8,174.9z"/>
	<path class="st5" d="M259.8,77.4c59.6,0,108.5,48.9,108.4,108.5c0,59.7-48.7,108.4-108.5,108.4c-59.7,0-108.5-48.8-108.4-108.5
		C151.3,126.2,200.1,77.5,259.8,77.4z M336.3,185.1c0.4-4.2-0.2-9.1-1.1-14c-8.5-44.3-54.4-71.7-97.9-58.6
		c-32.4,9.8-53.6,40.3-54,70.7c-0.2,12.3,1.9,23.9,7,35.1c3.2,7,1.8,11.1-4.8,15.2c-2.6,1.6-5.3,3.2-8,4.7c-2.3,1.2-3.1,2.3-1.2,4.9
		c24,32.9,56.4,47.8,96.6,43.2c27.3-3.1,49.6-16.5,66.7-38.1c5.9-7.5,5.9-7.5-1.8-12.5c-1.3-0.8-2.6-1.6-3.9-2.5
		c-6.5-4.3-7.5-8.1-4.3-15.4C334,207.7,336.7,197.2,336.3,185.1z M256.1,94.1c0-0.6,0-0.7,0-0.9c0-8.1,0-8.4-7.7-7.8
		c-12.3,0.9-23.8,4.7-34.7,10.2c-1.8,0.9-2.1,1.8-1.1,3.5c2,3.6,4.1,7.3,5.9,11c1,2,1.9,2.4,3.9,1.4c8.1-4.3,16.9-6.5,25.8-8.2
		c2.5-0.5,5.8,1.2,7.4-1.4C257,99.5,255.8,96.4,256.1,94.1z M167.2,182.3c2,0,4-0.1,6,0c2.4,0.2,3.3-0.7,3.4-3.1
		c0.4-10.5,3.4-20.4,7.9-29.8c1.1-2.2,0.7-3.3-1.3-4.4c-3.4-1.9-6.7-3.8-9.9-6c-2-1.4-3-1-4.1,1.1c-5.3,10.6-8.7,21.8-10,33.5
		C158.2,182.3,158.4,182.3,167.2,182.3z M351.9,182.5c0,0,0-0.1,0-0.1c1.7,0,3.4-0.1,5.1,0c3,0.3,3.8-0.6,3.6-3.8
		c-0.8-13.4-4.5-26-10.3-38c-1.1-2.2-1.8-3.2-4.2-1.4c-3.1,2.3-6.4,4.3-9.7,6.3c-1.9,1.2-2.5,2.2-1.4,4.5c3.9,7.7,6,16.1,7.6,24.6
		c0.5,2.5-1.1,6.1,1.1,7.4C345.9,183.1,349.2,182.3,351.9,182.5z M352.6,189.5c-2.2,0-4.3,0.1-6.5,0c-2.4-0.1-3.3,0.8-3.3,3.2
		c-0.3,10-3,19.4-7.3,28.4c-1.3,2.7-1,4.6,1.7,6.1c3.1,1.8,6.1,3.7,8.9,5.9c2.2,1.7,3,0.9,4-1.2c5.4-10.7,8.8-22,10.3-33.8
		C361.5,189.5,361.3,189.5,352.6,189.5z M344.9,131.1c-0.7-1.1-1.2-2-1.8-2.9c-6.3-8.9-13.8-16.7-22.5-23.3
		c-7.6-5.7-7.7-5.7-12.2,2.4c-0.9,1.6-1.7,3.3-2.7,4.8c-1.5,2.2-1,3.5,1.2,4.8c6.2,3.9,11.3,9.1,16.3,14.4c2.8,2.9,4.1,8.7,8.1,8.6
		c3.6-0.1,7.1-4,10.6-6.2c0.7-0.4,1.3-0.8,1.9-1.3C344.2,132.1,344.5,131.6,344.9,131.1z M158.8,193.6c1.1,13.6,4.5,25.5,9.9,37
		c1.5,3.3,3,3.6,5.8,1.5c2.3-1.8,4.9-3.2,7.5-4.6c3-1.5,3.3-3.4,1.9-6.4c-3.2-6.5-5-13.5-6.5-20.6c-0.8-3.6,1.2-8.6-2.1-10.4
		c-3.1-1.6-7.6-0.3-11.4-0.6C159.8,189.1,157.5,190,158.8,193.6z M263.4,93.4c0,2.3,0,4.7,0,7c0,1.6,0.3,2.6,2.3,2.7
		c10.5,0.3,20.4,3.1,29.8,7.5c1.8,0.8,2.7,0.7,3.7-1.1c2-3.8,4.1-7.6,6.4-11.3c1-1.7,0.5-2.4-1-3.2c-10.5-5.1-21.5-8.7-33.1-9.6
		C263.5,84.8,263.4,85.1,263.4,93.4z M205,100.8c-0.6,0.3-1,0.5-1.4,0.8c-11.2,7.4-20.4,16.7-28,27.6c-1.4,2-0.6,3,1.1,4
		c3.3,2,6.7,3.9,9.9,6.1c2,1.4,3.3,0.9,4.5-1.1c3.6-5.5,8.4-9.9,12.8-14.7c2.9-3.1,9-4.2,8.7-8.6c-0.3-4.1-3.8-8-5.8-11.9
		c-0.3-0.5-0.6-1.1-1-1.6C205.7,101.2,205.3,101,205,100.8z"/>
</g>
</svg>
