<?xml version="1.0" encoding="utf-8"?>
<!-- Generator: Adobe Illustrator 23.0.1, SVG Export Plug-In . SVG Version: 6.00 Build 0)  -->
<svg version="1.1" id="Layer_1" xmlns="http://www.w3.org/2000/svg" xmlns:xlink="http://www.w3.org/1999/xlink" x="0px" y="0px"
	 viewBox="0 0 519.7 519.7" style="enable-background:new 0 0 519.7 519.7;" xml:space="preserve">
<style type="text/css">
	.st0{fill:#060606;}
	.st1{fill:#FEFEFE;}
	.st2{fill:#146D95;}
	.st3{fill:#3A95CE;}
	.st4{fill:#17A7CF;}
	.st5{fill:#040404;}
	.st6{fill:#B1D8FC;}
	.st7{fill:#F38996;}
	.st8{fill:#FFFFFF;}
	.st9{fill:#FDFDFD;}
	.st10{fill:#050506;}
	.st11{fill:#DCE7F1;}
	.st12{fill:#44AD5D;}
	.st13{fill:#FFCE00;}
	.st14{fill:#D76868;}
	.st15{fill:#D66767;}
	.st16{fill:#050505;}
	.st17{fill:#45B3D9;}
	.st18{fill:#1FBEF5;}
	.st19{fill:#020202;}
	.st20{fill:#E4F6FD;}
</style>
<g>
	<path class="st5" d="M399.4,498.1c-1.5-1.3-3.2-1.4-4.3-1.5c-0.3,0-0.7,0-0.9-0.1c-33.3-7.5-55.4-28-65.5-60.7
		c-0.5-1.7-1.6-5.3-5.4-5.3c-0.9,0-2,0.2-3.4,0.7c-20.1,7.1-40.4,10.7-60.5,10.7c-20.1,0-40.4-3.6-60.5-10.7
		c-1.1-0.4-2.3-0.8-3.5-0.8c-3.8,0-4.9,3.7-5.4,5.3c-9.5,31.3-30.5,51.6-62.4,60.1c-1,0.3-2.1,0.4-3.2,0.6c-2,0.3-4.2,0.6-6.4,1.6
		H97.7c-1.5-1.2-3.2-1.4-4.3-1.4c-0.3,0-0.7,0-0.9-0.1c-35.3-8.1-57.1-29.2-66.7-64.5c-0.2-0.8-0.3-1.6-0.4-2.5
		c-0.2-1.8-0.5-3.9-1.6-5.8v-21.2c1.3-1.5,1.4-3.2,1.4-4.3c0-0.3,0-0.7,0.1-0.9c7.5-33.2,27.8-55.2,60.3-65.3c2-0.6,4.1-1.5,5-3.4
		c1-1.9,0.4-4-0.3-6c-11.8-33-13.6-67.2-5.5-101.8c2.3-9.6,5.6-19.7,10.3-31l-2.1-3.9c-35.7-7.1-57.7-27-67.2-60.8
		c-0.2-0.7-0.3-1.4-0.4-2.2c-0.2-1.7-0.5-3.8-1.7-5.7V96.2c1.3-1.6,1.4-3.5,1.6-4.8c0-0.4,0.1-0.8,0.2-1.2
		c7.1-35.2,39.5-62.3,75.3-63c0.6,0,1.1,0,1.7,0c39.1,0,70.8,25.9,78.9,64.3c0.5,2.2,1.3,6.4,5.6,6.4c1.3,0,2.7-0.5,4.4-1.1
		c22.4-9,45.2-13.6,67.8-13.6c19.8,0,40,3.5,60,10.5c1.6,0.6,2.8,0.8,3.9,0.8c4.2,0,5.2-3.8,5.8-5.9c10.4-36.3,43.7-61.6,80.9-61.6
		c4.8,0,9.7,0.4,14.5,1.3c19,3.4,36.4,13.2,49.1,27.4c12.7,14.2,20.3,32.3,21.3,51.1c2.1,40-23.4,75.5-62,86.5
		c-1.7,0.5-3.8,1.3-4.8,3.2c-1,2-0.3,4,0.3,5.9l0.1,0.2c13.8,39.5,13.9,79.6,0.3,119.3c-0.8,2.3-1.5,4.8-0.4,6.9
		c1.1,2.1,3.4,3,5.7,3.7c21.7,6.2,39.6,20.7,50.5,40.6c10.9,20,13.3,43.1,6.8,64.8c-1.4,4.8-2.6,5-4.8,5c-0.5,0-1,0-1.6-0.1
		c-1.9-1.3-2.9-3-1.8-6.8c3.2-10.8,4.2-21.7,2.7-32.4c-5.1-37.9-37.4-66.5-75.3-66.5c-4.8,0-9.7,0.5-14.5,1.5
		c-21.4,4.3-40,17.3-51.2,35.5c-11,17.9-13.9,38.8-8.3,59c7.8,28.3,26.8,47.1,54.8,54.3c6.9,1.8,13.7,2.7,20.3,2.7
		c19.7,0,37.7-7.9,53.6-23.6c2.9-2.9,4.1-3.7,5.1-3.7c0.6,0,1.6,0.3,3,0.9c2.1,3.4,1.9,4.5-1.1,7.6c-11.3,11.9-25.1,20.1-41.1,24.4
		c-1.2,0.3-2.5,0.5-3.9,0.7c-2.4,0.4-4.9,0.7-7.4,1.9H399.4z M108.2,337.1c-42,0.1-76.1,34.4-76.1,76.5c0,42,34.3,76.2,76.3,76.3
		c42.1,0,76.3-34.2,76.4-76.2c0-20.4-7.9-39.5-22.4-54c-14.5-14.5-33.7-22.5-54-22.5H108.2z M110.4,328.8c3.9,0,8.2,0.5,13.1,1.5
		c41.7,8.3,69.6,42.3,69.5,84.7c0,4,1.5,6.3,5.2,7.7c20.3,7.4,40.8,11.2,61.1,11.2c20.2,0,40.7-3.8,60.9-11.2c4-1.5,5.7-4,5.3-8.2
		c-0.4-4.4,0-9.3,1.2-15.4c8.3-42.3,41.7-69.8,85.2-70.1c2.6,0,5.5-0.6,7.1-4.7c15.2-40.9,15.2-82.4,0-123.3
		c-1.1-3.1-3.2-4.6-6.2-4.6c-0.2,0-0.4,0-0.7,0c-1.1,0.1-2.2,0.1-3.4,0.1c-4.2,0-8.4-0.4-13-1.3c-20.7-4-38.3-14.2-50.8-29.4
		c-12.6-15.2-19.2-34.5-19.3-55.7c0-3.8-1.5-6-5.1-7.3c-20.5-7.5-41.1-11.3-61.3-11.3c-24,0-48.3,5.4-72,15.9
		c-2.8,1.3-4.2,3.2-4.5,6.4c-0.8,8.8-3.1,17.7-7,26.4c-1.7,3.8-3.4,4.3-5.1,4.3c-0.4,0-0.8,0-1.3-0.1c-3.1-2.5-3.2-3.6-1.5-7.3
		c6-13,8-27,5.9-41.5c-5.1-34.3-35.5-60.2-70.7-60.2c-4.2,0-8.4,0.4-12.6,1.1C72,39.9,55.1,51,44.2,67.1
		c-10.7,15.9-14.6,35.5-10.7,53.7c7.2,33.7,35.9,57.2,69.9,57.2c0,0,0,0,0,0c15.1,0,29.7-4.8,42.3-13.9c2.4-1.8,3.8-2.5,4.8-2.5
		c0.8,0,1.7,0.4,3.2,1.4c1.5,3.9,1.2,4.6-2.5,7.3c-11.7,8.8-25.4,14.1-40.5,15.6c-3.4,0.3-5.4,1.8-6.7,4.8
		c-19.4,43.5-20.9,88.2-4.6,132.8c0.8,2.3,2.5,5.3,7,5.3c0.3,0,0.5,0,0.8,0C108.2,328.8,109.3,328.8,110.4,328.8z M410.4,35.4
		c-42,0-76.3,34-76.5,75.8c-0.1,20.5,7.8,39.8,22.3,54.3c14.4,14.5,33.5,22.5,53.9,22.5h0.2c42,0,76.3-34.1,76.3-76.1
		c0.1-42.1-34-76.5-76-76.6L410.4,35.4z"/>
	<path class="st5" d="M399.4,500.1l-1.3-0.5c-1-0.8-2.2-0.9-3.1-1c-0.5,0-0.9-0.1-1.2-0.1c-34.1-7.7-56.6-28.6-66.9-62
		c-0.8-2.5-1.6-3.9-3.5-3.9c-0.7,0-1.5,0.2-2.8,0.6c-20.3,7.2-40.8,10.8-61.1,10.8c-20.3,0-40.9-3.6-61.1-10.8
		c-0.9-0.3-1.9-0.6-2.8-0.6c-2,0-2.8,1.5-3.5,3.8c-9.7,32-31.2,52.7-63.8,61.4c-1.1,0.3-2.3,0.5-3.4,0.6c-1.9,0.3-3.9,0.5-5.8,1.4
		l-0.9,0.2H97.7l-1.3-0.5c-1-0.8-2.2-0.9-3.1-1c-0.5,0-0.9-0.1-1.2-0.1c-36.1-8.3-58.4-29.8-68.1-65.9c-0.2-0.9-0.4-1.9-0.5-2.8
		c-0.2-1.7-0.4-3.5-1.4-5.1l-0.3-1v-21.2l0.5-1.3c0.8-1,0.9-2.2,1-3.1c0-0.4,0.1-0.8,0.1-1.2c7.7-34,28.4-56.4,61.6-66.8
		c1.9-0.6,3.3-1.2,3.9-2.4c0.6-1.2,0.3-2.6-0.4-4.5c-11.9-33.4-13.7-68-5.5-102.9c2.2-9.4,5.5-19.4,10-30.4l-1.2-2.2
		c-36-7.4-58.2-27.7-67.8-62c-0.2-0.8-0.3-1.6-0.5-2.5c-0.2-1.6-0.5-3.3-1.4-4.9l-0.3-1.1V96.2l0.4-1.2c0.9-1.2,1.1-2.6,1.2-3.8
		c0.1-0.5,0.1-1,0.2-1.4c7.3-36.1,40.5-63.9,77.2-64.6c0.6,0,1.2,0,1.8,0c40.1,0,72.5,26.5,80.8,65.9c0.7,3.1,1.4,4.8,3.6,4.8
		c1,0,2.2-0.4,3.7-1c22.6-9.1,45.7-13.7,68.5-13.7c20.1,0,40.5,3.6,60.7,10.6c1.4,0.5,2.4,0.7,3.2,0.7c2.2,0,3.1-1.6,3.9-4.4
		c10.7-37.1,44.7-63.1,82.8-63.1c5,0,9.9,0.5,14.8,1.3c19.4,3.5,37.2,13.5,50.3,28c13,14.5,20.8,33.1,21.8,52.3
		c2.2,40.9-23.9,77.3-63.4,88.5c-1.3,0.4-3,1-3.6,2.2c-0.6,1.2-0.2,2.4,0.4,4.3l0.1,0.2c14,39.9,14.1,80.5,0.3,120.6
		c-0.8,2.4-1.2,4-0.5,5.4c0.7,1.4,2.6,2.1,4.5,2.7c22.2,6.4,40.6,21.1,51.7,41.5c11.2,20.5,13.6,44.1,6.9,66.4
		c-1.6,5.4-3.5,6.4-6.7,6.4c-0.5,0-1.1,0-1.8-0.1l-0.9-0.3c-3-2-3.9-4.9-2.6-9c3.2-10.5,4.1-21.1,2.7-31.6
		c-4.9-36.9-36.4-64.8-73.3-64.8c-4.7,0-9.4,0.5-14.1,1.4c-20.8,4.2-39,16.9-49.9,34.6c-10.7,17.4-13.5,37.8-8.1,57.5
		c7.6,27.6,26.1,45.8,53.4,52.9c6.7,1.7,13.4,2.6,19.8,2.6c19.1,0,36.7-7.7,52.2-23c3.1-3,4.7-4.3,6.5-4.3c0.9,0,2.1,0.3,3.8,1.1
		l0.9,0.8c2.7,4.4,2,6.4-1.4,10c-11.5,12.2-25.7,20.6-42,24.9c-1.3,0.3-2.6,0.5-4.1,0.8c-2.4,0.4-4.7,0.7-6.9,1.7l-0.8,0.2H399.4z
		 M108.2,339.1c-40.9,0.1-74.1,33.5-74.1,74.5c0,40.9,33.4,74.3,74.3,74.3c41,0,74.4-33.3,74.4-74.2c0-19.8-7.7-38.5-21.8-52.6
		c-14.1-14.1-32.8-21.9-52.6-21.9H108.2z M110.4,326.8c4,0,8.4,0.5,13.5,1.5c42.7,8.5,71.2,43.3,71.1,86.6c0,3.2,1,4.8,3.9,5.8
		c20.1,7.4,40.4,11.1,60.4,11.1c20,0,40.2-3.7,60.2-11c3.2-1.2,4.3-2.9,4.1-6.2c-0.4-4.6,0-9.7,1.3-16c8.5-43.3,42.7-71.4,87.1-71.7
		c2.5,0,4.2-0.6,5.2-3.4c15-40.5,15-81.5,0-121.9c-0.9-2.3-2.2-3.3-4.3-3.3c-0.2,0-0.3,0-0.5,0c-1.2,0.1-2.3,0.1-3.5,0.1
		c-4.3,0-8.7-0.4-13.4-1.4c-21.2-4.1-39.1-14.5-52-30.1c-12.8-15.6-19.7-35.3-19.7-56.9c0-3-1-4.4-3.8-5.4
		c-20.2-7.4-40.6-11.2-60.6-11.2c-23.8,0-47.7,5.3-71.1,15.8c-2.2,1-3.1,2.3-3.4,4.8c-0.8,9-3.2,18.1-7.1,27
		c-1.7,3.8-3.8,5.5-6.9,5.5c-0.5,0-1,0-1.6-0.1l-0.9-0.4c-3.7-3-4.2-5.1-2-9.7c5.9-12.7,7.8-26.3,5.7-40.3
		c-5-33.3-34.5-58.5-68.7-58.5c-4.1,0-8.2,0.4-12.2,1.1c-18.1,3.2-34.5,14.1-45,29.7c-10.4,15.5-14.2,34.5-10.4,52.2
		c7,32.8,34.9,55.7,67.9,55.7c14.7,0,28.9-4.7,41.1-13.5c2.9-2.1,4.5-2.9,6-2.9c1.2,0,2.4,0.5,4.3,1.7l0.8,0.9
		c2,4.9,1.1,6.5-3.1,9.7c-12,9.1-26,14.4-41.5,16c-2.7,0.3-4,1.2-5.1,3.6c-19.1,43-20.7,87.2-4.6,131.3c1,2.9,2.5,4,5.1,4
		c0.2,0,0.5,0,0.7,0C108.1,326.8,109.3,326.8,110.4,326.8z M410.4,37.4c-40.9,0-74.4,33.1-74.5,73.9c-0.1,19.9,7.6,38.7,21.7,52.9
		c14,14.1,32.7,21.9,52.5,22h0.2c40.9,0,74.3-33.3,74.4-74.1c0.1-41-33.1-74.5-74-74.6L410.4,37.4z"/>
	<path class="st5" d="M399.4,498.1c-1.5-1.3-3.2-1.4-4.3-1.5c-0.3,0-0.7,0-0.9-0.1c-33.3-7.5-55.4-28-65.5-60.7
		c-0.5-1.7-1.6-5.3-5.4-5.3c-0.9,0-2,0.2-3.4,0.7c-20.1,7.1-40.4,10.7-60.5,10.7c-20.1,0-40.4-3.6-60.5-10.7
		c-1.1-0.4-2.3-0.8-3.5-0.8c-3.8,0-4.9,3.7-5.4,5.3c-9.5,31.3-30.5,51.6-62.4,60.1c-1,0.3-2.1,0.4-3.2,0.6c-2,0.3-4.2,0.6-6.4,1.6
		H97.7c-1.5-1.2-3.2-1.4-4.3-1.4c-0.3,0-0.7,0-0.9-0.1c-35.3-8.1-57.1-29.2-66.7-64.5c-0.2-0.8-0.3-1.6-0.4-2.5
		c-0.2-1.8-0.5-3.9-1.6-5.8v-21.2c1.3-1.5,1.4-3.2,1.4-4.3c0-0.3,0-0.7,0.1-0.9c7.5-33.2,27.8-55.2,60.3-65.3c2-0.6,4.1-1.5,5-3.4
		c1-1.9,0.4-4-0.3-6c-11.8-33-13.6-67.2-5.5-101.8c2.3-9.6,5.6-19.7,10.3-31l-2.1-3.9c-35.7-7.1-57.7-27-67.2-60.8
		c-0.2-0.7-0.3-1.4-0.4-2.2c-0.2-1.7-0.5-3.8-1.7-5.7V96.2c1.3-1.6,1.4-3.5,1.6-4.8c0-0.4,0.1-0.8,0.2-1.2
		c7.1-35.2,39.5-62.3,75.3-63c0.6,0,1.1,0,1.7,0c39.1,0,70.8,25.9,78.9,64.3c0.5,2.2,1.3,6.4,5.6,6.4c1.3,0,2.7-0.5,4.4-1.1
		c22.4-9,45.2-13.6,67.8-13.6c19.8,0,40,3.5,60,10.5c1.6,0.6,2.8,0.8,3.9,0.8c4.2,0,5.2-3.8,5.8-5.9c10.4-36.3,43.7-61.6,80.9-61.6
		c4.8,0,9.7,0.4,14.5,1.3c19,3.4,36.4,13.2,49.1,27.4c12.7,14.2,20.3,32.3,21.3,51.1c2.1,40-23.4,75.5-62,86.5
		c-1.7,0.5-3.8,1.3-4.8,3.2c-1,2-0.3,4,0.3,5.9l0.1,0.2c13.8,39.5,13.9,79.6,0.3,119.3c-0.8,2.3-1.5,4.8-0.4,6.9
		c1.1,2.1,3.4,3,5.7,3.7c21.7,6.2,39.6,20.7,50.5,40.6c10.9,20,13.3,43.1,6.8,64.8c-1.4,4.8-2.6,5-4.8,5c-0.5,0-1,0-1.6-0.1
		c-1.9-1.3-2.9-3-1.8-6.8c3.2-10.8,4.2-21.7,2.7-32.4c-5.1-37.9-37.4-66.5-75.3-66.5c-4.8,0-9.7,0.5-14.5,1.5
		c-21.4,4.3-40,17.3-51.2,35.5c-11,17.9-13.9,38.8-8.3,59c7.8,28.3,26.8,47.1,54.8,54.3c6.9,1.8,13.7,2.7,20.3,2.7
		c19.7,0,37.7-7.9,53.6-23.6c2.9-2.9,4.1-3.7,5.1-3.7c0.6,0,1.6,0.3,3,0.9c2.1,3.4,1.9,4.5-1.1,7.6c-11.3,11.9-25.1,20.1-41.1,24.4
		c-1.2,0.3-2.5,0.5-3.9,0.7c-2.4,0.4-4.9,0.7-7.4,1.9H399.4z M108.2,337.1c-42,0.1-76.1,34.4-76.1,76.5c0,42,34.3,76.2,76.3,76.3
		c42.1,0,76.3-34.2,76.4-76.2c0-20.4-7.9-39.5-22.4-54c-14.5-14.5-33.7-22.5-54-22.5H108.2z M110.4,328.8c3.9,0,8.2,0.5,13.1,1.5
		c41.7,8.3,69.6,42.3,69.5,84.7c0,4,1.5,6.3,5.2,7.7c20.3,7.4,40.8,11.2,61.1,11.2c20.2,0,40.7-3.8,60.9-11.2c4-1.5,5.7-4,5.3-8.2
		c-0.4-4.4,0-9.3,1.2-15.4c8.3-42.3,41.7-69.8,85.2-70.1c2.6,0,5.5-0.6,7.1-4.7c15.2-40.9,15.2-82.4,0-123.3
		c-1.1-3.1-3.2-4.6-6.2-4.6c-0.2,0-0.4,0-0.7,0c-1.1,0.1-2.2,0.1-3.4,0.1c-4.2,0-8.4-0.4-13-1.3c-20.7-4-38.3-14.2-50.8-29.4
		c-12.6-15.2-19.2-34.5-19.3-55.7c0-3.8-1.5-6-5.1-7.3c-20.5-7.5-41.1-11.3-61.3-11.3c-24,0-48.3,5.4-72,15.9
		c-2.8,1.3-4.2,3.2-4.5,6.4c-0.8,8.8-3.1,17.7-7,26.4c-1.7,3.8-3.4,4.3-5.1,4.3c-0.4,0-0.8,0-1.3-0.1c-3.1-2.5-3.2-3.6-1.5-7.3
		c6-13,8-27,5.9-41.5c-5.1-34.3-35.5-60.2-70.7-60.2c-4.2,0-8.4,0.4-12.6,1.1C72,39.9,55.1,51,44.2,67.1
		c-10.7,15.9-14.6,35.5-10.7,53.7c7.2,33.7,35.9,57.2,69.9,57.2c0,0,0,0,0,0c15.1,0,29.7-4.8,42.3-13.9c2.4-1.8,3.8-2.5,4.8-2.5
		c0.8,0,1.7,0.4,3.2,1.4c1.5,3.9,1.2,4.6-2.5,7.3c-11.7,8.8-25.4,14.1-40.5,15.6c-3.4,0.3-5.4,1.8-6.7,4.8
		c-19.4,43.5-20.9,88.2-4.6,132.8c0.8,2.3,2.5,5.3,7,5.3c0.3,0,0.5,0,0.8,0C108.2,328.8,109.3,328.8,110.4,328.8z M410.4,35.4
		c-42,0-76.3,34-76.5,75.8c-0.1,20.5,7.8,39.8,22.3,54.3c14.4,14.5,33.5,22.5,53.9,22.5h0.2c42,0,76.3-34.1,76.3-76.1
		c0.1-42.1-34-76.5-76-76.6L410.4,35.4z"/>
	<path class="st6" d="M483.6,445.9c-1.6,6-5.5,10.7-8.7,15.8c-5.6-2.5-6.9-2.1-12.1,3.1c-20,19.7-43.9,27.2-71.1,20.2
		c-27.4-7.1-45.2-25-52.8-52.3c-11.3-41,15-82.4,57.4-91c40.6-8.3,80.8,20.9,86.4,62.7c1.4,10.7,0.4,21-2.6,31.2
		C478.8,439.9,479.5,443.4,483.6,445.9z M396.8,442.1c0,6.4,0,12.7,0,19.1c0,5.7,2.3,8.6,6.7,8.7c4.6,0.1,7.2-3,7.3-8.7
		c0-10.7-0.1-21.4,0-32.1c0-3.4-1.5-7.8,0.8-9.8c1.9-1.6,6.2-0.5,9.4-0.7c0.3,0,0.6,0,0.9,0c4.2-0.3,6.8-2.8,6.9-6.7
		c0.1-4-2.6-7-6.9-7.2c-2.8-0.2-5.6-0.2-8.4,0c-2.3,0.1-2.9-0.7-2.9-2.9c0.1-5.4,0-10.9,0.1-16.3c0.1-5.6,2.6-8,8.4-8.1
		c5-0.1,9.9,0.1,14.9-0.1c4.3-0.2,7.3-3.2,7.3-7c0-4-3.1-6.9-7.7-6.9c-5.3-0.1-10.5-0.1-15.8,0c-12,0.2-20.8,8.9-21,20.8
		c-0.1,5.7-0.1,11.5,0,17.2c0.1,2.4-0.6,3.3-3.1,3.2c-2.9-0.2-5.9-0.2-8.8,0c-3.9,0.4-6.8,3.7-6.4,7.3c0.4,3.8,2.6,6.3,6.6,6.5
		c2.3,0.1,4.7,0.3,7,0c3.4-0.3,5,0.5,4.7,4.4C396.5,429.3,396.8,435.7,396.8,442.1z"/>
	<path class="st7" d="M483.4,112.4c-0.1,40.3-33.3,73.4-73.7,73.3c-40.6-0.1-73.5-33.4-73.4-74c0.2-40.3,33.4-73.1,73.9-73
		C450.6,38.7,483.5,72,483.4,112.4z M383.1,113c0,9-0.1,18,0,27c0.1,9.3,7.6,13.7,15.6,9.1c15.6-8.9,31.1-17.9,46.6-26.9
		c8.3-4.8,8.3-13.5,0-18.3c-15.4-9-30.8-17.9-46.2-26.7c-8.6-4.9-16-0.6-16,9.3C383,95.4,383.1,104.2,383.1,113z"/>
	<path class="st6" d="M167.9,147.4c-4.1,4.7-8.1,9.4-12.2,14.2c-4.8-3.3-6.7-3.2-12,0.6C102.9,191.7,46.6,170,36,120.6
		c-7.9-36.8,17.5-74.2,54.8-80.9c37.9-6.8,74.4,19.2,79.9,56.7c2.1,13.9,0.3,27.1-5.6,39.9C162.7,141.4,163.4,143.9,167.9,147.4z
		 M68.1,123.8c-5.6,1-9.8,2.6-10.3,8.5c-0.5,5.8,2.2,10.3,7.9,13c2.2,1,4.6,1.7,7,2.3c5.9,1.5,12,1.5,18,0.8
		c23.1-2.5,40.4-13.4,48.7-35.9c2.3-6.2,4.2-12.5,8.2-18c2-2.8,2.9-6.1,3.8-9.4c1.3-4.8,1.2-9.3-2.6-12.9c-3.9-3.6-8.3-3.7-13-1.7
		c-2.3,1-4.5,1.3-7-0.3c-14.9-9.7-31.2-4.1-36.9,12.6c-0.9,2.6-2,2.6-3.9,2c-6.1-1.9-11.1-5.2-15.5-9.8c-6.1-6.2-14.2-4.1-16.3,4.3
		C51.8,96.1,54.4,111.1,68.1,123.8z"/>
	<path class="st7" d="M34.7,414c0-40.5,32.9-73.5,73.3-73.6c40.6-0.1,73.8,33.1,73.8,73.7c0,40.3-33.2,73.4-73.6,73.4
		C67.7,487.4,34.7,454.4,34.7,414z M108.7,365c-9,0-18-0.1-27,0c-13.8,0.2-22.3,8.6-22.4,22.4c-0.1,17.7-0.1,35.3,0,53
		c0.1,13.7,8.7,22.3,22.4,22.4c17.7,0.1,35.3,0.1,53,0c14-0.1,22.4-8.9,22.5-22.9c0-17.4,0-34.7,0-52.1c0-14-8.4-22.7-22.4-22.8
		C126.1,364.9,117.4,365,108.7,365z"/>
	<path class="st5" d="M258.1,355.8c-24.9,0-48.5-9.8-66.4-27.7c-17.9-17.9-27.7-41.4-27.8-66.4c-0.1-51.9,42.1-94.1,94-94.2h0.1
		c51.8,0,94.1,42.1,94.1,93.9c0,24.9-9.8,48.6-27.6,66.5c-17.9,17.9-41.4,27.8-66.4,27.8H258.1z"/>
	<path class="st2" d="M235.9,288c-1.1,0-2.2,0.3-3.5,1.1c-12.2,7.3-20.3,18.1-24.2,31.9c-0.9,3.3-0.1,5.5,2.8,7.5
		c14.1,9.6,29.7,14.7,46.4,15c17.8-0.1,33.7-5.1,48.3-15.3c2.5-1.8,3.3-3.8,2.5-6.8c-3.8-14.1-12-25-24.3-32.4
		c-1.2-0.7-2.4-1.1-3.4-1.1c-1.1,0-2.3,0.4-3.7,1.2c-6.1,3.5-12.4,5.3-18.6,5.3c-6.2,0-12.4-1.8-18.6-5.3
		C238.2,288.4,237,288,235.9,288z"/>
	<path class="st8" d="M258,180c-21.2,0-41,7.9-55.8,22.2c-31.4,30.3-34.5,80-7.1,111.1l2.6-0.3c9.6-18.6,10.1-19.1,27.3-33.6
		c2.1-1.8,1.8-3,1.2-4.1c-4.8-8.3-4.6-17.1-4.3-26.4c0-1.3,0.1-2.7,0.1-4c0.2-14.7,10.4-28.3,24.7-33.1c3.8-1.3,7.7-1.9,11.8-1.9
		c11.2,0,21.7,5,27.9,13.3c10.2,13.6,11.7,29.1,4.8,50.5c-0.9,2.9-1.3,4.8,2,6.9c9,5.7,16.3,13.8,21.7,23.8c1.1,2.1,2,4.2,3,6.5
		c0.3,0.7,0.6,1.4,1,2.2l2.6,0.4c27.4-32.3,24.6-80.7-6.7-110.8C299.4,188,279.4,180,258,180z"/>
	<path class="st4" d="M258.4,222.2c-2.4,0-4.9,0.4-7.2,1.1c-10,2.9-16.9,11.7-17.2,21.9c-0.1,3.8-0.1,7.8,0,13.1
		c0.2,10.9,6.7,19.4,17.3,22.8c2.3,0.7,4.7,1.1,7.1,1.1c12.5,0,23.3-10,23.9-22.3c0.2-4.2,0.2-8.7,0-14.5
		C281.9,232.3,271.4,222.2,258.4,222.2z"/>
	<path class="st5" d="M396.8,442.1c0-6.4-0.3-12.7,0.1-19.1c0.2-3.9-1.3-4.8-4.7-4.4c-2.3,0.2-4.7,0.1-7,0c-4-0.3-6.2-2.7-6.6-6.5
		c-0.4-3.6,2.5-6.9,6.4-7.3c2.9-0.3,5.9-0.2,8.8,0c2.5,0.2,3.2-0.7,3.1-3.2c-0.2-5.7-0.1-11.5,0-17.2c0.2-11.9,9-20.7,21-20.8
		c5.3-0.1,10.6-0.1,15.8,0c4.6,0.1,7.7,3,7.7,6.9c0,3.8-3,6.8-7.3,7c-5,0.2-9.9,0-14.9,0.1c-5.8,0.1-8.3,2.4-8.4,8.1
		c-0.1,5.4,0.1,10.9-0.1,16.3c-0.1,2.2,0.6,3,2.9,2.9c2.8-0.2,5.6-0.2,8.4,0c4.3,0.3,7,3.3,6.9,7.2c-0.1,3.8-2.8,6.3-6.9,6.7
		c-0.3,0-0.6,0-0.9,0c-3.2,0.1-7.5-1-9.4,0.7c-2.3,2-0.7,6.4-0.8,9.8c-0.1,10.7,0,21.4,0,32.1c0,5.8-2.6,8.9-7.3,8.7
		c-4.4-0.1-6.7-3-6.7-8.7C396.8,454.8,396.8,448.4,396.8,442.1z"/>
	<path class="st5" d="M383.1,113c0-8.8-0.1-17.7,0-26.5c0.1-10,7.4-14.2,16-9.3c15.4,8.8,30.9,17.7,46.2,26.7
		c8.3,4.8,8.3,13.4,0,18.3c-15.5,9-31,18-46.6,26.9c-8.1,4.6-15.5,0.2-15.6-9.1C383,131,383.1,122,383.1,113z M397.1,133.9
		c12.3-7.1,23.9-13.8,36.2-20.9c-12.4-7.1-24-13.8-36-20.7c-0.1,1.2-0.2,1.7-0.2,2.1C397.1,107.3,397.1,120.1,397.1,133.9z"/>
	<path class="st5" d="M68.1,123.8c-13.7-12.8-16.3-27.7-12-44.4c2.2-8.4,10.3-10.6,16.3-4.3c4.4,4.6,9.5,7.9,15.5,9.8
		c2,0.6,3.1,0.6,3.9-2c5.7-16.7,21.9-22.3,36.9-12.6c2.5,1.6,4.7,1.3,7,0.3c4.7-2,9.1-1.9,13,1.7c3.9,3.6,4,8.1,2.6,12.9
		c-0.9,3.3-1.8,6.7-3.8,9.4c-4,5.5-5.9,11.7-8.2,18c-8.3,22.5-25.6,33.4-48.7,35.9c-6,0.7-12.1,0.7-18-0.8c-2.4-0.6-4.8-1.3-7-2.3
		c-5.7-2.7-8.4-7.2-7.9-13C58.3,126.4,62.5,124.8,68.1,123.8z M136.4,85.3c-5.2-0.2-10.1,1.4-14-2.2c-3.5-3.2-7.2-4.8-11.8-2.7
		c-4.6,2.1-5.6,6.1-5.7,10.8c-0.1,6.8-2.6,9.1-9.5,8.9c-9.8-0.3-18.7-3.6-27.1-9.6c-0.7,8.6,1.6,15.5,7.3,21.1
		c2.8,2.7,6.2,4.6,9.6,6.4c6.2,3.2,6.4,9.2,0.5,13.1c-1.6,1-3.2,2-5.2,3.3c21.6,1.6,38.6-7.8,45.3-25.4c2.8-7.5,4.4-15.4,9.9-21.6
		C136.1,86.9,136.1,86.2,136.4,85.3z"/>
	<path class="st5" d="M108.7,365c8.7,0,17.4-0.1,26,0c14,0.2,22.4,8.8,22.4,22.8c0,17.4,0,34.7,0,52.1c0,14-8.5,22.8-22.5,22.9
		c-17.7,0.1-35.3,0.1-53,0c-13.8-0.1-22.3-8.7-22.4-22.4c-0.1-17.7-0.1-35.3,0-53c0.1-13.8,8.6-22.2,22.4-22.4
		C90.7,364.9,99.7,365,108.7,365z M143.1,413.8c0-8.5,0-17,0-25.6c0-7.1-2.1-9.2-9.1-9.2c-17.2,0-34.4,0-51.6,0
		c-6.8,0-9,2.2-9.1,8.8c-0.1,17.4-0.1,34.7,0,52.1c0,6.4,2.3,8.8,8.7,8.8c17.5,0.1,35,0.1,52.5,0c6.3,0,8.5-2.4,8.5-8.9
		C143.1,431.2,143.1,422.5,143.1,413.8z"/>
	<path class="st9" d="M397.1,133.9c0-13.8,0-26.7,0-39.5c0-0.4,0.1-0.9,0.2-2.1c12,6.9,23.6,13.6,36,20.7
		C421,120.1,409.4,126.8,397.1,133.9z"/>
	<path class="st9" d="M136.4,85.3c-0.3,0.9-0.3,1.6-0.7,2c-5.5,6.2-7,14.2-9.9,21.6c-6.7,17.6-23.6,27.1-45.3,25.4
		c2.1-1.3,3.7-2.3,5.2-3.3c5.8-3.9,5.7-9.9-0.5-13.1c-3.5-1.8-6.8-3.7-9.6-6.4c-5.7-5.7-8-12.5-7.3-21.1c8.4,6,17.2,9.3,27.1,9.6
		c6.9,0.2,9.4-2,9.5-8.9c0.1-4.6,1.1-8.7,5.7-10.8c4.6-2.1,8.3-0.5,11.8,2.7C126.3,86.7,131.2,85.1,136.4,85.3z"/>
	<path class="st7" d="M143.1,413.8c0,8.7,0,17.4,0,26c0,6.5-2.2,8.9-8.5,8.9c-17.5,0.1-35,0.1-52.5,0c-6.4,0-8.7-2.4-8.7-8.8
		c-0.1-17.4-0.1-34.7,0-52.1c0-6.7,2.3-8.8,9.1-8.8c17.2,0,34.4,0,51.6,0c7,0,9.1,2.1,9.1,9.2C143.1,396.8,143.1,405.3,143.1,413.8z
		 M129.1,413.8c0-11.7-9.4-20.9-21.1-20.8c-11.5,0.1-20.6,9.2-20.7,20.7c-0.1,11.6,9.2,21,20.9,21.1
		C119.8,434.8,129.1,425.5,129.1,413.8z"/>
	<path class="st5" d="M129.1,413.8c0,11.7-9.3,21-20.9,21c-11.6,0-21-9.4-20.9-21.1c0.1-11.5,9.2-20.6,20.7-20.7
		C119.7,392.9,129,402.1,129.1,413.8z M108.2,407c-3.8,0-6.8,2.8-6.9,6.6c-0.1,3.9,2.9,7.1,6.9,7.1c3.8,0,6.8-2.9,6.9-6.7
		C115.2,410.1,112.2,407,108.2,407z"/>
	<path class="st9" d="M108.2,407c4,0,7,3.1,6.8,7.1c-0.1,3.8-3.1,6.7-6.9,6.7c-3.9,0-7-3.2-6.9-7.1C101.4,409.8,104.4,407,108.2,407
		z"/>
</g>
</svg>
