<?xml version="1.0" encoding="utf-8"?>
<!-- Generator: Adobe Illustrator 23.0.1, SVG Export Plug-In . SVG Version: 6.00 Build 0)  -->
<svg version="1.1" id="Layer_1" xmlns="http://www.w3.org/2000/svg" xmlns:xlink="http://www.w3.org/1999/xlink" x="0px" y="0px"
	 viewBox="0 0 519.7 519.7" style="enable-background:new 0 0 519.7 519.7;" xml:space="preserve">
<style type="text/css">
	.st0{fill:#060606;}
	.st1{fill:#FEFEFE;}
	.st2{fill:#146D95;}
	.st3{fill:#3A95CE;}
	.st4{fill:#17A7CF;}
	.st5{fill:#040404;}
	.st6{fill:#B1D8FC;}
	.st7{fill:#F38996;}
	.st8{fill:#FFFFFF;}
	.st9{fill:#FDFDFD;}
	.st10{fill:#050506;}
	.st11{fill:#DCE7F1;}
	.st12{fill:#44AD5D;}
	.st13{fill:#FFCE00;}
	.st14{fill:#D76868;}
	.st15{fill:#D66767;}
	.st16{fill:#050505;}
	.st17{fill:#45B3D9;}
	.st18{fill:#1FBEF5;}
	.st19{fill:#020202;}
	.st20{fill:#E4F6FD;}
	.st21{fill:#060707;}
	.st22{fill:#B4E9D6;}
	.st23{fill:#FB542B;}
	.st24{fill:#010101;}
	.st25{fill:#FBFCFC;}
	.st26{fill:#E0F3EF;}
	.st27{fill:#EB8412;}
	.st28{fill:#F9FAFB;}
	.st29{fill:#000001;}
</style>
<g>
	<path d="M226.2,104.5c6.9,0,13.7-0.1,20.6,0.1c3,0.1,4.3-0.7,4.1-4c-0.3-4.3-0.3-8.6,0-12.9c0.2-3.1-0.7-4.4-3.8-5.4
		c-13.4-4.4-21.9-16.8-21.2-30.1c0.8-14.3,10.8-25.8,25-28.9c14.5-3.1,30.4,6.9,34.5,21.7c4.3,15.5-3.7,31.7-19,36.9
		c-3.8,1.3-5.2,2.8-4.8,6.7c0.4,3.2,0.4,6.5,0,9.8c-0.6,4.8,0.7,6.4,6,6.3c12-0.4,24-0.4,36,0.2c46.6,2.3,87.7,37.5,97,83.1
		c0.7,3.5,2.1,5.1,5.6,6.1c20.4,6.2,34.2,25.4,34.5,46.8c0.2,12.7,0.1,25.5-7.7,36c-4.8,6.4-5.1,12.5-4.5,19.8
		c7.7,89.4-57.8,171.6-146.5,184c-93.7,13.1-177.5-46.4-195.9-139.1c-3.3-16.8-3.8-33.7-1.9-50.7c0.5-4,0-7-2.6-10.3
		C67,262.4,65.5,216.5,95,199.2c2.9-1.7,6-3.8,9.2-4.4c5.4-1.1,7.2-4,8.3-9.1c10.9-46.9,53.5-80.8,101.8-81.2
		C218.3,104.5,222.2,104.5,226.2,104.5z M303.9,359.5c-31.5,0-63.1,0-94.6,0.1c-0.5-0.1-1-0.3-1.5-0.3
		c-38.3-3.7-66.9-22.5-85.9-55.9c-1.3-2.2-2.7-3.1-5.2-3.2c-5.3-0.3-10.5-1.7-15.4-3.8c-6.3-2.6-6.7-2.4-7,4.5
		c-1.9,50.9,15.6,93.9,52.9,128.7c0.8,0.8,1.5,2,3.2,1.6c1.1-7,2.9-13.9,6.2-20.4c11.6-22.9,30.4-35.5,55.7-38.7
		c29.5,0,58.9,0,88.4,0.1c1,0.2,2,0.4,3,0.6c29.6,4.4,52.4,26.5,57.7,55.9c0.2,0.9-0.2,2.1,0.9,2.8c34.4-21.1,64.6-97,54.5-137.8
		c-6.6,3.6-13.5,6.2-20.9,6.6c-3.1,0.2-4.5,1.4-5.8,3.9c-4.5,8.5-10.3,16.2-17,23.1C354.2,346.6,330.9,357,303.9,359.5z
		 M252.5,348.8c20-0.7,39.3,1.1,58.4-1.3c41.2-5.2,76.5-41.2,80.7-82.5c2.1-20.2,1.6-40.5,0.5-60.7c-1.6-26.8-13.3-49.2-33.8-66.6
		c-17.5-14.9-38-22.1-60.9-22.4c-27.3-0.2-54.5-0.1-81.8,0c-4.9,0-9.9,0.4-14.8,1.2c-45.9,7.3-80,47.1-80.3,93.7
		c-0.1,14.4-0.3,28.8,0,43.2c0.8,35.3,16.5,62.3,46.2,81.2c11.9,7.6,25.2,12.5,39,13.7C221.4,349.8,237.4,348.8,252.5,348.8z
		 M259.2,382.9c-15.7,0-28.6-0.2-41.4,0c-29.8,0.4-53.9,22.9-56.7,52.6c-0.3,3.3,0.2,5.6,3.3,7.7c54,38,130.4,37.9,184-0.2
		c2.4-1.7,3.2-3.5,3.1-6.3c-1.2-25.9-21.9-49.1-47.9-52.8C287.9,381.6,272.1,383.5,259.2,382.9z M397.2,288.8
		c16.8-3,28.6-14.5,31.6-30.4c1.1-6,0.7-12,0.6-17.9c-0.3-15.9-7.9-27.2-21.9-34.4c-3.2-1.7-4.3-1.8-4.4,2.7
		C402.5,235.4,406.6,262.3,397.2,288.8z M115.4,288.8c-10-27.7-4.4-56-6.4-84.2c-12.4,4.6-20.6,12.9-24.3,25.4
		c-2.5,8.5-2.1,17.3-1.2,26C85.2,272.8,97.9,285.9,115.4,288.8z M275.6,53.5c0.1-10.7-8.5-19.4-19.1-19.5
		c-10.5-0.2-19.4,8.5-19.6,19.1c-0.2,10.8,8.6,19.8,19.4,19.8C266.9,72.8,275.6,64.2,275.6,53.5z"/>
	<path class="st25" d="M252.5,348.8c-15.1,0-31.1,1-46.9-0.3c-13.8-1.2-27.1-6.1-39-13.7c-29.7-18.9-45.4-46-46.2-81.2
		c-0.3-14.4-0.1-28.8,0-43.2c0.3-46.6,34.4-86.4,80.3-93.7c4.9-0.8,9.9-1.2,14.8-1.2c27.3-0.1,54.5-0.2,81.8,0
		c22.9,0.2,43.4,7.5,60.9,22.4c20.6,17.4,32.3,39.8,33.8,66.6c1.2,20.2,1.6,40.5-0.5,60.7c-4.2,41.3-39.5,77.3-80.7,82.5
		C291.7,349.9,272.5,348.1,252.5,348.8z M256.4,325.4c14.2,0,28.5,0.1,42.7,0c29.9-0.2,55.4-17.8,66.2-45.3
		c2.1-5.3,3.4-10.9,3.8-16.4c1.2-18.2,2.7-36.6-1.9-54.5c-7.5-29.7-35.4-51.4-66.1-51.7c-29.8-0.3-59.7-0.3-89.5,0
		c-32.5,0.3-60.8,24.1-67.4,56c-2.7,13.1-1.4,26.3-1.5,39.5c-0.2,41.4,30.5,72.2,72,72.3C228.6,325.4,242.5,325.4,256.4,325.4z"/>
	<path class="st4" d="M212.4,372c-25.3,3.3-44.1,15.8-55.7,38.7c-3.3,6.5-5.1,13.4-6.2,20.4c-1.7,0.4-2.4-0.8-3.2-1.6
		c-37.3-34.8-54.8-77.8-52.9-128.7c0.3-6.8,0.7-7.1,7-4.5c4.9,2.1,10.1,3.5,15.4,3.8c2.5,0.1,3.9,1,5.2,3.2
		c19,33.3,47.5,52.2,85.9,55.9c0.5,0,1,0.2,1.5,0.3c0.7,2.4-1.5,0,0,0c28.7,0,57.9,0,86.6-0.1c1.5,0,3.2-0.4,8,0
		c27-2.5,50.3-12.9,69.3-32.4c6.8-6.9,12.5-14.6,17-23.1c1.3-2.5,2.7-3.8,5.8-3.9c7.4-0.4,14.3-3,20.9-6.6
		c10.1,40.8-20.1,116.7-54.5,137.8c-1.1-0.7-0.7-1.8-0.9-2.8c-5.3-29.4-28.2-51.5-57.7-55.9"/>
	<path class="st9" d="M259.2,382.9c12.9,0.6,28.7-1.3,44.3,0.9c26,3.7,46.7,26.9,47.9,52.8c0.1,2.9-0.6,4.6-3.1,6.3
		c-53.7,38.1-130,38.2-184,0.2c-3.1-2.1-3.6-4.4-3.3-7.7c2.8-29.7,26.9-52.1,56.7-52.6C230.7,382.8,243.5,382.9,259.2,382.9z"/>
	<path class="st25" d="M397.2,288.8c9.4-26.5,5.2-53.4,5.9-80c0.1-4.5,1.1-4.4,4.4-2.7c14,7.2,21.6,18.6,21.9,34.4
		c0.1,6,0.6,12-0.6,17.9C425.8,274.3,414.1,285.8,397.2,288.8z"/>
	<path class="st25" d="M115.4,288.8c-17.5-2.9-30.2-16-31.9-32.8c-0.9-8.7-1.3-17.5,1.2-26c3.7-12.5,11.9-20.7,24.3-25.4
		C111,232.8,105.4,261.1,115.4,288.8z"/>
	<path class="st26" d="M275.6,53.5c-0.1,10.7-8.7,19.3-19.3,19.3c-10.8,0-19.6-9-19.4-19.8c0.2-10.5,9.1-19.2,19.6-19.1
		C267.2,34.2,275.7,42.9,275.6,53.5z"/>
	<path class="st2" d="M363.1,258.2c0,0.7-0.1,1.4-0.1,2.2c-4.1,2.1-1.2,5.8-2,8.7c0,0.3,0,0.6-0.1,1c-1.1,0.7-1,1.4,0,2.1
		c-4.9,23.4-29.9,44.4-53.5,45c-1.4-1.7-3.3-1.1-5-1.1c-30.6,0-61.1,0-91.7,0c-1.7,0-3.6-0.6-5,1c-25.3-0.7-50.3-23.1-54.4-50
		c-2.5-16.6-2.5-33.5-0.1-50c4.3-28.7,29.8-50.6,58.8-51c31.2-0.4,62.3-0.4,93.5,0c32.2,0.5,60.1,28.5,59.5,59c-1.6,1.4-1,3.3-1,5
		c-0.1,7.8-0.1,15.5,0,23.3C362.1,255,361.5,256.9,363.1,258.2z M327.7,229.8c0.1-9.7-7.4-17.5-17-17.7c-10-0.2-17.9,7.3-18,17.2
		c-0.1,9.5,7.5,17.5,17,17.8C319.5,247.3,327.6,239.6,327.7,229.8z M203.7,212.1c-9.9-0.1-17.9,7.8-17.8,17.5
		c0.1,9.5,7.9,17.4,17.4,17.5c9.8,0.1,17.7-7.8,17.7-17.6C220.9,219.8,213.3,212.2,203.7,212.1z M255.1,287.2
		c14.3-0.1,25.6-6.4,31.1-16c2-3.6,2.4-7-1.5-9.2c-3.6-2-6.2-0.1-8.3,3.2c-9.2,14.2-29.6,14.3-38.9,0c-2.3-3.5-4.9-5.5-8.7-3
		c-3.9,2.5-3,6-0.8,9.3C234.6,282.4,244.8,286.9,255.1,287.2z"/>
	<path d="M256.4,325.4c-13.9,0-27.8,0-41.7,0c-41.4-0.1-72.1-30.9-72-72.3c0.1-13.2-1.2-26.4,1.5-39.5c6.5-31.9,34.9-55.7,67.4-56
		c29.8-0.3,59.7-0.3,89.5,0c30.7,0.3,58.5,22,66.1,51.7c4.5,17.9,3.1,36.3,1.9,54.5c-0.4,5.4-1.7,11.1-3.8,16.4
		c-10.8,27.5-36.3,45.1-66.2,45.3C284.9,325.5,270.6,325.4,256.4,325.4z M358.5,225.3c0.6-29.3-26.2-56.3-57.2-56.7
		c-30-0.4-60-0.4-90,0c-27.9,0.3-52.5,21.5-56.6,49c-2.4,15.9-2.4,32.2,0.1,48.1c4,25.8,28.1,47.4,52.4,48.1
		c2.2,0.2,4.4,0.6,6.6,0.6c28.2,0,56.4,0,84.6,0c2.2,0,4.4-0.4,6.6-0.6c22.7-0.5,46.8-20.7,51.5-43.3c0-0.7,0-1.4,0-2
		c0.1-0.3,0.1-0.6,0.1-0.9c2.3-2.4,1.8-5.5,1.9-8.3c0-0.7,0.1-1.4,0.1-2.1C359,246.6,359,236,358.5,225.3z"/>
</g>
</svg>
