<?xml version="1.0" encoding="utf-8"?>
<!-- Generator: Adobe Illustrator 23.0.1, SVG Export Plug-In . SVG Version: 6.00 Build 0)  -->
<svg version="1.1" id="Layer_1" xmlns="http://www.w3.org/2000/svg" xmlns:xlink="http://www.w3.org/1999/xlink" x="0px" y="0px"
	 viewBox="0 0 519.7 519.7" style="enable-background:new 0 0 519.7 519.7;" xml:space="preserve">
<style type="text/css">
	.st0{fill:#060606;}
	.st1{fill:#FEFEFE;}
	.st2{fill:#146D95;}
	.st3{fill:#3A95CE;}
	.st4{fill:#17A7CF;}
	.st5{fill:#040404;}
	.st6{fill:#FDFDFD;}
	.st7{fill:#B1D8FC;}
	.st8{fill:#F38996;}
	.st9{fill:#FFFFFF;}
	.st10{fill:#050506;}
	.st11{fill:#DCE7F1;}
	.st12{fill:#44AD5D;}
	.st13{fill:#FFCE00;}
	.st14{fill:#D76868;}
	.st15{fill:#D66767;}
	.st16{fill:#050505;}
	.st17{fill:#45B3D9;}
	.st18{fill:#1FBEF5;}
	.st19{fill:#020202;}
	.st20{fill:#E4F6FD;}
</style>
<g>
	<path class="st1" d="M354.6,429.7c2.3,0,3.9,0,5.4,0c31.3,0,62.7,0,94,0c18.2,0,31.1-12.8,31.1-31.1c0-90.5,0-180.9,0-271.4
		c0-18.3-12.7-31.1-31-31.1c-16,0-32.1,0-48.1,0c-2.1,0-4-0.3-6-1.2c-44.5-20.1-89-40.1-133.5-60.2c-4.5-2.1-8.3-2.1-12.9-0.1
		c-43.9,20-87.9,39.7-131.8,59.5c-2.9,1.3-5.7,2-8.9,1.9c-15.3-0.1-30.6-0.1-45.9,0c-19.7,0-32.1,12.4-32.1,32.3
		c0,89.7,0,179.5,0,269.2c0,19.7,12.5,32.2,32.2,32.2c31,0,62.1,0,93.1,0c1.5,0,3.1-0.4,4.9,0.5c-6.9,11.9-13.7,23.5-20.4,35.1
		c-5.2,9-0.6,17.3,9.7,17.3c70.5,0,140.9,0,211.4,0c9.8,0,14.5-8.2,9.7-16.7c-4-7-8.1-13.9-12.2-20.9
		C360.6,440.1,357.8,435.2,354.6,429.7z"/>
	<path class="st19" d="M258.7,479.9c-34.7,0-69.4,0-104.1,0c-3.8,0-6.8-1.4-8.1-3.7c-1.4-2.5-1.1-5.8,0.9-9.3
		c4.7-8.2,9.5-16.3,14.3-24.5c2.1-3.5,4.1-7,6.2-10.6l-1.1-3.9c-1.6-0.9-3.1-1-4.1-1c-0.4,0-0.9,0-1.3,0.1c-0.3,0-0.6,0-0.9,0
		c-19.9,0-39.7,0-59.6,0c-11.2,0-22.3,0-33.5,0c-18.1,0-29.4-11.3-29.4-29.3c0-89.7,0-179.5,0-269.2c0-18.4,10.9-29.4,29.2-29.4
		l9.7,0c4.6,0,9.2,0,13.8,0c8.8,0,15.9,0,22.4,0.1l0.2,0c3.4,0,6.6-0.7,9.9-2.2c15.2-6.9,30.5-13.8,45.7-20.6
		c28.2-12.7,57.4-25.9,86.1-38.9c1.9-0.9,3.6-1.3,5.2-1.3c1.7,0,3.4,0.4,5.4,1.3c29.1,13.2,58.8,26.6,87.5,39.5
		c15.3,6.9,30.7,13.8,46,20.7c2.1,1,4.4,1.4,7.1,1.4c9.3,0,18.6,0,27.9,0c6.8,0,13.5,0,20.3,0c16.9,0,28.2,11.4,28.2,28.3
		c0,92.2,0,183.5,0,271.4c0,16.6-11.6,28.3-28.2,28.3c-12.9,0-25.8,0-38.7,0l-60.7,0l-2.5,4.2l2.9,5c2.1,3.6,4,7,6,10.3
		c1.4,2.5,2.9,5,4.4,7.4c2.6,4.4,5.3,8.9,7.8,13.4c1.8,3.2,2,6.3,0.6,8.7c-1.4,2.4-4.3,3.8-7.9,3.8
		C330.2,479.9,294.4,479.9,258.7,479.9z"/>
	<path class="st2" d="M191.9,426.7c-7.5,0-13.4,1.7-17.6,10.2c-3.5,7-7.5,13.7-11.7,20.7c-1.8,3-3.6,6-5.4,9.1l2.5,4.3h200.9
		l2.4-4.3c-1.9-3.3-3.8-6.5-5.7-9.8c-4.9-8.4-9.6-16.4-14.2-24.6c-2.7-4.9-6.5-5.6-10.1-5.6l-2.7,0c-23.1,0.1-46.9,0.1-70.3,0.1
		c-25.2,0-47.4-0.1-67.7-0.2L191.9,426.7z"/>
	<path class="st4" d="M51.8,388.7c-4.2,0-5.4,2.7-5.6,4.9c-0.8,7.9,0.8,14.1,4.8,18.6c3.8,4.2,9.7,6.5,16.9,6.5H68
		c27.2-0.1,56.2-0.2,93.9-0.2c16.3,0,32.7,0,49,0c16.3,0,32.7,0,49,0H318c44.9,0,89.8,0,134.7,0l1.9,0c1.6,0,3.2-0.1,5-0.5
		c10-2.7,14.5-9.7,14.3-22.1c0-0.2,0-0.5,0-0.8c0.1-1.3,0.3-3.4-1.1-4.9c-0.6-0.6-1.7-1.4-3.5-1.4c-0.3,0-0.7,0-1.1,0.1
		c-0.1,0-0.2,0-0.2,0c-0.4,0-1-0.1-1.5-0.2c-0.7-0.1-1.6-0.2-2.4-0.2c-2.3,0-5.3,1-6.4,5.6c-1.7,6.9-6.1,10.4-13.1,10.4
		c-21.7,0.1-43.7,0.1-65.5,0.1c-21.3,0-42.9,0-64.2-0.1c-7.4,0-11.7-3.3-13.4-10.1c-1.2-5-4.5-5.7-7.5-5.7
		c-22.8,0-45.6,0.1-68.3,0.1c-20.6,0-41.2,0-61.9,0c-2.2,0-5.1,0.3-7.9,3c-11,10.5-24.1,16.1-38,16.1c-13.8,0-27-5.6-38-16.1
		l-0.1-0.1c-1.3-1.2-3-2.9-5.9-2.9c-3.6,0-7.2,0-10.8,0C59.4,388.7,55.6,388.7,51.8,388.7L51.8,388.7z"/>
	<path class="st2" d="M118,308.3c-25.3,0-45.3,19.8-45.5,45.2c-0.2,25.5,19.6,45.6,45,45.8l0.4,0c25.2,0,45.2-19.7,45.5-44.9
		c0.1-12.3-4.5-23.9-13-32.5c-8.5-8.6-20-13.4-32.3-13.5H118z"/>
	<path class="st4" d="M378.9,396c21.9,0,43.4,0,63.8,0.1c0,0,0,0,0,0c1.6,0,3.8-0.2,5.3-1.8c1.5-1.6,1.7-3.7,1.7-5.4
		c-0.1-17.5-0.1-33.5,0-48.9c0-1.6-0.2-3.6-1.6-5.1c-1.4-1.4-3.4-1.6-5.1-1.6H443c-11.9,0.1-23.6,0.1-32.5,0.1l-30.6,0l-30.3,0
		c-9.2,0-21.4,0-33.7-0.1h-0.1c-1.7,0-3.5,0.2-4.9,1.6c-1.4,1.4-1.6,3.3-1.6,4.9c0.2,17.7,0.2,33.9,0,49.4c0,1.5,0.1,3.7,1.7,5.2
		c1.5,1.5,3.6,1.7,5.5,1.7C337.3,396,358.1,396,378.9,396z"/>
	<path class="st9" d="M442.6,303.1c10.9,0,15.6,4.6,15.6,15.5c0,4.5,0,9,0,13.5c0,13.5,0.1,27.4-0.2,41.1c0,1.6,0.1,3.8,1.7,5.4
		c1.6,1.6,3.7,1.7,5.4,1.7c0.3,0,0.7,0,1,0c0.5,0,1,0,1.4,0c1.4,0,3.3-0.2,4.7-1.6c1.6-1.6,1.8-3.9,1.7-5.5
		c-0.1-63.9-0.1-128.9-0.1-191.8l0-54c0-12.6-7.6-20.2-20.4-20.2c-6,0-12,0-18,0c-6.8,0-13.7,0-20.5,0c-7,0-13.2,0-18.9-0.1l-0.2,0
		c-1.8,0-3.9,0.2-5.4,1.7c-1.5,1.5-1.7,3.6-1.7,5.5c0.1,5.3,0.1,9.8-1,10.9c-0.9,0.9-4,1-7.2,1c-1.1,0-2.2,0-3.5,0l-0.3,0
		c-1.5,0-3.6,0.2-5.1,1.7c-1.5,1.5-1.7,3.6-1.6,5.6c0.1,21.1,0.1,42.5,0.1,63.2l0,18.9c0,10.9,1.2,12.2,12,12.2
		c5.8,0,6.7,0.9,6.8,6.5c0.1,10.3,1.2,11.5,11.4,12c4.1,0.2,5.3,1.4,5.3,5.5c0,3,0,6,0,8.9c0,1.3,0,2.5,0,3.8c0,7.8-0.5,8.3-8.1,8.3
		H122.7c-0.4,0-0.7,0-1.1,0c-0.3,0-0.7,0-1,0c-0.4,0-0.8,0-1.3,0c-3.6-0.3-4.8-1.6-4.8-5.2c-0.1-5.1-0.1-10.2,0-15.4
		c0-4.7,1.1-5.8,5.7-5.9l0.9,0c0.5,0,1.1,0,1.6,0c0.6,0,1,0,1.4,0.1c0.5,0.1,1,0.1,1.4,0.1c2.6,0,5.7-1.2,5.7-6.8
		c0-5.3,0-9.4,0.9-10.7c0.7-0.9,3.5-1.1,7.7-1.1c1,0,2.1,0,3.2,0h0.2c1.6,0,3.7-0.2,5.1-1.6c1.4-1.4,1.6-3.4,1.6-5.4
		c-0.1-19-0.1-38.4-0.1-57.1c0-8.2,0-16.3,0-24.5c0-0.8,0.1-1.7,0.2-2.6c0.2-2.9,0.5-6.2-1.3-8.5c-1.7-2.2-4.4-2.2-5.3-2.2
		c-1,0-2,0.1-2.9,0.2c-0.9,0.1-1.7,0.2-2.4,0.2c-0.2,0-0.3,0-0.5,0c-0.4,0-0.8,0-1.2,0c-0.3,0-0.6,0-0.9,0c-3-0.4-4.2-1.7-4.3-4.6
		l0-0.2c-0.1-2.4-0.2-4.7,0-6.8c0.2-1.6,0.2-3.9-1.3-5.6c-1.5-1.7-3.8-1.9-5.6-1.9l-0.2,0c-5.9,0.1-12.3,0.1-19.6,0.1
		c-6.8,0-13.6,0-20.4,0c-5.5,0-11,0-16.5,0c-14.4,0-21.3,7-21.3,21.5l0,243.6c0,0.3,0,0.6,0,0.9c0,0.5,0,1,0,1.4
		c-0.2,1.7,0.2,3.1,1.1,4.1c1.4,1.5,3.4,1.5,4,1.5l0.3,0c1.7,0,3.6-0.1,5.9-0.1c1.3,0,2.7,0,4,0c1.4,0,2.8,0,4.2,0l2.7-3.8
		c-9.9-29-3.4-51.2,20-67.8c8.2-5.9,18.7-9.1,29.5-9.1c10.8,0,21.2,3.2,29.5,9.1c23,16.4,29.8,39.2,20.1,67.6l2.1,3.7
		c0.1,0,0.2,0.1,0.3,0.1c0.4,0.1,0.9,0.2,1.5,0.2l30.7,0c30.4,0,61.9,0,92.8,0.1c0,0,0,0,0,0c0.8,0,3,0,4.5-1.5
		c1.4-1.5,1.4-3.4,1.4-4.9v-0.2c0-15.4,0-31.1,0-46.3l0-8.9c0-11,4.5-15.6,15.5-15.6c20.4,0,40.9,0,61.3,0
		C399.3,303.1,421,303.1,442.6,303.1z"/>
	<path class="st2" d="M409.3,324.9c9.3,0,21.5,0,33.9,0.1h0.1c1.8,0,3.7-0.2,5.1-1.6c1.4-1.5,1.5-3.5,1.5-4.8c-0.1-2.1-0.3-7-6.7-7
		c-21.7,0-43,0.1-63.3,0.1c-21.7,0-43.1,0-63.6-0.1c-6.4,0-6.7,4.7-6.9,7.2c-0.1,2.1,0.3,3.6,1.3,4.7c1.5,1.5,3.5,1.5,4.4,1.5l1.1,0
		c11.4,0,22.8,0,34.2,0l28.9,0L409.3,324.9z"/>
	<path class="st4" d="M131.8,254.9c-1.3,0-2.7,0-4,0c-2.7,0.1-4.6,1.9-4.7,4.7c-0.1,1.6,0.4,2.8,1.3,3.8c0.6,0.6,1.7,1.4,3.6,1.4
		l1.1,0c0.5,0,1,0,1.6,0l259.2,0c1.1,0,2,0,3-0.1c2-0.1,4.4-1.5,4.3-5c0-2.8-1.8-4.7-4.6-4.8c-1.4,0-2.7,0-4.1,0l-128.4,0
		L131.8,254.9z"/>
	<path class="st4" d="M147.6,236.4c-1.1,0-2.4,0-3.7,0.1c-1.2,0.1-4.1,0.7-4.2,5c0,3.5,2.2,4.9,4.3,5c1.3,0.1,2.6,0.1,4.1,0.1
		l224.1,0c0.5,0,1,0,1.6,0c0.5,0,1,0,1.5,0l0.4,0c2.4,0,4.8-1.3,4.8-5.1c0-1.6-0.5-2.8-1.4-3.7c-0.6-0.6-1.7-1.3-3.5-1.3
		c0,0-0.5,0-0.5,0c-0.4,0-0.8,0-1.3,0c-0.4,0-0.9,0-1.3,0h-81.8L147.6,236.4z"/>
	<path class="st2" d="M164.1,126.4c-1.7,0-3.1,0.5-4.1,1.5c-1.6,1.6-1.7,3.8-1.7,5.7c0.1,10.7,0.1,21.6,0.1,32.1c0,3.8,0,7.6,0,11.5
		c0,3.3,0,6.7,0,10c0,8.4,0,17.1,0,25.7c0,1-0.1,2.2-0.3,3.4c-0.4,3.5-0.8,7.4,1.8,10.1c2.1,2.2,5.1,2.2,6.1,2.2c0,0,0,0,0,0
		c1.2,0,2.4-0.1,3.5-0.3c1.1-0.1,2.1-0.2,3-0.2c0.4,0,0.7,0,1,0.1c0.5,0.1,1,0.1,1.5,0.1c1.8,0,3.3-0.5,4.4-1.6
		c1.6-1.6,1.8-3.9,1.8-5.7c-0.1-16-0.1-32.3-0.1-48.1c0-10.3,0-20.5,0-30.8c0-1,0.1-2.2,0.3-3.5c0.4-3.6,0.9-7.7-1.8-10.4
		c-2.2-2.2-5.2-2.2-6.2-2.2c-1.2,0-2.4,0.1-3.6,0.3c-1.1,0.1-2.2,0.2-3.1,0.2c-0.4,0-0.7,0-1-0.1C165,126.5,164.5,126.4,164.1,126.4
		z"/>
	<path class="st2" d="M224.4,126.5c-1.8,0-3.2,0.5-4.2,1.6c-1.5,1.5-1.7,3.7-1.7,5.3c0.1,10.8,0.1,21.8,0.1,32.5c0,3.9,0,7.7,0,11.6
		c0,3.3,0,6.7,0,10c0,8.4,0,17.1,0.1,25.7c0,1-0.1,2.1-0.3,3.3c-0.4,3.3-0.9,7.5,2,10.2c1.4,1.3,3.3,2,5.8,2c1.1,0,2.3-0.1,3.4-0.2
		c1.1-0.1,2-0.2,3-0.2c0.3,0,0.7,0,0.9,0c0.5,0.1,1,0.1,1.5,0.1c1.9,0,3.4-0.6,4.5-1.6c1.6-1.6,1.8-4,1.8-5.9
		c-0.1-16-0.1-32.2-0.1-48c0-10.2,0-20.3,0-30.5c0-1,0.1-2.2,0.3-3.5c0.4-3.6,0.9-7.6-1.8-10.4c-2.2-2.3-5.3-2.3-6.3-2.3
		c-1.2,0-2.5,0.1-3.6,0.3c-1.1,0.1-2.2,0.2-3.2,0.2c-0.3,0-0.6,0-0.9,0C225.2,126.5,224.8,126.5,224.4,126.5z"/>
	<path class="st19" d="M315.9,126.5c-1.9,0-3.3,0.5-4.4,1.6c-1.5,1.5-1.7,3.7-1.7,5.7c0.1,16.2,0.1,32.7,0.1,48.7
		c0,10.5,0,21.1,0,31.6c0,0.9-0.1,2-0.3,3.1c-0.4,3.3-0.8,7.1,1.8,9.6c1.4,1.3,3.2,1.9,5.7,1.9c1.1,0,2.2-0.1,3.3-0.2
		c1-0.1,2-0.2,2.8-0.2c0.3,0,0.6,0,0.9,0c0.4,0,0.8,0.1,1.2,0.1c1.7,0,3-0.5,4-1.5c1.4-1.4,1.6-3.4,1.6-5.1
		c-0.1-10.9-0.1-22-0.1-32.7c0-3.8,0-7.6,0-11.4c0-3.4,0-6.8,0-10.3c0-8.8,0-17.9-0.1-26.8c0-0.9,0.1-1.9,0.3-3.1
		c0.4-3.2,0.9-7.1-2-9.6c-1.6-1.4-3.8-1.6-5.2-1.6c-1,0-2,0.1-3,0.2c-0.9,0.1-1.8,0.2-2.7,0.2c-0.3,0-0.6,0-1,0
		C316.8,126.5,316.4,126.5,315.9,126.5z"/>
	<path class="st19" d="M195,126.5c-1.7,0-3.1,0.5-4.1,1.5c-1.5,1.5-1.7,3.6-1.7,5.5c0.1,15.9,0.1,32.2,0.1,47.8
		c0,10.9,0,21.9,0,32.8c0,0.9-0.1,1.9-0.3,3.1c-0.4,3.3-0.9,7.3,2,9.7c1.7,1.4,3.9,1.6,5.4,1.6c1,0,2.1-0.1,3.1-0.2
		c1-0.1,1.9-0.1,2.7-0.1c0.3,0,0.6,0,0.9,0c0.4,0,0.8,0.1,1.2,0.1c1.8,0,3.2-0.5,4.2-1.5c1.5-1.5,1.6-3.6,1.6-5.2
		c-0.1-10.7-0.1-21.6-0.1-32.1c0-3.8,0-7.7,0-11.5c0-3.4,0-6.8,0-10.2c0-8.8,0-17.9,0-26.8c0-0.9,0.1-2,0.2-3.1
		c0.4-3.2,0.8-6.9-1.7-9.5c-1.9-2-4.6-2-5.5-2c-1.1,0-2.1,0.1-3.2,0.2c-1,0.1-1.9,0.2-2.7,0.2c-0.3,0-0.6,0-0.9,0
		C195.9,126.5,195.4,126.5,195,126.5z"/>
	<path class="st2" d="M345.2,126.4c-1.9,0-3.3,0.5-4.3,1.6c-1.5,1.5-1.7,3.6-1.6,5.2c0.1,10.8,0.1,21.8,0.1,32.5c0,3.9,0,7.7,0,11.6
		c0,3.8,0,7.6,0,11.4c0,10.7,0,21.7-0.1,32.6c0,1.8,0.2,3.9,1.6,5.4c1,1,2.4,1.5,4.3,1.5c0,0,0,0,0,0c0.3,0,0.7,0,1,0
		c1.4-0.1,2.8-0.2,4.3-0.2c1.5,0,3,0.1,4.5,0.2c0.4,0,0.7,0,1,0c1.9,0,3.3-0.5,4.4-1.6c1.5-1.5,1.7-3.6,1.7-5.2
		c-0.1-28.4-0.1-58,0-88.1c0-1.8-0.2-3.9-1.7-5.4c-1-1-2.4-1.5-4.2-1.5c-0.3,0-0.7,0-1,0c-1.4,0.1-2.9,0.2-4.3,0.2
		c-1.5,0-3-0.1-4.5-0.2C345.8,126.5,345.5,126.4,345.2,126.4z"/>
	<path class="st2" d="M289.9,228c1.2,0,2.4,0.1,3.5,0.2c0.6,0.1,1.1,0.1,1.6,0.1c2.1,0,3.7-0.6,4.8-1.7c1.7-1.7,1.9-4.2,1.9-6.2
		c-0.1-16.5-0.1-33.4-0.1-49.6c0-9.5,0-18.9,0-28.4c0-1,0.1-2.2,0.3-3.5c0.4-3.6,0.9-7.6-1.8-10.4c-2.2-2.3-5.3-2.3-6.3-2.3
		c-1.2,0-2.4,0.1-3.5,0.3c-1.1,0.1-2.1,0.2-3.1,0.2c-0.4,0-0.7,0-1-0.1c-0.5-0.1-0.9-0.1-1.4-0.1c-1.8,0-3.2,0.5-4.2,1.5
		c-1.5,1.5-1.7,3.6-1.7,5.7c0.1,10.6,0.1,21.4,0.1,31.8c0,3.8,0,7.6,0,11.4c0,3.9,0,7.8,0,11.7c0,10.8,0,21.9-0.1,32.8
		c0,1.7,0.2,3.8,1.7,5.3c1,1.1,2.5,1.6,4.3,1.6c0.3,0,0.7,0,1.1-0.1C287.4,228,288.6,228,289.9,228z"/>
	<path class="st19" d="M255.3,126.5c-1.8,0-3.2,0.5-4.2,1.5c-1.5,1.6-1.7,3.7-1.6,5.7c0.1,10.7,0.1,21.6,0.1,32.1
		c0,3.8,0,7.6,0,11.5v37c0,12.3,1.2,13.6,13.2,13.8l0.9,0c1.7,0,3.9-0.2,5.4-1.7c1.6-1.6,1.8-3.8,1.7-5.6
		c-0.1-16.3-0.1-32.9-0.1-48.9c0-10.3,0-20.6,0-30.8c0-0.9,0.1-2,0.3-3.1c0.4-3.3,0.9-7.4-2-10c-1.7-1.5-3.9-1.6-5.5-1.6
		c-1,0-2,0.1-3,0.2c-1,0.1-1.9,0.1-2.7,0.1c-0.4,0-0.8,0-1.1,0C256.1,126.5,255.7,126.5,255.3,126.5z"/>
	<path class="st4" d="M144.6,107.4c-2.2,0-3.3,1-4,1.8c-0.9,1.2-1,2.7-1,3.7c0,3.3,2,5.3,5.2,5.3c0.2,0,0.3,0,0.5,0
		c0.3,0,0.5,0,0.8,0c0.3,0,0.5,0,0.8,0c0.3,0,0.6,0,0.9,0l225.5,0c0.9,0,1.7,0,2.6,0c2-0.1,4.5-1.1,4.6-5.3l0-0.3
		c0-1.6-0.4-2.9-1.3-3.8c-0.6-0.6-1.7-1.3-3.5-1.3l-0.2,0c-0.3,0-0.6,0-0.9,0c-0.4,0-0.8,0-1.3,0c-0.4,0-0.9,0-1.3,0l-224,0
		c-0.4,0-0.7,0-1.1,0c-0.3,0-0.6,0-0.9,0c-0.3,0-0.6,0-0.9,0C145,107.4,144.8,107.4,144.6,107.4z"/>
	<path class="st2" d="M260.4,45.4c-2.2,0-4,0.8-5.6,1.5c-14.3,6.5-28.6,12.9-42.9,19.3c-9,4-18,8.1-26.9,12.1
		c-7.2,3.3-14.5,6.5-22.1,10l-11,5l1.2,5.4h213.9l1.3-5.4c-0.6-0.3-1.2-0.6-1.6-0.8c-0.8-0.4-1.4-0.8-2.1-1l-24-10.8
		c-24.9-11.2-50.6-22.8-75.9-34.3C263.1,45.7,261.8,45.4,260.4,45.4z"/>
	<path class="st20" d="M252.4,177.3c0-14.5,0.1-29.1-0.1-43.6c0-3.1,0.4-4.7,4-4.3c3.6,0.4,8.5-1.1,10.7,0.7
		c2.5,2.2,0.8,7.2,0.8,10.9c0.1,26.6,0,53.2,0.1,79.7c0,3.8-1.1,4.6-4.7,4.5c-10.9-0.2-10.9-0.1-10.9-11
		C252.4,201.9,252.4,189.6,252.4,177.3z"/>
	<path class="st20" d="M207.4,177.8c0,14.5-0.1,29.1,0.1,43.6c0,3.1-0.8,4.1-3.9,3.8c-3.6-0.3-8.4,1.1-10.6-0.7
		c-2.4-1.9-0.7-6.9-0.7-10.5c-0.1-26.9,0-53.8-0.1-80.6c0-3.3,0.8-4.5,4.1-4c3.6,0.5,8.3-1.5,10.6,0.8c2.2,2.3,0.6,7,0.6,10.6
		C207.4,153.1,207.4,165.5,207.4,177.8z"/>
	<path class="st20" d="M328,177.6c0,14.7-0.1,29.4,0.1,44.1c0,2.8-0.6,4-3.6,3.7c-3.8-0.4-8.6,1.5-11-0.8c-2.3-2.1-0.6-7-0.7-10.6
		c-0.1-26.7,0-53.5-0.1-80.2c0-3.4,0.7-4.7,4.3-4.3c3.5,0.4,8.2-1.1,10.2,0.6c2.4,2.1,0.7,6.9,0.8,10.5
		C328.1,152.9,328,165.2,328,177.6z"/>
	<path class="st19" d="M222.5,346.8c1.3,0,2.6-0.1,4,0c4.1,0.3,7,3.1,7.1,7c0,3.8-2.8,6.8-7,7.1c-2.3,0.2-4.7,0.1-7,0
		c-4.8-0.1-7.9-2.9-7.9-7c0-4.1,3.1-6.9,7.8-7.1C220.5,346.7,221.5,346.7,222.5,346.8C222.5,346.7,222.5,346.8,222.5,346.8z"/>
	<path class="st19" d="M194.5,346.8c1.5,0,2.9-0.1,4.4,0c3.9,0.4,6.1,2.6,6.5,6.5c0.3,3.7-2.2,7-6,7.4c-3.2,0.3-6.5,0.4-9.7,0
		c-3.8-0.5-5.9-3.1-6.1-6.9c-0.2-3.6,2.7-6.6,6.5-7C191.5,346.7,193,346.8,194.5,346.8z"/>
	<path class="st19" d="M250.4,360.9c-7.3,0-10.5-2.1-10.6-6.9c-0.1-5,3.1-7.2,10.7-7.2c1.2,0,2.3,0,3.5,0c4.5,0.2,7.5,2.9,7.6,6.9
		c0.1,3.9-3,6.9-7.3,7.2C253,360.9,251.7,360.9,250.4,360.9z"/>
	<path class="st19" d="M198.6,300.1c-2.7,0.1-4.8-1.1-6.2-3.4c-1.5-2.5-1.6-5.2,0.3-7.4c2.2-2.7,4.7-5.2,7.4-7.4
		c2.2-1.8,4.9-1.7,7.4-0.2c2.3,1.4,3.5,3.5,3.4,6.2C210.8,292,202.8,300,198.6,300.1z"/>
	<path class="st19" d="M259.3,281.7c4.7-0.2,13.3,8.5,13.1,12.9c-0.2,2.7-1.5,4.8-3.9,6c-2.5,1.2-5.2,1.2-7.4-0.7
		c-2.4-2.1-4.7-4.4-6.8-6.8c-1.9-2.2-1.9-4.8-0.6-7.4C254.8,283,257,282.1,259.3,281.7z"/>
	<path class="st19" d="M292.1,314.2c0,2.8-1.2,4.8-3.6,6.1c-2.5,1.4-5.2,1.4-7.4-0.5c-2.6-2.2-4.9-4.6-7.1-7.1
		c-1.9-2.2-1.9-4.9-0.5-7.4c1.3-2.3,3.3-3.6,6.1-3.6C284.1,301.7,292.1,309.7,292.1,314.2z"/>
	<path class="st19" d="M178.7,320.1c-5.2,0.1-8.9-5.8-6.3-10.3c2-3.4,5-6.1,8.3-8.4c2.2-1.5,4.8-1.3,7.1,0.1
		c2.3,1.4,3.5,3.5,3.4,6.2C191,311.9,182.8,320,178.7,320.1z"/>
	<path class="st19" d="M278.6,346.8c1.5,0,2.9-0.1,4.4,0c3.9,0.3,6.6,3.2,6.7,6.9c0.1,3.6-2.6,6.8-6.4,7.1c-2.6,0.3-5.3,0.2-7.9,0.1
		c-4.7-0.2-7.6-3.1-7.5-7.4c0.1-4,3-6.6,7.6-6.7C276.6,346.7,277.6,346.7,278.6,346.8C278.6,346.7,278.6,346.8,278.6,346.8z"/>
	<path class="st19" d="M342.7,385.9c-4.8,0-9.8,0-14.8-0.1c-5.7-0.1-9.1-3.3-9.4-9c-0.2-4.8-0.2-9.7,0-14.4c0.2-5.4,3.6-8.6,9.1-8.8
		c1.8-0.1,3.6-0.1,5.9-0.1c1.5,0,3,0,4.6,0c1.5,0,3.1,0,4.6,0h0.3c1.3,0,2.6,0,4,0c1.5,0,3,0,4.6,0c1.7,0,3.4,0,5.1,0
		c6.6,0.1,9.9,3.2,10.1,9.6c0.2,5.2,0.2,9.5,0,13.5c-0.3,5.7-3.7,8.9-9.3,9C352.6,385.9,347.6,385.9,342.7,385.9z"/>
	<path class="st1" d="M334.3,364.7c-2.4,0-4.9,0.6-4.9,4.8c0,1.9,0.4,3.2,1.3,4.1c1,1,2.5,1.2,3.5,1.2h0c0.3,0,0.6,0,1,0
		c0.8-0.1,1.7-0.1,2.8-0.1c0.8,0,1.5,0,2.3,0c0.8,0,1.5,0,2.3,0c0.9,0,1.8,0,2.7,0c0.9,0,1.8,0,2.7,0c1.3,0,2.4,0,3.4,0.1
		c0.2,0,0.4,0,0.5,0c1.3,0,2.3-0.3,3-1.1c1-1,1.1-2.5,1.1-3.8c0-1.9-0.1-5.2-4.3-5.2c-0.1,0-0.2,0-0.4,0c-2.3,0.1-4.7,0.1-7.4,0.1
		c-3.1,0-6.1-0.1-8.8-0.1C334.7,364.7,334.5,364.7,334.3,364.7z"/>
	<path class="st19" d="M414,373.1c7.2,0,14.4-0.1,21.6,0c4.9,0,7.9,2.8,8,6.9c0,4-3.2,7.1-7.9,7.1c-14.5,0.1-29.1,0.1-43.6,0
		c-4.8,0-7.7-3-7.7-7.2c0.1-4.2,3-6.8,8-6.8C399.6,373.1,406.8,373.1,414,373.1z"/>
	<path class="st19" d="M117.9,386.2c-2,0-3.3-0.9-3.7-2.8c-0.7-2.9-2.2-4.7-5.1-5.9c-2.1-0.9-3.9-2.4-5.3-4.6
		c-0.9-1.4-0.9-2.7-0.1-4.2c0.7-1.2,1.7-1.9,3.3-2.1c1.8,0.2,2.4,0.7,2.8,1.1c2.6,3.4,6.2,3.4,7.4,3.4c0.8,0,1.6-0.1,2.3-0.1
		c3.8-0.3,6.2-3,6-6.8c-0.2-3.4-2.5-5.7-6-6.1c-0.7-0.1-1.3-0.1-2-0.1c-0.4,0-0.8,0-1.2,0c-6.6-0.4-12.3-4.9-13.8-11
		c-1.6-6.5,1.2-13.1,7-16.5c1.9-1.1,3.9-2.5,4.6-6c0.4-2,1.7-3,3.9-3c2.8,0,3.5,1.6,3.8,2.8c0.7,3,2.3,4.8,5.2,5.9
		c1.6,0.6,3.1,1.8,4.6,3.8c1.7,2.1,1.7,4.5,0,6c-0.9,0.8-1.8,1.2-2.7,1.2c-1,0-2-0.5-2.8-1.4c-2.7-2.7-5.6-3-7.6-3
		c-0.6,0-1.2,0-1.8,0.1c-3.6,0.3-5.9,2.6-6,6c-0.2,3.7,2.1,6.3,5.9,6.8c1,0.1,1.9,0.1,2.8,0.2c1,0,1.9,0,2.7,0.2
		c5.9,1.1,10.7,5.8,11.7,11.4c1.2,6.5-1.5,12.6-7.1,15.8c-2.3,1.3-4,2.9-4.6,6C121.4,385.2,120.1,386.2,117.9,386.2L117.9,386.2z"/>
</g>
</svg>
