<?xml version="1.0" encoding="utf-8"?>
<!-- Generator: Adobe Illustrator 23.0.1, SVG Export Plug-In . SVG Version: 6.00 Build 0)  -->
<svg version="1.1" id="Layer_1" xmlns="http://www.w3.org/2000/svg" xmlns:xlink="http://www.w3.org/1999/xlink" x="0px" y="0px"
	 viewBox="0 0 519.7 519.7" style="enable-background:new 0 0 519.7 519.7;" xml:space="preserve">
<style type="text/css">
	.st0{fill:#060606;}
	.st1{fill:#FEFEFE;}
	.st2{fill:#146D95;}
	.st3{fill:#3A95CE;}
	.st4{fill:#17A7CF;}
	.st5{fill:#040404;}
	.st6{fill:#B1D8FC;}
	.st7{fill:#F38996;}
	.st8{fill:#FFFFFF;}
	.st9{fill:#FDFDFD;}
	.st10{fill:#050506;}
	.st11{fill:#DCE7F1;}
	.st12{fill:#44AD5D;}
	.st13{fill:#FFCE00;}
	.st14{fill:#D76868;}
	.st15{fill:#D66767;}
	.st16{fill:#050505;}
	.st17{fill:#45B3D9;}
	.st18{fill:#1FBEF5;}
	.st19{fill:#020202;}
	.st20{fill:#E4F6FD;}
	.st21{fill:#060707;}
	.st22{fill:#B4E9D6;}
	.st23{fill:#FB542B;}
	.st24{fill:#010101;}
	.st25{fill:#FBFCFC;}
	.st26{fill:#E0F3EF;}
	.st27{fill:#EB8412;}
	.st28{fill:#F9FAFB;}
	.st29{fill:#000001;}
</style>
<g>
	<path d="M115.5,231.4c-3,13.1-6,26.1-9,39.2c-0.9,4-1.1,9.4-6.6,9.5c-6.1,0.1-6.1-5.5-6.9-9.9c-4-21.5-8.1-43.1-14.2-64.8
		c-1.8,10.6-3.7,21.2-5.5,31.8c-2.7,16.3-5.1,32.7-8,49c-0.7,4-0.9,9.5-6.4,9.5c-5.9,0-6.2-5.6-7.1-9.9c-2.5-12.4-5.2-24.7-7.3-37.2
		c-1.2-7.2-4-10.5-11.8-9.9c-4.6,0.3-12.6,2.4-12.7-4.3c-0.1-7.8,8.1-4.4,13-5.2c2.6-0.4,5.4,0.1,8.1-0.1c6.3-0.5,9.3,2.6,10.3,8.6
		c1.7,9.6,3.8,19.1,7.7,28.7c1.2-6.4,2.4-12.8,3.4-19.2c3.6-21.9,7.2-43.9,10.8-65.9c0.6-3.8,0.8-8.6,6-8.6c5.4,0,5.4,4.9,6.1,8.6
		c3.8,20.4,7.5,40.8,11.2,61.2c0.7,3.7,1.5,7.4,4,11.2c1.6-6.9,3.3-13.7,4.9-20.6c1.4-5.9,2.6-11.8,4-17.6c0.8-3.5,1.5-7.7,6.1-7.8
		c4.1-0.1,5,3.8,6,6.9c2.6,7.7,5.5,15.3,7.6,23.1c1.6,5.7,4.7,7.6,10.4,7.3c7.8-0.4,15.7,0.2,23.5-0.2c7.1-0.3,9.4,2.6,9.5,9.6
		c0.2,16.5-1.5,33.1,1.2,49.6c6,37.4,36.3,65.1,74.2,67c12.6,0.6,25.2,1.1,37.8-1c38.8-6.4,66.7-38.6,67.2-77.8
		c0.2-12.6,0.3-25.3-0.1-37.9c-0.2-7.1,2.8-9.7,9.7-9.4c8.1,0.4,16.3-0.2,24.4,0.2c5.1,0.2,7.7-1.8,9.1-6.6c2.3-7.8,5-15.5,7.7-23.1
		c1.2-3.3,1.9-7.7,6.4-7.6c4.5,0.2,5.1,4.5,5.9,8c2.4,10.5,4.8,21.1,7.2,31.7c0.5,2.2,0.1,4.9,3.4,6.5c4.4-23.5,8.7-46.8,13-70.1
		c0.3-1.5,0.4-3,0.8-4.4c0.8-3.2,1.5-6.9,5.9-6.7c4.3,0.2,5.1,3.7,5.6,7.1c2.6,15.4,5,30.9,7.6,46.3c2.2,13.5,4.6,27,8.9,40.5
		c1.9-9.1,4.2-18.1,5.4-27.2c1.1-8,5-10.9,12.7-10.2c4.5,0.4,9,0,13.5,0.3c2.8,0.2,5.8,0.9,5.9,4.3c0.2,4.1-3.1,4.6-6.2,5
		c-0.3,0-0.6,0-0.9,0.1c-16.2,1.8-16.2,1.8-19.4,18c-2,10-3.8,20.1-5.9,30.1c-0.9,4.1-1.6,9.2-7.1,8.8c-4.9-0.3-5.4-5.2-6-8.9
		c-3.9-23.4-7.7-46.9-11.5-70.3c-0.6-3.8-0.7-7.7-3.6-12.9c-3.9,20.6-7.4,39.7-11,58.8c-0.7,3.5-1.3,7.1-2,10.6
		c-0.6,3.5-1.9,6.8-5.8,7.1c-4.6,0.3-5.9-3.4-6.7-7.1c-2.6-11.4-5.1-22.9-7.7-34.3c-0.6-2.5-1.6-4.9-4.2-7.5
		c-1.4,4.1-3.1,8.1-4.2,12.3c-1.9,7.5-6.2,11.2-14.3,10.5c-6.6-0.5-13.2,0.1-19.8-0.2c-6-0.3-7.7,2.2-7.8,7.9
		c-0.3,15,1.4,30.1-1.3,45c-6.5,36.2-33.2,64.3-69.1,71.2c-8.4,1.6-10.7,5.2-10.6,13.2c0.4,18.6,0.3,37.3,0.1,56
		c-0.1,6.5,2.1,9.2,8.9,9c14.1-0.3,28.3-0.1,42.4,0c3.1,0,7.6-0.8,7.8,3.9c0.2,5.2-4.4,4.9-7.9,4.9c-44.5,0-89.1,0-133.6,0
		c-3.3,0-7.4,0-7.5-4.4c-0.2-4.8,4.1-4.4,7.3-4.4c12.3-0.1,24.7-0.4,37,0.1c7.2,0.3,9.4-2.6,9.3-9.5c-0.3-19.6-0.2-39.1,0-58.7
		c0.1-5.4-1.5-8.4-7.2-9.3c-43.6-6.8-76.3-46.3-73.8-92.8c0.4-8.1-0.2-16.3,0.1-24.4c0.2-6-2.2-8-8-7.7c-6.3,0.3-12.7-0.3-18.9,0.2
		c-8.3,0.7-13.1-2.6-15-10.7c-1-4-2.7-7.9-4.1-11.8C117.1,231.4,116.3,231.4,115.5,231.4z M272.4,418.6c0-10.5-0.2-21,0.1-31.5
		c0.2-6.6-3.6-7.4-8.7-7c-4.5,0.3-10.2-1.6-10.2,6.3c0.1,21,0.1,42,0,63c-0.1,7.8,5.3,6.4,10,6.6c4.8,0.2,9,0,8.9-6.8
		C272.2,439,272.4,428.8,272.4,418.6z"/>
	<path d="M185.2,221.7c0-21.6,0.8-43.3-0.2-64.9c-2-41.2,30.6-75.4,75.8-77.7c43.2-2.2,77.4,26.6,79.7,69.7
		c2.7,49.5,2.7,99.2-0.1,148.7c-2,35.5-32.7,62.2-68.5,62.5c-9.3,0.1-18.8,0.6-27.9-0.9c-37.2-6.2-59-33.5-59.6-74.3
		c-0.3-21-0.1-42.1-0.1-63.1C184.7,221.7,184.9,221.7,185.2,221.7z M262.7,224.9c20.8,0,41.5-0.2,62.3,0.1c5.8,0.1,7.9-1.6,7.8-7.5
		c-0.3-21.4,0.4-42.7-0.3-64.1c-1.1-39.4-31.4-67.5-70.9-65.6c-24.8,1.2-45.3,11.1-59.1,32.7c-3.4,5.4-2.4,7.2,4,6.9
		c7.5-0.3,15-0.1,22.6-0.1c3.1,0,6.6,0.2,6.6,4.3c0,4-3.4,4.4-6.6,4.4c-8.7,0-17.5,0.4-26.2-0.1c-5.8-0.3-8.4,1.8-8.6,7.4
		c-0.1,2.1-0.3,4.2-0.7,6.3c-1.3,6.4,0.5,9.5,7.8,8.9c8.1-0.6,16.2-0.2,24.4-0.1c3.5,0,8.3-0.7,8.1,4.5c-0.2,5.3-5.1,4-8.5,4.1
		c-8.4,0.1-16.9,0.5-25.3-0.1c-8-0.5-6.8,4.6-6.8,9.3c0,5-1.5,10.6,7.1,10c8.1-0.6,16.2-0.3,24.4-0.1c3.6,0.1,9.2-1.5,9,4.4
		c-0.2,5.6-5.8,3.7-9.4,4c-3.3,0.3-6.6,0.1-9.9,0.1c-21.6,0-21.4,0-21.3,22.1c0,6.2,1.7,8.3,8.1,8.2
		C221.8,224.7,242.2,224.9,262.7,224.9z M263.9,252.3c-20.2,0-40.3,0.4-60.5-0.2c-8.2-0.2-10.5,2.6-10,10.4c0.6,9.6,0,19.2,0.2,28.9
		c0.7,29.9,20.5,53.2,50,58.9c9.6,1.9,19.2,1.1,28.8,0.9c32.9-0.5,58.8-26,59.8-58.9c0.3-10.5-0.3-21.1,0.2-31.6
		c0.3-7.1-2.7-8.6-9-8.5C303.6,252.5,283.8,252.3,263.9,252.3z M262.1,243.7c21,0,42.1,0,63.1,0c3.4,0,7.3,1.1,7.5-4.8
		c0.2-5.7-3.3-5.2-7-5.2c-41.8,0-83.6,0-125.3,0c-3.6,0-7.2-0.6-7.1,5.2c0.1,5.9,4,4.9,7.5,4.9C221.2,243.8,241.6,243.7,262.1,243.7
		z"/>
	<path class="st27" d="M262.7,224.9c-20.5,0-40.9-0.2-61.4,0.1c-6.4,0.1-8.1-2-8.1-8.2c-0.1-22.1-0.3-22.1,21.3-22.1
		c3.3,0,6.6,0.2,9.9-0.1c3.6-0.3,9.2,1.7,9.4-4c0.2-5.8-5.4-4.3-9-4.4c-8.1-0.2-16.3-0.5-24.4,0.1c-8.6,0.6-7.1-5.1-7.1-10
		c0-4.7-1.2-9.9,6.8-9.3c8.4,0.6,16.8,0.2,25.3,0.1c3.4-0.1,8.3,1.2,8.5-4.1c0.2-5.3-4.6-4.5-8.1-4.5c-8.1-0.1-16.3-0.5-24.4,0.1
		c-7.3,0.5-9.1-2.5-7.8-8.9c0.4-2.1,0.6-4.2,0.7-6.3c0.2-5.6,2.9-7.7,8.6-7.4c8.7,0.5,17.4,0.1,26.2,0.1c3.2,0,6.6-0.4,6.6-4.4
		c0-4.1-3.4-4.3-6.6-4.3c-7.5,0-15.1-0.3-22.6,0.1c-6.4,0.3-7.4-1.5-4-6.9c13.8-21.6,34.3-31.5,59.1-32.7
		c39.4-1.9,69.7,26.2,70.9,65.6c0.6,21.3,0,42.7,0.3,64.1c0.1,6-2,7.6-7.8,7.5C304.2,224.7,283.4,224.9,262.7,224.9z"/>
	<path class="st4" d="M263.9,252.3c19.9,0,39.7,0.2,59.6-0.1c6.4-0.1,9.4,1.4,9,8.5c-0.5,10.5,0.1,21.1-0.2,31.6
		c-1,32.9-26.9,58.4-59.8,58.9c-9.6,0.1-19.2,0.9-28.8-0.9c-29.5-5.7-49.3-29-50-58.9c-0.2-9.6,0.4-19.3-0.2-28.9
		c-0.5-7.7,1.8-10.6,10-10.4C223.6,252.7,243.8,252.3,263.9,252.3z"/>
	<path class="st28" d="M262.1,243.7c-20.4,0-40.9,0-61.3,0c-3.4,0-7.3,1-7.5-4.9c-0.1-5.8,3.4-5.2,7.1-5.2c41.8,0,83.6,0,125.3,0
		c3.7,0,7.2-0.5,7,5.2c-0.2,5.9-4.1,4.8-7.5,4.8C304.2,243.8,283.1,243.7,262.1,243.7z"/>
</g>
</svg>
